# MagicaVoxel @ Ephtracy

# group
o 

# material
mtllib Latas  de lixo-0.mtl
usemtl palette

# normals
vn -1 0 0
vn 1 0 0
vn 0 0 1
vn 0 0 -1
vn 0 -1 0
vn 0 1 0

# texcoords
vt 0.970703 0.5
vt 0.974609 0.5

# verts
v 1.3 1.7 6.8
v 1.3 1.7 6.3
v 1.3 1.9 6.8
v 1.3 1.9 6.3
v 1.4 0 6.8
v 1.4 0 6.3
v 1.4 0.4 6.7
v 1.4 0.4 6.6
v 1.4 0.4 6.5
v 1.4 0.4 6.4
v 1.4 1.4 6.7
v 1.4 1.4 6.6
v 1.4 1.4 6.5
v 1.4 1.4 6.4
v 1.4 1.7 7
v 1.4 1.7 6.8
v 1.4 1.7 6.3
v 1.4 1.7 6.1
v 1.4 1.9 7
v 1.4 1.9 6.8
v 1.4 1.9 6.3
v 1.4 1.9 6.1
v 1.5 0 6.9
v 1.5 0 6.8
v 1.5 0 6.3
v 1.5 0 6.2
v 1.5 1.7 7.1
v 1.5 1.7 7
v 1.5 1.7 6.9
v 1.5 1.7 6.8
v 1.5 1.7 6.3
v 1.5 1.7 6.2
v 1.5 1.7 6.1
v 1.5 1.7 6
v 1.5 1.9 7.1
v 1.5 1.9 7
v 1.5 1.9 6.1
v 1.5 1.9 6
v 1.6 0 7
v 1.6 0 6.9
v 1.6 0 6.2
v 1.6 0 6.1
v 1.6 1.7 7
v 1.6 1.7 6.9
v 1.6 1.7 6.2
v 1.6 1.7 6.1
v 1.7 0 7.1
v 1.7 0 7
v 1.7 0 6.1
v 1.7 0 6
v 1.7 1.7 7.2
v 1.7 1.7 7.1
v 1.7 1.7 7
v 1.7 1.7 6.1
v 1.7 1.7 6
v 1.7 1.7 5.9
v 1.7 1.9 7.2
v 1.7 1.9 7.1
v 1.7 1.9 6
v 1.7 1.9 5.9
v 1.9 1.9 6.8
v 1.9 1.9 6.7
v 1.9 1.9 6.4
v 1.9 1.9 6.3
v 1.9 2.1 6.7
v 1.9 2.1 6.4
v 1.9 2.2 6.8
v 1.9 2.2 6.3
v 2 1.9 6.8
v 2 1.9 6.7
v 2 1.9 6.4
v 2 1.9 6.3
v 2 2.1 6.7
v 2 2.1 6.4
v 2 2.2 6.8
v 2 2.2 6.3
v 2.2 0 7.1
v 2.2 0 7
v 2.2 0 6.1
v 2.2 0 6
v 2.2 1.7 7.2
v 2.2 1.7 7.1
v 2.2 1.7 7
v 2.2 1.7 6.1
v 2.2 1.7 6
v 2.2 1.7 5.9
v 2.2 1.9 7.2
v 2.2 1.9 7.1
v 2.2 1.9 6
v 2.2 1.9 5.9
v 2.3 0 7
v 2.3 0 6.9
v 2.3 0 6.2
v 2.3 0 6.1
v 2.3 1.7 7
v 2.3 1.7 6.9
v 2.3 1.7 6.2
v 2.3 1.7 6.1
v 2.4 0 6.9
v 2.4 0 6.8
v 2.4 0 6.3
v 2.4 0 6.2
v 2.4 1.7 7.1
v 2.4 1.7 7
v 2.4 1.7 6.9
v 2.4 1.7 6.8
v 2.4 1.7 6.3
v 2.4 1.7 6.2
v 2.4 1.7 6.1
v 2.4 1.7 6
v 2.4 1.9 7.1
v 2.4 1.9 7
v 2.4 1.9 6.1
v 2.4 1.9 6
v 2.5 0 6.8
v 2.5 0 6.3
v 2.5 0.4 6.7
v 2.5 0.4 6.6
v 2.5 0.4 6.5
v 2.5 0.4 6.4
v 2.5 1.4 6.7
v 2.5 1.4 6.6
v 2.5 1.4 6.5
v 2.5 1.4 6.4
v 2.5 1.7 7
v 2.5 1.7 6.8
v 2.5 1.7 6.3
v 2.5 1.7 6.1
v 2.5 1.9 7
v 2.5 1.9 6.8
v 2.5 1.9 6.3
v 2.5 1.9 6.1
v 2.6 1.7 6.8
v 2.6 1.7 6.3
v 2.6 1.9 6.8
v 2.6 1.9 6.3
v 1.7 1.7 7.2
v 1.7 1.9 7.2
v 2.2 1.7 7.2
v 2.2 1.9 7.2
v 1.5 1.7 7.1
v 1.5 1.9 7.1
v 1.7 0 7.1
v 1.7 1.7 7.1
v 1.7 1.9 7.1
v 1.8 0.4 7.1
v 1.8 1.4 7.1
v 1.9 0.4 7.1
v 1.9 1.4 7.1
v 2 0.4 7.1
v 2 1.4 7.1
v 2.1 0.4 7.1
v 2.1 1.4 7.1
v 2.2 0 7.1
v 2.2 1.7 7.1
v 2.2 1.9 7.1
v 2.4 1.7 7.1
v 2.4 1.9 7.1
v 1.4 1.7 7
v 1.4 1.9 7
v 1.5 1.7 7
v 1.5 1.9 7
v 1.6 0 7
v 1.6 1.7 7
v 1.7 0 7
v 1.7 1.7 7
v 2.2 0 7
v 2.2 1.7 7
v 2.3 0 7
v 2.3 1.7 7
v 2.4 1.7 7
v 2.4 1.9 7
v 2.5 1.7 7
v 2.5 1.9 7
v 1.5 0 6.9
v 1.5 1.7 6.9
v 1.6 0 6.9
v 1.6 1.7 6.9
v 2.3 0 6.9
v 2.3 1.7 6.9
v 2.4 0 6.9
v 2.4 1.7 6.9
v 1.3 1.7 6.8
v 1.3 1.9 6.8
v 1.4 0 6.8
v 1.4 1.7 6.8
v 1.4 1.9 6.8
v 1.5 0 6.8
v 1.5 1.7 6.8
v 1.9 1.9 6.8
v 1.9 2.2 6.8
v 2 1.9 6.8
v 2 2.2 6.8
v 2.4 0 6.8
v 2.4 1.7 6.8
v 2.5 0 6.8
v 2.5 1.7 6.8
v 2.5 1.9 6.8
v 2.6 1.7 6.8
v 2.6 1.9 6.8
v 1.9 1.9 6.4
v 1.9 2.1 6.4
v 2 1.9 6.4
v 2 2.1 6.4
v 1.9 1.9 6.7
v 1.9 2.1 6.7
v 2 1.9 6.7
v 2 2.1 6.7
v 1.3 1.7 6.3
v 1.3 1.9 6.3
v 1.4 0 6.3
v 1.4 1.7 6.3
v 1.4 1.9 6.3
v 1.5 0 6.3
v 1.5 1.7 6.3
v 1.9 1.9 6.3
v 1.9 2.2 6.3
v 2 1.9 6.3
v 2 2.2 6.3
v 2.4 0 6.3
v 2.4 1.7 6.3
v 2.5 0 6.3
v 2.5 1.7 6.3
v 2.5 1.9 6.3
v 2.6 1.7 6.3
v 2.6 1.9 6.3
v 1.5 0 6.2
v 1.5 1.7 6.2
v 1.6 0 6.2
v 1.6 1.7 6.2
v 2.3 0 6.2
v 2.3 1.7 6.2
v 2.4 0 6.2
v 2.4 1.7 6.2
v 1.4 1.7 6.1
v 1.4 1.9 6.1
v 1.5 1.7 6.1
v 1.5 1.9 6.1
v 1.6 0 6.1
v 1.6 1.7 6.1
v 1.7 0 6.1
v 1.7 1.7 6.1
v 2.2 0 6.1
v 2.2 1.7 6.1
v 2.3 0 6.1
v 2.3 1.7 6.1
v 2.4 1.7 6.1
v 2.4 1.9 6.1
v 2.5 1.7 6.1
v 2.5 1.9 6.1
v 1.5 1.7 6
v 1.5 1.9 6
v 1.7 0 6
v 1.7 1.7 6
v 1.7 1.9 6
v 1.8 0.4 6
v 1.8 1.4 6
v 1.9 0.4 6
v 1.9 1.4 6
v 2 0.4 6
v 2 1.4 6
v 2.1 0.4 6
v 2.1 1.4 6
v 2.2 0 6
v 2.2 1.7 6
v 2.2 1.9 6
v 2.4 1.7 6
v 2.4 1.9 6
v 1.7 1.7 5.9
v 1.7 1.9 5.9
v 2.2 1.7 5.9
v 2.2 1.9 5.9
v 1.7 0 7.1
v 2.2 0 7.1
v 1.6 0 7
v 1.7 0 7
v 2.2 0 7
v 2.3 0 7
v 1.5 0 6.9
v 1.6 0 6.9
v 2.3 0 6.9
v 2.4 0 6.9
v 1.4 0 6.8
v 1.5 0 6.8
v 2.4 0 6.8
v 2.5 0 6.8
v 1.4 0 6.3
v 1.5 0 6.3
v 2.4 0 6.3
v 2.5 0 6.3
v 1.5 0 6.2
v 1.6 0 6.2
v 2.3 0 6.2
v 2.4 0 6.2
v 1.6 0 6.1
v 1.7 0 6.1
v 2.2 0 6.1
v 2.3 0 6.1
v 1.7 0 6
v 2.2 0 6
v 1.7 1.7 7.2
v 2.2 1.7 7.2
v 1.5 1.7 7.1
v 1.7 1.7 7.1
v 2.2 1.7 7.1
v 2.4 1.7 7.1
v 1.4 1.7 7
v 1.5 1.7 7
v 1.6 1.7 7
v 1.7 1.7 7
v 2.2 1.7 7
v 2.3 1.7 7
v 2.4 1.7 7
v 2.5 1.7 7
v 1.5 1.7 6.9
v 1.6 1.7 6.9
v 2.3 1.7 6.9
v 2.4 1.7 6.9
v 1.3 1.7 6.8
v 1.4 1.7 6.8
v 1.5 1.7 6.8
v 2.4 1.7 6.8
v 2.5 1.7 6.8
v 2.6 1.7 6.8
v 1.3 1.7 6.3
v 1.4 1.7 6.3
v 1.5 1.7 6.3
v 2.4 1.7 6.3
v 2.5 1.7 6.3
v 2.6 1.7 6.3
v 1.5 1.7 6.2
v 1.6 1.7 6.2
v 2.3 1.7 6.2
v 2.4 1.7 6.2
v 1.4 1.7 6.1
v 1.5 1.7 6.1
v 1.6 1.7 6.1
v 1.7 1.7 6.1
v 2.2 1.7 6.1
v 2.3 1.7 6.1
v 2.4 1.7 6.1
v 2.5 1.7 6.1
v 1.5 1.7 6
v 1.7 1.7 6
v 2.2 1.7 6
v 2.4 1.7 6
v 1.7 1.7 5.9
v 2.2 1.7 5.9
v 1.9 2.1 6.7
v 2 2.1 6.7
v 1.9 2.1 6.4
v 2 2.1 6.4
v 1.7 1.9 7.2
v 2.2 1.9 7.2
v 1.5 1.9 7.1
v 1.7 1.9 7.1
v 2.2 1.9 7.1
v 2.4 1.9 7.1
v 1.4 1.9 7
v 1.5 1.9 7
v 2.4 1.9 7
v 2.5 1.9 7
v 1.3 1.9 6.8
v 1.4 1.9 6.8
v 1.9 1.9 6.8
v 2 1.9 6.8
v 2.5 1.9 6.8
v 2.6 1.9 6.8
v 1.9 1.9 6.7
v 2 1.9 6.7
v 1.9 1.9 6.4
v 2 1.9 6.4
v 1.3 1.9 6.3
v 1.4 1.9 6.3
v 1.9 1.9 6.3
v 2 1.9 6.3
v 2.5 1.9 6.3
v 2.6 1.9 6.3
v 1.4 1.9 6.1
v 1.5 1.9 6.1
v 2.4 1.9 6.1
v 2.5 1.9 6.1
v 1.5 1.9 6
v 1.7 1.9 6
v 2.2 1.9 6
v 2.4 1.9 6
v 1.7 1.9 5.9
v 2.2 1.9 5.9
v 1.9 2.2 6.8
v 2 2.2 6.8
v 1.9 2.2 6.3
v 2 2.2 6.3

# faces
f 3/1/1 2/1/1 1/1/1
f 4/1/1 2/1/1 3/1/1
f 7/1/1 6/1/1 5/1/1
f 8/1/1 6/1/1 7/1/1
f 9/1/1 6/1/1 8/1/1
f 10/1/1 6/1/1 9/1/1
f 11/1/1 7/1/1 5/1/1
f 11/2/1 8/2/1 7/2/1
f 12/1/1 9/1/1 8/1/1
f 12/2/1 8/2/1 11/2/1
f 13/2/1 10/2/1 9/2/1
f 13/1/1 9/1/1 12/1/1
f 14/1/1 6/1/1 10/1/1
f 14/2/1 10/2/1 13/2/1
f 16/1/1 13/1/1 12/1/1
f 16/1/1 12/1/1 11/1/1
f 16/1/1 14/1/1 13/1/1
f 16/1/1 11/1/1 5/1/1
f 17/1/1 6/1/1 14/1/1
f 17/1/1 14/1/1 16/1/1
f 19/1/1 16/1/1 15/1/1
f 20/1/1 16/1/1 19/1/1
f 21/1/1 18/1/1 17/1/1
f 22/1/1 18/1/1 21/1/1
f 29/1/1 24/1/1 23/1/1
f 30/1/1 24/1/1 29/1/1
f 31/1/1 26/1/1 25/1/1
f 32/1/1 26/1/1 31/1/1
f 35/1/1 28/1/1 27/1/1
f 36/1/1 28/1/1 35/1/1
f 37/1/1 34/1/1 33/1/1
f 38/1/1 34/1/1 37/1/1
f 43/1/1 40/1/1 39/1/1
f 44/1/1 40/1/1 43/1/1
f 45/1/1 42/1/1 41/1/1
f 46/1/1 42/1/1 45/1/1
f 52/1/1 48/1/1 47/1/1
f 53/1/1 48/1/1 52/1/1
f 54/1/1 50/1/1 49/1/1
f 55/1/1 50/1/1 54/1/1
f 57/1/1 52/1/1 51/1/1
f 58/1/1 52/1/1 57/1/1
f 59/1/1 56/1/1 55/1/1
f 60/1/1 56/1/1 59/1/1
f 65/1/1 62/1/1 61/1/1
f 66/1/1 64/1/1 63/1/1
f 67/1/1 65/1/1 61/1/1
f 67/1/1 66/1/1 65/1/1
f 68/1/1 64/1/1 66/1/1
f 68/1/1 66/1/1 67/1/1
f 69/1/2 70/1/2 73/1/2
f 71/1/2 72/1/2 74/1/2
f 69/1/2 73/1/2 75/1/2
f 73/1/2 74/1/2 75/1/2
f 74/1/2 72/1/2 76/1/2
f 75/1/2 74/1/2 76/1/2
f 77/1/2 78/1/2 82/1/2
f 82/1/2 78/1/2 83/1/2
f 79/1/2 80/1/2 84/1/2
f 84/1/2 80/1/2 85/1/2
f 81/1/2 82/1/2 87/1/2
f 87/1/2 82/1/2 88/1/2
f 85/1/2 86/1/2 89/1/2
f 89/1/2 86/1/2 90/1/2
f 91/1/2 92/1/2 95/1/2
f 95/1/2 92/1/2 96/1/2
f 93/1/2 94/1/2 97/1/2
f 97/1/2 94/1/2 98/1/2
f 99/1/2 100/1/2 105/1/2
f 105/1/2 100/1/2 106/1/2
f 101/1/2 102/1/2 107/1/2
f 107/1/2 102/1/2 108/1/2
f 103/1/2 104/1/2 111/1/2
f 111/1/2 104/1/2 112/1/2
f 109/1/2 110/1/2 113/1/2
f 113/1/2 110/1/2 114/1/2
f 115/1/2 116/1/2 117/1/2
f 117/1/2 116/1/2 118/1/2
f 118/1/2 116/1/2 119/1/2
f 119/1/2 116/1/2 120/1/2
f 115/1/2 117/1/2 121/1/2
f 117/2/2 118/2/2 121/2/2
f 118/1/2 119/1/2 122/1/2
f 121/2/2 118/2/2 122/2/2
f 119/2/2 120/2/2 123/2/2
f 122/1/2 119/1/2 123/1/2
f 120/1/2 116/1/2 124/1/2
f 123/2/2 120/2/2 124/2/2
f 122/1/2 123/1/2 126/1/2
f 121/1/2 122/1/2 126/1/2
f 123/1/2 124/1/2 126/1/2
f 115/1/2 121/1/2 126/1/2
f 124/1/2 116/1/2 127/1/2
f 126/1/2 124/1/2 127/1/2
f 125/1/2 126/1/2 129/1/2
f 129/1/2 126/1/2 130/1/2
f 127/1/2 128/1/2 131/1/2
f 131/1/2 128/1/2 132/1/2
f 133/1/2 134/1/2 135/1/2
f 135/1/2 134/1/2 136/1/2
f 139/1/3 138/1/3 137/1/3
f 140/1/3 138/1/3 139/1/3
f 144/1/3 142/1/3 141/1/3
f 145/1/3 142/1/3 144/1/3
f 146/1/3 144/1/3 143/1/3
f 147/1/3 144/1/3 146/1/3
f 148/1/3 146/1/3 143/1/3
f 148/2/3 147/2/3 146/2/3
f 149/1/3 144/1/3 147/1/3
f 149/2/3 147/2/3 148/2/3
f 150/1/3 148/1/3 143/1/3
f 150/1/3 149/1/3 148/1/3
f 151/1/3 144/1/3 149/1/3
f 151/1/3 149/1/3 150/1/3
f 152/1/3 150/1/3 143/1/3
f 152/2/3 151/2/3 150/2/3
f 153/1/3 144/1/3 151/1/3
f 153/2/3 151/2/3 152/2/3
f 154/1/3 152/1/3 143/1/3
f 154/1/3 153/1/3 152/1/3
f 155/1/3 144/1/3 153/1/3
f 155/1/3 153/1/3 154/1/3
f 157/1/3 156/1/3 155/1/3
f 158/1/3 156/1/3 157/1/3
f 161/1/3 160/1/3 159/1/3
f 162/1/3 160/1/3 161/1/3
f 165/1/3 164/1/3 163/1/3
f 166/1/3 164/1/3 165/1/3
f 169/1/3 168/1/3 167/1/3
f 170/1/3 168/1/3 169/1/3
f 173/1/3 172/1/3 171/1/3
f 174/1/3 172/1/3 173/1/3
f 177/1/3 176/1/3 175/1/3
f 178/1/3 176/1/3 177/1/3
f 181/1/3 180/1/3 179/1/3
f 182/1/3 180/1/3 181/1/3
f 186/1/3 184/1/3 183/1/3
f 187/1/3 184/1/3 186/1/3
f 188/1/3 186/1/3 185/1/3
f 189/1/3 186/1/3 188/1/3
f 192/1/3 191/1/3 190/1/3
f 193/1/3 191/1/3 192/1/3
f 196/1/3 195/1/3 194/1/3
f 197/1/3 195/1/3 196/1/3
f 199/1/3 198/1/3 197/1/3
f 200/1/3 198/1/3 199/1/3
f 203/1/3 202/1/3 201/1/3
f 204/1/3 202/1/3 203/1/3
f 205/1/4 206/1/4 207/1/4
f 207/1/4 206/1/4 208/1/4
f 209/1/4 210/1/4 212/1/4
f 212/1/4 210/1/4 213/1/4
f 211/1/4 212/1/4 214/1/4
f 214/1/4 212/1/4 215/1/4
f 216/1/4 217/1/4 218/1/4
f 218/1/4 217/1/4 219/1/4
f 220/1/4 221/1/4 222/1/4
f 222/1/4 221/1/4 223/1/4
f 223/1/4 224/1/4 225/1/4
f 225/1/4 224/1/4 226/1/4
f 227/1/4 228/1/4 229/1/4
f 229/1/4 228/1/4 230/1/4
f 231/1/4 232/1/4 233/1/4
f 233/1/4 232/1/4 234/1/4
f 235/1/4 236/1/4 237/1/4
f 237/1/4 236/1/4 238/1/4
f 239/1/4 240/1/4 241/1/4
f 241/1/4 240/1/4 242/1/4
f 243/1/4 244/1/4 245/1/4
f 245/1/4 244/1/4 246/1/4
f 247/1/4 248/1/4 249/1/4
f 249/1/4 248/1/4 250/1/4
f 251/1/4 252/1/4 254/1/4
f 254/1/4 252/1/4 255/1/4
f 253/1/4 254/1/4 256/1/4
f 256/1/4 254/1/4 257/1/4
f 253/1/4 256/1/4 258/1/4
f 256/2/4 257/2/4 258/2/4
f 257/1/4 254/1/4 259/1/4
f 258/2/4 257/2/4 259/2/4
f 253/1/4 258/1/4 260/1/4
f 258/1/4 259/1/4 260/1/4
f 259/1/4 254/1/4 261/1/4
f 260/1/4 259/1/4 261/1/4
f 253/1/4 260/1/4 262/1/4
f 260/2/4 261/2/4 262/2/4
f 261/1/4 254/1/4 263/1/4
f 262/2/4 261/2/4 263/2/4
f 253/1/4 262/1/4 264/1/4
f 262/1/4 263/1/4 264/1/4
f 263/1/4 254/1/4 265/1/4
f 264/1/4 263/1/4 265/1/4
f 265/1/4 266/1/4 267/1/4
f 267/1/4 266/1/4 268/1/4
f 269/1/4 270/1/4 271/1/4
f 271/1/4 270/1/4 272/1/4
f 276/1/5 274/1/5 273/1/5
f 277/1/5 274/1/5 276/1/5
f 280/1/5 276/1/5 275/1/5
f 280/1/5 278/1/5 277/1/5
f 280/1/5 277/1/5 276/1/5
f 281/1/5 278/1/5 280/1/5
f 284/1/5 280/1/5 279/1/5
f 284/1/5 282/1/5 281/1/5
f 284/1/5 281/1/5 280/1/5
f 285/1/5 282/1/5 284/1/5
f 287/1/5 284/1/5 283/1/5
f 287/1/5 286/1/5 285/1/5
f 287/1/5 285/1/5 284/1/5
f 288/1/5 286/1/5 287/1/5
f 289/1/5 286/1/5 288/1/5
f 290/1/5 286/1/5 289/1/5
f 291/1/5 289/1/5 288/1/5
f 292/1/5 289/1/5 291/1/5
f 293/1/5 289/1/5 292/1/5
f 294/1/5 289/1/5 293/1/5
f 295/1/5 293/1/5 292/1/5
f 296/1/5 293/1/5 295/1/5
f 297/1/5 293/1/5 296/1/5
f 298/1/5 293/1/5 297/1/5
f 299/1/5 297/1/5 296/1/5
f 300/1/5 297/1/5 299/1/5
f 304/1/5 302/1/5 301/1/5
f 305/1/5 302/1/5 304/1/5
f 308/1/5 304/1/5 303/1/5
f 309/1/5 304/1/5 308/1/5
f 310/1/5 304/1/5 309/1/5
f 311/1/5 306/1/5 305/1/5
f 312/1/5 306/1/5 311/1/5
f 313/1/5 306/1/5 312/1/5
f 315/1/5 308/1/5 307/1/5
f 315/1/5 309/1/5 308/1/5
f 316/1/5 309/1/5 315/1/5
f 317/1/5 314/1/5 313/1/5
f 317/1/5 313/1/5 312/1/5
f 318/1/5 314/1/5 317/1/5
f 320/1/5 315/1/5 307/1/5
f 321/1/5 315/1/5 320/1/5
f 322/1/5 314/1/5 318/1/5
f 323/1/5 314/1/5 322/1/5
f 325/1/5 320/1/5 319/1/5
f 326/1/5 320/1/5 325/1/5
f 329/1/5 324/1/5 323/1/5
f 330/1/5 324/1/5 329/1/5
f 331/1/5 327/1/5 326/1/5
f 334/1/5 329/1/5 328/1/5
f 335/1/5 332/1/5 331/1/5
f 335/1/5 331/1/5 326/1/5
f 336/1/5 332/1/5 335/1/5
f 337/1/5 332/1/5 336/1/5
f 340/1/5 334/1/5 333/1/5
f 341/1/5 329/1/5 334/1/5
f 341/1/5 334/1/5 340/1/5
f 342/1/5 329/1/5 341/1/5
f 343/1/5 338/1/5 337/1/5
f 343/1/5 337/1/5 336/1/5
f 344/1/5 338/1/5 343/1/5
f 345/1/5 340/1/5 339/1/5
f 345/1/5 341/1/5 340/1/5
f 346/1/5 341/1/5 345/1/5
f 347/1/5 345/1/5 344/1/5
f 348/1/5 345/1/5 347/1/5
f 351/1/5 350/1/5 349/1/5
f 352/1/5 350/1/5 351/1/5
f 353/1/6 354/1/6 356/1/6
f 356/1/6 354/1/6 357/1/6
f 355/1/6 356/1/6 360/1/6
f 357/1/6 358/1/6 360/1/6
f 356/1/6 357/1/6 360/1/6
f 360/1/6 358/1/6 361/1/6
f 359/1/6 360/1/6 364/1/6
f 361/1/6 362/1/6 364/1/6
f 360/1/6 361/1/6 364/1/6
f 364/1/6 362/1/6 365/1/6
f 365/1/6 362/1/6 366/1/6
f 366/1/6 362/1/6 367/1/6
f 363/1/6 364/1/6 369/1/6
f 364/1/6 365/1/6 369/1/6
f 367/1/6 368/1/6 370/1/6
f 366/1/6 367/1/6 370/1/6
f 363/1/6 369/1/6 371/1/6
f 369/1/6 370/1/6 371/1/6
f 370/1/6 368/1/6 372/1/6
f 371/1/6 370/1/6 372/1/6
f 363/1/6 371/1/6 373/1/6
f 373/1/6 371/1/6 374/1/6
f 374/1/6 371/1/6 375/1/6
f 372/1/6 368/1/6 376/1/6
f 376/1/6 368/1/6 377/1/6
f 377/1/6 368/1/6 378/1/6
f 374/1/6 375/1/6 379/1/6
f 376/1/6 377/1/6 379/1/6
f 375/1/6 376/1/6 379/1/6
f 379/1/6 377/1/6 380/1/6
f 380/1/6 377/1/6 381/1/6
f 381/1/6 377/1/6 382/1/6
f 380/1/6 381/1/6 383/1/6
f 383/1/6 381/1/6 384/1/6
f 384/1/6 381/1/6 385/1/6
f 385/1/6 381/1/6 386/1/6
f 384/1/6 385/1/6 387/1/6
f 387/1/6 385/1/6 388/1/6
f 389/1/6 390/1/6 391/1/6
f 391/1/6 390/1/6 392/1/6
