# MagicaVoxel @ Ephtracy

# group
o 

# material
mtllib machado chapado-0.mtl
usemtl palette

# normals
vn -1 0 0
vn 1 0 0
vn 0 0 1
vn 0 0 -1
vn 0 -1 0
vn 0 1 0

# texcoords
vt 0.0878906 0.5
vt 0.119141 0.5
vt 0.150391 0.5
vt 0.181641 0.5
vt 0.212891 0.5
vt 0.244141 0.5
vt 0.275391 0.5

# verts
v -1 1.2 0.1
v -1 1.2 0
v -1 1.9 0.1
v -1 1.9 0
v -0.6 1.7 0.2
v -0.6 1.7 0.1
v -0.6 1.7 0
v -0.6 1.7 -0.1
v -0.6 1.9 0.2
v -0.6 1.9 0.1
v -0.6 1.9 0
v -0.6 1.9 -0.1
v -0.6 2 0.2
v -0.6 2 0.1
v -0.6 2 0
v -0.6 2 -0.1
v 0.3 1.5 0.1
v 0.3 1.5 0
v 0.3 1.9 0.1
v 0.3 1.9 0
v -0.8 1.2 0.1
v -0.8 1.2 0
v -0.8 1.3 0.1
v -0.8 1.3 0
v -0.6 1.3 0.1
v -0.6 1.3 0
v -0.6 1.4 0.1
v -0.6 1.4 0
v -0.3 1.4 0.1
v -0.3 1.4 0
v -0.3 1.5 0.1
v -0.3 1.5 0
v -0.3 1.7 0.2
v -0.3 1.7 0.1
v -0.3 1.7 0
v -0.3 1.7 -0.1
v -0.3 1.8 0.1
v -0.3 1.8 0
v -0.3 1.9 0.2
v -0.3 1.9 0.1
v -0.3 1.9 0
v -0.3 1.9 -0.1
v -0.3 2 0.2
v -0.3 2 0.1
v -0.3 2 0
v -0.3 2 -0.1
v -0.1 1.5 0.1
v -0.1 1.5 0
v -0.1 1.9 0.1
v -0.1 1.9 0
v 0.4 1.5 0.1
v 0.4 1.5 0
v 0.4 1.9 0.1
v 0.4 1.9 0
v -0.6 1.7 0.2
v -0.6 1.9 0.2
v -0.6 2 0.2
v -0.5 1.8 0.2
v -0.5 1.9 0.2
v -0.4 1.8 0.2
v -0.4 1.9 0.2
v -0.3 1.7 0.2
v -0.3 1.9 0.2
v -0.3 2 0.2
v -1 1.2 0.1
v -1 1.9 0.1
v -0.9 1.2 0.1
v -0.9 1.9 0.1
v -0.8 1.2 0.1
v -0.8 1.3 0.1
v -0.8 1.8 0.1
v -0.7 1.8 0.1
v -0.7 1.9 0.1
v -0.6 1.3 0.1
v -0.6 1.4 0.1
v -0.6 1.5 0.1
v -0.6 1.6 0.1
v -0.6 1.7 0.1
v -0.6 1.9 0.1
v -0.5 1.5 0.1
v -0.5 1.6 0.1
v -0.4 1.4 0.1
v -0.4 1.5 0.1
v -0.3 1.4 0.1
v -0.3 1.5 0.1
v -0.3 1.6 0.1
v -0.3 1.7 0.1
v -0.3 1.8 0.1
v -0.3 1.9 0.1
v -0.2 1.6 0.1
v -0.2 1.8 0.1
v -0.2 1.9 0.1
v -0.1 1.5 0.1
v -0.1 1.9 0.1
v 0.3 1.5 0.1
v 0.3 1.9 0.1
v 0.4 1.5 0.1
v 0.4 1.9 0.1
v -0.6 1.9 0
v -0.6 2 0
v -0.3 1.9 0
v -0.3 2 0
v -0.6 1.9 0.1
v -0.6 2 0.1
v -0.3 1.9 0.1
v -0.3 2 0.1
v -1 1.2 0
v -1 1.9 0
v -0.9 1.2 0
v -0.9 1.9 0
v -0.8 1.2 0
v -0.8 1.3 0
v -0.8 1.8 0
v -0.7 1.8 0
v -0.7 1.9 0
v -0.6 1.3 0
v -0.6 1.4 0
v -0.6 1.5 0
v -0.6 1.6 0
v -0.6 1.7 0
v -0.6 1.9 0
v -0.5 1.5 0
v -0.5 1.6 0
v -0.4 1.4 0
v -0.4 1.5 0
v -0.3 1.4 0
v -0.3 1.5 0
v -0.3 1.6 0
v -0.3 1.7 0
v -0.3 1.8 0
v -0.3 1.9 0
v -0.2 1.6 0
v -0.2 1.8 0
v -0.2 1.9 0
v -0.1 1.5 0
v -0.1 1.9 0
v 0.3 1.5 0
v 0.3 1.9 0
v 0.4 1.5 0
v 0.4 1.9 0
v -0.6 1.7 -0.1
v -0.6 1.9 -0.1
v -0.6 2 -0.1
v -0.5 1.8 -0.1
v -0.5 1.9 -0.1
v -0.4 1.8 -0.1
v -0.4 1.9 -0.1
v -0.3 1.7 -0.1
v -0.3 1.9 -0.1
v -0.3 2 -0.1
v -1 1.2 0.1
v -0.9 1.2 0.1
v -0.8 1.2 0.1
v -1 1.2 0
v -0.9 1.2 0
v -0.8 1.2 0
v -0.8 1.3 0.1
v -0.6 1.3 0.1
v -0.8 1.3 0
v -0.6 1.3 0
v -0.6 1.4 0.1
v -0.4 1.4 0.1
v -0.3 1.4 0.1
v -0.6 1.4 0
v -0.4 1.4 0
v -0.3 1.4 0
v -0.3 1.5 0.1
v -0.1 1.5 0.1
v 0.3 1.5 0.1
v 0.4 1.5 0.1
v -0.3 1.5 0
v -0.1 1.5 0
v 0.3 1.5 0
v 0.4 1.5 0
v -0.6 1.7 0.2
v -0.3 1.7 0.2
v -0.6 1.7 0.1
v -0.3 1.7 0.1
v -0.6 1.7 0
v -0.3 1.7 0
v -0.6 1.7 -0.1
v -0.3 1.7 -0.1
v -1 1.9 0.1
v -0.9 1.9 0.1
v -0.7 1.9 0.1
v -0.6 1.9 0.1
v -0.3 1.9 0.1
v -0.2 1.9 0.1
v -0.1 1.9 0.1
v 0.3 1.9 0.1
v 0.4 1.9 0.1
v -1 1.9 0
v -0.9 1.9 0
v -0.7 1.9 0
v -0.6 1.9 0
v -0.3 1.9 0
v -0.2 1.9 0
v -0.1 1.9 0
v 0.3 1.9 0
v 0.4 1.9 0
v -0.6 2 0.2
v -0.3 2 0.2
v -0.6 2 0.1
v -0.3 2 0.1
v -0.6 2 0
v -0.3 2 0
v -0.6 2 -0.1
v -0.3 2 -0.1

# faces
f 3/3/1 2/3/1 1/3/1
f 4/3/1 2/3/1 3/3/1
f 9/4/1 6/4/1 5/4/1
f 10/4/1 6/4/1 9/4/1
f 11/4/1 8/4/1 7/4/1
f 12/4/1 8/4/1 11/4/1
f 13/6/1 10/6/1 9/6/1
f 14/6/1 10/6/1 13/6/1
f 15/6/1 12/6/1 11/6/1
f 16/6/1 12/6/1 15/6/1
f 19/6/1 18/6/1 17/6/1
f 20/6/1 18/6/1 19/6/1
f 21/1/2 22/1/2 23/1/2
f 23/1/2 22/1/2 24/1/2
f 25/6/2 26/6/2 27/6/2
f 27/6/2 26/6/2 28/6/2
f 29/2/2 30/2/2 31/2/2
f 31/2/2 30/2/2 32/2/2
f 33/4/2 34/4/2 37/4/2
f 35/4/2 36/4/2 38/4/2
f 33/4/2 37/4/2 39/4/2
f 39/4/2 37/4/2 40/4/2
f 38/4/2 36/4/2 41/4/2
f 41/4/2 36/4/2 42/4/2
f 39/6/2 40/6/2 43/6/2
f 43/6/2 40/6/2 44/6/2
f 41/6/2 42/6/2 45/6/2
f 45/6/2 42/6/2 46/6/2
f 47/2/2 48/2/2 49/2/2
f 49/2/2 48/2/2 50/2/2
f 51/6/2 52/6/2 53/6/2
f 53/6/2 52/6/2 54/6/2
f 58/4/3 56/4/3 55/4/3
f 59/6/3 57/6/3 56/6/3
f 59/4/3 56/4/3 58/4/3
f 60/4/3 58/4/3 55/4/3
f 60/5/3 59/5/3 58/5/3
f 61/6/3 57/6/3 59/6/3
f 61/5/3 59/5/3 60/5/3
f 62/4/3 60/4/3 55/4/3
f 62/4/3 61/4/3 60/4/3
f 63/6/3 57/6/3 61/6/3
f 63/4/3 61/4/3 62/4/3
f 64/6/3 57/6/3 63/6/3
f 67/3/3 66/3/3 65/3/3
f 68/3/3 66/3/3 67/3/3
f 69/1/3 68/1/3 67/1/3
f 70/1/3 68/1/3 69/1/3
f 71/1/3 68/1/3 70/1/3
f 72/1/3 68/1/3 71/1/3
f 72/6/3 71/6/3 70/6/3
f 73/1/3 68/1/3 72/1/3
f 74/6/3 72/6/3 70/6/3
f 74/6/3 73/6/3 72/6/3
f 75/6/3 73/6/3 74/6/3
f 76/6/3 73/6/3 75/6/3
f 77/6/3 73/6/3 76/6/3
f 78/6/3 73/6/3 77/6/3
f 79/6/3 73/6/3 78/6/3
f 80/6/3 76/6/3 75/6/3
f 80/1/3 77/1/3 76/1/3
f 81/6/3 78/6/3 77/6/3
f 81/1/3 77/1/3 80/1/3
f 82/6/3 80/6/3 75/6/3
f 82/6/3 81/6/3 80/6/3
f 83/6/3 81/6/3 82/6/3
f 84/2/3 83/2/3 82/2/3
f 85/6/3 81/6/3 83/6/3
f 85/2/3 83/2/3 84/2/3
f 86/6/3 78/6/3 81/6/3
f 86/6/3 81/6/3 85/6/3
f 87/6/3 78/6/3 86/6/3
f 90/2/3 86/2/3 85/2/3
f 90/6/3 88/6/3 87/6/3
f 90/6/3 87/6/3 86/6/3
f 91/1/3 89/1/3 88/1/3
f 91/6/3 88/6/3 90/6/3
f 92/1/3 89/1/3 91/1/3
f 93/2/3 90/2/3 85/2/3
f 93/2/3 91/2/3 90/2/3
f 93/2/3 92/2/3 91/2/3
f 94/2/3 92/2/3 93/2/3
f 97/6/3 96/6/3 95/6/3
f 98/6/3 96/6/3 97/6/3
f 101/6/3 100/6/3 99/6/3
f 102/6/3 100/6/3 101/6/3
f 103/6/4 104/6/4 105/6/4
f 105/6/4 104/6/4 106/6/4
f 107/3/4 108/3/4 109/3/4
f 109/3/4 108/3/4 110/3/4
f 109/1/4 110/1/4 111/1/4
f 111/1/4 110/1/4 112/1/4
f 112/1/4 110/1/4 113/1/4
f 113/1/4 110/1/4 114/1/4
f 112/6/4 113/6/4 114/6/4
f 114/1/4 110/1/4 115/1/4
f 112/6/4 114/6/4 116/6/4
f 114/6/4 115/6/4 116/6/4
f 116/6/4 115/6/4 117/6/4
f 117/6/4 115/6/4 118/6/4
f 118/6/4 115/6/4 119/6/4
f 119/6/4 115/6/4 120/6/4
f 120/6/4 115/6/4 121/6/4
f 117/6/4 118/6/4 122/6/4
f 118/1/4 119/1/4 122/1/4
f 119/6/4 120/6/4 123/6/4
f 122/1/4 119/1/4 123/1/4
f 117/6/4 122/6/4 124/6/4
f 122/6/4 123/6/4 124/6/4
f 124/6/4 123/6/4 125/6/4
f 124/2/4 125/2/4 126/2/4
f 125/6/4 123/6/4 127/6/4
f 126/2/4 125/2/4 127/2/4
f 123/6/4 120/6/4 128/6/4
f 127/6/4 123/6/4 128/6/4
f 128/6/4 120/6/4 129/6/4
f 127/2/4 128/2/4 132/2/4
f 129/6/4 130/6/4 132/6/4
f 128/6/4 129/6/4 132/6/4
f 130/1/4 131/1/4 133/1/4
f 132/6/4 130/6/4 133/6/4
f 133/1/4 131/1/4 134/1/4
f 127/2/4 132/2/4 135/2/4
f 132/2/4 133/2/4 135/2/4
f 133/2/4 134/2/4 135/2/4
f 135/2/4 134/2/4 136/2/4
f 137/6/4 138/6/4 139/6/4
f 139/6/4 138/6/4 140/6/4
f 141/4/4 142/4/4 144/4/4
f 142/6/4 143/6/4 145/6/4
f 144/4/4 142/4/4 145/4/4
f 141/4/4 144/4/4 146/4/4
f 144/5/4 145/5/4 146/5/4
f 145/6/4 143/6/4 147/6/4
f 146/5/4 145/5/4 147/5/4
f 141/4/4 146/4/4 148/4/4
f 146/4/4 147/4/4 148/4/4
f 147/6/4 143/6/4 149/6/4
f 148/4/4 147/4/4 149/4/4
f 149/6/4 143/6/4 150/6/4
f 154/3/5 152/3/5 151/3/5
f 155/1/5 153/1/5 152/1/5
f 155/3/5 152/3/5 154/3/5
f 156/1/5 153/1/5 155/1/5
f 159/6/5 158/6/5 157/6/5
f 160/6/5 158/6/5 159/6/5
f 164/6/5 162/6/5 161/6/5
f 165/2/5 163/2/5 162/2/5
f 165/6/5 162/6/5 164/6/5
f 166/2/5 163/2/5 165/2/5
f 171/2/5 168/2/5 167/2/5
f 172/2/5 168/2/5 171/2/5
f 173/6/5 170/6/5 169/6/5
f 174/6/5 170/6/5 173/6/5
f 177/4/5 176/4/5 175/4/5
f 178/4/5 176/4/5 177/4/5
f 181/4/5 180/4/5 179/4/5
f 182/4/5 180/4/5 181/4/5
f 183/3/6 184/3/6 192/3/6
f 184/1/6 185/1/6 193/1/6
f 192/3/6 184/3/6 193/3/6
f 185/6/6 186/6/6 194/6/6
f 193/1/6 185/1/6 194/1/6
f 186/6/6 187/6/6 194/6/6
f 194/6/6 187/6/6 195/6/6
f 187/1/6 188/1/6 196/1/6
f 195/6/6 187/6/6 196/6/6
f 188/2/6 189/2/6 197/2/6
f 196/1/6 188/1/6 197/1/6
f 197/2/6 189/2/6 198/2/6
f 190/6/6 191/6/6 199/6/6
f 199/6/6 191/6/6 200/6/6
f 201/6/6 202/6/6 203/6/6
f 203/6/6 202/6/6 204/6/6
f 205/6/6 206/6/6 207/6/6
f 207/6/6 206/6/6 208/6/6
