# MagicaVoxel @ Ephtracy

# group
o 

# material
mtllib Planta atiradora upgrade-1.mtl
usemtl palette

# normals
vn -1 0 0
vn 1 0 0
vn 0 0 1
vn 0 0 -1
vn 0 -1 0
vn 0 1 0

# texcoords
vt 0.970703 0.5
vt 0.978516 0.5
vt 0.982422 0.5
vt 0.986328 0.5
vt 0.990234 0.5

# verts
v 0.3 1.9 0.7
v 0.3 1.9 0.3
v 0.3 2 0.9
v 0.3 2 0.7
v 0.3 2 0.4
v 0.3 2 0.3
v 0.3 2 0.1
v 0.3 2.1 0.7
v 0.3 2.1 0.4
v 0.3 2.2 1
v 0.3 2.2 0.9
v 0.3 2.2 0.1
v 0.3 2.2 0
v 0.3 2.6 1
v 0.3 2.6 0.9
v 0.3 2.6 0.1
v 0.3 2.6 0
v 0.3 2.8 0.9
v 0.3 2.8 0.7
v 0.3 2.8 0.3
v 0.3 2.8 0.1
v 0.3 2.9 0.7
v 0.3 2.9 0.3
v 0.4 2 0.7
v 0.4 2 0.4
v 0.4 2.1 0.7
v 0.4 2.1 0.4
v 1 2.8 0.9
v 1 2.8 0.7
v 1 2.8 0.3
v 1 2.8 0.1
v 1 2.9 0.7
v 1 2.9 0.3
v 1 2.9 0.2
v 1 3.1 0.9
v 1 3.1 0.7
v 1 3.1 0.2
v 1 3.1 0.1
v 1.1 3 0.7
v 1.1 3 0.6
v 1.1 3.1 0.9
v 1.1 3.1 0.7
v 1.1 3.1 0.6
v 1.1 3.1 0.2
v 1.1 3.1 0.1
v 1.1 3.2 1
v 1.1 3.2 0.9
v 1.1 3.2 0.8
v 1.1 3.2 0.7
v 1.1 3.2 0.1
v 1.1 3.2 0
v 1.1 3.3 1
v 1.1 3.3 0.8
v 1.1 3.3 0.2
v 1.1 3.3 0.1
v 1.1 3.3 0
v 0.8 2.1 0.7
v 0.8 2.1 0.3
v 0.8 2.2 0.8
v 0.8 2.2 0.7
v 0.8 2.2 0.3
v 0.8 2.2 0.2
v 0.8 2.5 0.8
v 0.8 2.5 0.7
v 0.8 2.5 0.3
v 0.8 2.5 0.2
v 0.8 2.7 0.7
v 0.8 2.7 0.3
v 1.2 2.8 0.9
v 1.2 2.8 0.7
v 1.2 2.8 0.3
v 1.2 2.8 0.1
v 1.2 2.9 0.8
v 1.2 2.9 0.7
v 1.2 2.9 0.3
v 1.2 2.9 0.2
v 1.2 3 0.7
v 1.2 3 0.6
v 1.2 3.1 0.9
v 1.2 3.1 0.8
v 1.2 3.1 0.7
v 1.2 3.1 0.6
v 1.2 3.2 1
v 1.2 3.2 0.9
v 1.2 3.2 0.8
v 1.2 3.2 0.7
v 1.2 3.2 0.1
v 1.2 3.2 0
v 1.2 3.3 1
v 1.2 3.3 0.8
v 1.2 3.3 0.2
v 1.2 3.3 0.1
v 1.2 3.3 0
v 1.4 1.9 0.7
v 1.4 1.9 0.3
v 1.4 2 0.9
v 1.4 2 0.7
v 1.4 2 0.3
v 1.4 2 0.1
v 1.4 2.1 0.8
v 1.4 2.1 0.7
v 1.4 2.1 0.3
v 1.4 2.1 0.2
v 1.4 2.2 1
v 1.4 2.2 0.9
v 1.4 2.2 0.8
v 1.4 2.2 0.7
v 1.4 2.2 0.3
v 1.4 2.2 0.2
v 1.4 2.2 0.1
v 1.4 2.2 0
v 1.4 2.5 0.9
v 1.4 2.5 0.8
v 1.4 2.5 0.7
v 1.4 2.5 0.3
v 1.4 2.5 0.2
v 1.4 2.5 0.1
v 1.4 2.6 1
v 1.4 2.6 0.9
v 1.4 2.6 0.1
v 1.4 2.6 0
v 1.4 2.7 0.8
v 1.4 2.7 0.7
v 1.4 2.7 0.3
v 1.4 2.7 0.2
v 1.4 2.8 0.9
v 1.4 2.8 0.7
v 1.4 2.8 0.3
v 1.4 2.8 0.1
v 1.4 2.9 0.7
v 1.4 2.9 0.3
v 0.3 2.2 1
v 0.3 2.6 1
v 1.1 3.2 1
v 1.1 3.3 1
v 1.2 3.2 1
v 1.2 3.3 1
v 1.4 2.2 1
v 1.4 2.6 1
v 0.3 2 0.9
v 0.3 2.2 0.9
v 0.3 2.6 0.9
v 0.3 2.8 0.9
v 1 2.8 0.9
v 1 3.1 0.9
v 1.1 2.8 0.9
v 1.1 3.1 0.9
v 1.1 3.2 0.9
v 1.2 2.8 0.9
v 1.2 3.1 0.9
v 1.2 3.2 0.9
v 1.4 2 0.9
v 1.4 2.2 0.9
v 1.4 2.6 0.9
v 1.4 2.8 0.9
v 0.3 1.9 0.7
v 0.3 2 0.7
v 0.3 2.8 0.7
v 0.3 2.9 0.7
v 1 2.8 0.7
v 1 2.9 0.7
v 1.2 2.8 0.7
v 1.2 2.9 0.7
v 1.4 1.9 0.7
v 1.4 2 0.7
v 1.4 2.8 0.7
v 1.4 2.9 0.7
v 0.3 2 0.4
v 0.3 2.1 0.4
v 0.4 2 0.4
v 0.4 2.1 0.4
v 0.8 2.1 0.3
v 0.8 2.2 0.3
v 0.8 2.5 0.3
v 0.8 2.7 0.3
v 1.4 2.1 0.3
v 1.4 2.2 0.3
v 1.4 2.5 0.3
v 1.4 2.7 0.3
v 0.8 2.2 0.2
v 0.8 2.5 0.2
v 1 2.9 0.2
v 1 3.1 0.2
v 1.1 3.1 0.2
v 1.1 3.3 0.2
v 1.2 2.9 0.2
v 1.2 3.3 0.2
v 1.4 2.2 0.2
v 1.4 2.5 0.2
v 0.8 2.2 0.8
v 0.8 2.5 0.8
v 1.1 3.2 0.8
v 1.1 3.3 0.8
v 1.2 3.2 0.8
v 1.2 3.3 0.8
v 1.4 2.2 0.8
v 1.4 2.5 0.8
v 0.3 2 0.7
v 0.3 2.1 0.7
v 0.4 2 0.7
v 0.4 2.1 0.7
v 0.8 2.1 0.7
v 0.8 2.2 0.7
v 0.8 2.5 0.7
v 0.8 2.7 0.7
v 1 2.9 0.7
v 1 3.1 0.7
v 1.1 2.9 0.7
v 1.1 3 0.7
v 1.1 3.1 0.7
v 1.1 3.2 0.7
v 1.2 2.9 0.7
v 1.2 3 0.7
v 1.2 3.1 0.7
v 1.2 3.2 0.7
v 1.4 2.1 0.7
v 1.4 2.2 0.7
v 1.4 2.5 0.7
v 1.4 2.7 0.7
v 1.1 3 0.6
v 1.1 3.1 0.6
v 1.2 3 0.6
v 1.2 3.1 0.6
v 0.3 1.9 0.3
v 0.3 2 0.3
v 0.3 2.8 0.3
v 0.3 2.9 0.3
v 1 2.8 0.3
v 1 2.9 0.3
v 1.2 2.8 0.3
v 1.2 2.9 0.3
v 1.4 1.9 0.3
v 1.4 2 0.3
v 1.4 2.8 0.3
v 1.4 2.9 0.3
v 0.3 2 0.1
v 0.3 2.2 0.1
v 0.3 2.6 0.1
v 0.3 2.8 0.1
v 1 2.8 0.1
v 1 3.1 0.1
v 1.1 3.1 0.1
v 1.1 3.2 0.1
v 1.2 2.8 0.1
v 1.2 3.2 0.1
v 1.4 2 0.1
v 1.4 2.2 0.1
v 1.4 2.6 0.1
v 1.4 2.8 0.1
v 0.3 2.2 0
v 0.3 2.6 0
v 1.1 3.2 0
v 1.1 3.3 0
v 1.2 3.2 0
v 1.2 3.3 0
v 1.4 2.2 0
v 1.4 2.6 0
v 0.3 1.9 0.7
v 1.4 1.9 0.7
v 0.3 1.9 0.3
v 1.4 1.9 0.3
v 0.3 2 0.9
v 1.4 2 0.9
v 0.3 2 0.7
v 1.4 2 0.7
v 0.3 2 0.3
v 1.4 2 0.3
v 0.3 2 0.1
v 1.4 2 0.1
v 0.3 2.1 0.7
v 0.4 2.1 0.7
v 0.3 2.1 0.4
v 0.4 2.1 0.4
v 0.3 2.2 1
v 1.4 2.2 1
v 0.3 2.2 0.9
v 1.4 2.2 0.9
v 0.3 2.2 0.1
v 1.4 2.2 0.1
v 0.3 2.2 0
v 1.4 2.2 0
v 0.8 2.5 0.8
v 1.4 2.5 0.8
v 0.8 2.5 0.7
v 1.4 2.5 0.7
v 0.8 2.5 0.3
v 1.4 2.5 0.3
v 0.8 2.5 0.2
v 1.4 2.5 0.2
v 0.8 2.7 0.7
v 1.4 2.7 0.7
v 0.8 2.7 0.3
v 1.4 2.7 0.3
v 1.1 3 0.7
v 1.2 3 0.7
v 1.1 3 0.6
v 1.2 3 0.6
v 1.1 3.2 1
v 1.2 3.2 1
v 1.1 3.2 0.9
v 1.2 3.2 0.9
v 1.1 3.2 0.1
v 1.2 3.2 0.1
v 1.1 3.2 0
v 1.2 3.2 0
v 0.3 2 0.7
v 0.4 2 0.7
v 0.3 2 0.4
v 0.4 2 0.4
v 0.8 2.1 0.7
v 1.4 2.1 0.7
v 0.8 2.1 0.3
v 1.4 2.1 0.3
v 0.8 2.2 0.8
v 1.4 2.2 0.8
v 0.8 2.2 0.7
v 1.4 2.2 0.7
v 0.8 2.2 0.3
v 1.4 2.2 0.3
v 0.8 2.2 0.2
v 1.4 2.2 0.2
v 0.3 2.6 1
v 1.4 2.6 1
v 0.3 2.6 0.9
v 1.4 2.6 0.9
v 0.3 2.6 0.1
v 1.4 2.6 0.1
v 0.3 2.6 0
v 1.4 2.6 0
v 0.3 2.8 0.9
v 1 2.8 0.9
v 1.2 2.8 0.9
v 1.4 2.8 0.9
v 0.3 2.8 0.7
v 1 2.8 0.7
v 1.2 2.8 0.7
v 1.4 2.8 0.7
v 0.3 2.8 0.3
v 1 2.8 0.3
v 1.2 2.8 0.3
v 1.4 2.8 0.3
v 0.3 2.8 0.1
v 1 2.8 0.1
v 1.2 2.8 0.1
v 1.4 2.8 0.1
v 0.3 2.9 0.7
v 1 2.9 0.7
v 1.1 2.9 0.7
v 1.2 2.9 0.7
v 1.4 2.9 0.7
v 0.3 2.9 0.3
v 1 2.9 0.3
v 1.2 2.9 0.3
v 1.4 2.9 0.3
v 1 2.9 0.2
v 1.2 2.9 0.2
v 1 3.1 0.9
v 1.1 3.1 0.9
v 1 3.1 0.7
v 1.1 3.1 0.7
v 1.2 3.1 0.7
v 1.1 3.1 0.6
v 1.2 3.1 0.6
v 1 3.1 0.2
v 1.1 3.1 0.2
v 1 3.1 0.1
v 1.1 3.1 0.1
v 1.1 3.2 0.8
v 1.2 3.2 0.8
v 1.1 3.2 0.7
v 1.2 3.2 0.7
v 1.1 3.3 1
v 1.2 3.3 1
v 1.1 3.3 0.8
v 1.2 3.3 0.8
v 1.1 3.3 0.2
v 1.2 3.3 0.2
v 1.1 3.3 0.1
v 1.2 3.3 0.1
v 1.1 3.3 0
v 1.2 3.3 0

# faces
f 4/1/1 2/1/1 1/1/1
f 5/1/1 2/1/1 4/1/1
f 6/1/1 2/1/1 5/1/1
f 8/1/1 4/1/1 3/1/1
f 9/1/1 7/1/1 6/1/1
f 9/1/1 6/1/1 5/1/1
f 11/1/1 8/1/1 3/1/1
f 11/1/1 9/1/1 8/1/1
f 12/1/1 7/1/1 9/1/1
f 12/1/1 9/1/1 11/1/1
f 14/1/1 11/1/1 10/1/1
f 14/1/1 13/1/1 12/1/1
f 14/1/1 12/1/1 11/1/1
f 15/1/1 13/1/1 14/1/1
f 16/1/1 13/1/1 15/1/1
f 17/1/1 13/1/1 16/1/1
f 18/1/1 16/1/1 15/1/1
f 19/1/1 16/1/1 18/1/1
f 20/1/1 16/1/1 19/1/1
f 21/1/1 16/1/1 20/1/1
f 22/1/1 20/1/1 19/1/1
f 23/1/1 20/1/1 22/1/1
f 26/1/1 25/1/1 24/1/1
f 27/1/1 25/1/1 26/1/1
f 32/1/1 29/1/1 28/1/1
f 33/1/1 31/1/1 30/1/1
f 34/1/1 31/1/1 33/1/1
f 35/1/1 32/1/1 28/1/1
f 36/1/1 32/1/1 35/1/1
f 37/1/1 31/1/1 34/1/1
f 38/1/1 31/1/1 37/1/1
f 42/5/1 40/5/1 39/5/1
f 43/5/1 40/5/1 42/5/1
f 47/5/1 42/5/1 41/5/1
f 48/5/1 42/5/1 47/5/1
f 49/5/1 42/5/1 48/5/1
f 50/1/1 45/1/1 44/1/1
f 52/5/1 47/5/1 46/5/1
f 52/5/1 48/5/1 47/5/1
f 53/5/1 48/5/1 52/5/1
f 54/1/1 50/1/1 44/1/1
f 55/5/1 51/5/1 50/5/1
f 55/1/1 50/1/1 54/1/1
f 56/5/1 51/5/1 55/5/1
f 57/2/2 58/2/2 60/2/2
f 60/2/2 58/2/2 61/2/2
f 59/2/2 60/2/2 63/2/2
f 61/2/2 62/2/2 63/2/2
f 60/2/2 61/2/2 63/2/2
f 63/2/2 62/2/2 64/2/2
f 64/2/2 62/2/2 65/2/2
f 65/2/2 62/2/2 66/2/2
f 64/2/2 65/2/2 67/2/2
f 67/2/2 65/2/2 68/2/2
f 69/4/2 70/4/2 73/4/2
f 73/4/2 70/4/2 74/4/2
f 71/1/2 72/1/2 75/1/2
f 75/1/2 72/1/2 76/1/2
f 73/3/2 74/3/2 77/3/2
f 69/4/2 73/4/2 79/4/2
f 73/3/2 77/3/2 80/3/2
f 79/4/2 73/4/2 80/4/2
f 77/5/2 78/5/2 81/5/2
f 80/3/2 77/3/2 81/3/2
f 81/5/2 78/5/2 82/5/2
f 79/5/2 80/5/2 84/5/2
f 80/5/2 81/5/2 84/5/2
f 84/5/2 81/5/2 85/5/2
f 85/5/2 81/5/2 86/5/2
f 76/1/2 72/1/2 87/1/2
f 84/5/2 85/5/2 89/5/2
f 83/5/2 84/5/2 89/5/2
f 89/5/2 85/5/2 90/5/2
f 76/1/2 87/1/2 91/1/2
f 87/5/2 88/5/2 92/5/2
f 91/1/2 87/1/2 92/1/2
f 92/5/2 88/5/2 93/5/2
f 94/1/2 95/1/2 97/1/2
f 97/1/2 95/1/2 98/1/2
f 96/1/2 97/1/2 100/1/2
f 97/2/2 98/2/2 101/2/2
f 100/1/2 97/1/2 101/1/2
f 98/1/2 99/1/2 102/1/2
f 101/2/2 98/2/2 102/2/2
f 102/1/2 99/1/2 103/1/2
f 96/1/2 100/1/2 105/1/2
f 100/2/2 101/2/2 106/2/2
f 105/1/2 100/1/2 106/1/2
f 106/2/2 101/2/2 107/2/2
f 102/2/2 103/2/2 108/2/2
f 103/1/2 99/1/2 109/1/2
f 108/2/2 103/2/2 109/2/2
f 109/1/2 99/1/2 110/1/2
f 104/1/2 105/1/2 112/1/2
f 105/2/2 106/2/2 112/2/2
f 112/2/2 106/2/2 113/2/2
f 109/2/2 110/2/2 116/2/2
f 110/1/2 111/1/2 117/1/2
f 116/2/2 110/2/2 117/2/2
f 104/1/2 112/1/2 118/1/2
f 112/1/2 113/1/2 118/1/2
f 118/1/2 113/1/2 119/1/2
f 117/1/2 111/1/2 120/1/2
f 116/1/2 117/1/2 120/1/2
f 120/1/2 111/1/2 121/1/2
f 113/2/2 114/2/2 122/2/2
f 119/1/2 113/1/2 122/1/2
f 122/2/2 114/2/2 123/2/2
f 115/2/2 116/2/2 124/2/2
f 116/1/2 120/1/2 125/1/2
f 124/2/2 116/2/2 125/2/2
f 122/1/2 123/1/2 126/1/2
f 119/1/2 122/1/2 126/1/2
f 123/2/2 124/2/2 127/2/2
f 126/1/2 123/1/2 127/1/2
f 124/1/2 125/1/2 128/1/2
f 127/2/2 124/2/2 128/2/2
f 125/1/2 120/1/2 129/1/2
f 128/1/2 125/1/2 129/1/2
f 127/1/2 128/1/2 130/1/2
f 130/1/2 128/1/2 131/1/2
f 136/5/3 135/5/3 134/5/3
f 137/5/3 135/5/3 136/5/3
f 138/1/3 133/1/3 132/1/3
f 139/1/3 133/1/3 138/1/3
f 144/1/3 143/1/3 142/1/3
f 146/1/3 144/1/3 142/1/3
f 146/1/3 145/1/3 144/1/3
f 147/1/3 145/1/3 146/1/3
f 149/1/3 146/1/3 142/1/3
f 149/4/3 147/4/3 146/4/3
f 150/5/3 148/5/3 147/5/3
f 150/4/3 147/4/3 149/4/3
f 151/5/3 148/5/3 150/5/3
f 152/1/3 141/1/3 140/1/3
f 153/1/3 141/1/3 152/1/3
f 154/1/3 149/1/3 142/1/3
f 155/1/3 149/1/3 154/1/3
f 160/1/3 159/1/3 158/1/3
f 161/1/3 159/1/3 160/1/3
f 164/1/3 157/1/3 156/1/3
f 165/1/3 157/1/3 164/1/3
f 166/1/3 163/1/3 162/1/3
f 167/1/3 163/1/3 166/1/3
f 170/1/3 169/1/3 168/1/3
f 171/1/3 169/1/3 170/1/3
f 176/2/3 173/2/3 172/2/3
f 177/2/3 173/2/3 176/2/3
f 178/2/3 175/2/3 174/2/3
f 179/2/3 175/2/3 178/2/3
f 184/1/3 183/1/3 182/1/3
f 186/1/3 184/1/3 182/1/3
f 186/1/3 185/1/3 184/1/3
f 187/1/3 185/1/3 186/1/3
f 188/2/3 181/2/3 180/2/3
f 189/2/3 181/2/3 188/2/3
f 192/5/4 193/5/4 194/5/4
f 194/5/4 193/5/4 195/5/4
f 190/2/4 191/2/4 196/2/4
f 196/2/4 191/2/4 197/2/4
f 198/1/4 199/1/4 200/1/4
f 200/1/4 199/1/4 201/1/4
f 206/1/4 207/1/4 208/1/4
f 208/1/4 207/1/4 209/1/4
f 209/1/4 207/1/4 210/1/4
f 208/3/4 209/3/4 212/3/4
f 212/3/4 209/3/4 213/3/4
f 210/5/4 211/5/4 214/5/4
f 214/5/4 211/5/4 215/5/4
f 202/2/4 203/2/4 216/2/4
f 216/2/4 203/2/4 217/2/4
f 204/2/4 205/2/4 218/2/4
f 218/2/4 205/2/4 219/2/4
f 220/5/4 221/5/4 222/5/4
f 222/5/4 221/5/4 223/5/4
f 226/1/4 227/1/4 228/1/4
f 228/1/4 227/1/4 229/1/4
f 224/1/4 225/1/4 232/1/4
f 232/1/4 225/1/4 233/1/4
f 230/1/4 231/1/4 234/1/4
f 234/1/4 231/1/4 235/1/4
f 238/1/4 239/1/4 240/1/4
f 240/1/4 241/1/4 242/1/4
f 238/1/4 240/1/4 244/1/4
f 242/1/4 243/1/4 244/1/4
f 240/1/4 242/1/4 244/1/4
f 244/1/4 243/1/4 245/1/4
f 236/1/4 237/1/4 246/1/4
f 246/1/4 237/1/4 247/1/4
f 238/1/4 244/1/4 248/1/4
f 248/1/4 244/1/4 249/1/4
f 252/5/4 253/5/4 254/5/4
f 254/5/4 253/5/4 255/5/4
f 250/1/4 251/1/4 256/1/4
f 256/1/4 251/1/4 257/1/4
f 260/1/5 259/1/5 258/1/5
f 261/1/5 259/1/5 260/1/5
f 264/1/5 263/1/5 262/1/5
f 265/1/5 263/1/5 264/1/5
f 268/1/5 267/1/5 266/1/5
f 269/1/5 267/1/5 268/1/5
f 272/1/5 271/1/5 270/1/5
f 273/1/5 271/1/5 272/1/5
f 276/1/5 275/1/5 274/1/5
f 277/1/5 275/1/5 276/1/5
f 280/1/5 279/1/5 278/1/5
f 281/1/5 279/1/5 280/1/5
f 284/2/5 283/2/5 282/2/5
f 285/2/5 283/2/5 284/2/5
f 288/2/5 287/2/5 286/2/5
f 289/2/5 287/2/5 288/2/5
f 292/2/5 291/2/5 290/2/5
f 293/2/5 291/2/5 292/2/5
f 296/5/5 295/5/5 294/5/5
f 297/5/5 295/5/5 296/5/5
f 300/5/5 299/5/5 298/5/5
f 301/5/5 299/5/5 300/5/5
f 304/5/5 303/5/5 302/5/5
f 305/5/5 303/5/5 304/5/5
f 306/1/6 307/1/6 308/1/6
f 308/1/6 307/1/6 309/1/6
f 310/2/6 311/2/6 312/2/6
f 312/2/6 311/2/6 313/2/6
f 314/2/6 315/2/6 316/2/6
f 316/2/6 315/2/6 317/2/6
f 318/2/6 319/2/6 320/2/6
f 320/2/6 319/2/6 321/2/6
f 322/1/6 323/1/6 324/1/6
f 324/1/6 323/1/6 325/1/6
f 326/1/6 327/1/6 328/1/6
f 328/1/6 327/1/6 329/1/6
f 330/1/6 331/1/6 334/1/6
f 334/1/6 331/1/6 335/1/6
f 332/1/6 333/1/6 336/1/6
f 336/1/6 333/1/6 337/1/6
f 338/1/6 339/1/6 342/1/6
f 342/1/6 339/1/6 343/1/6
f 340/1/6 341/1/6 344/1/6
f 344/1/6 341/1/6 345/1/6
f 346/1/6 347/1/6 351/1/6
f 349/1/6 350/1/6 351/1/6
f 348/1/6 349/1/6 351/1/6
f 347/1/6 348/1/6 351/1/6
f 351/1/6 350/1/6 352/1/6
f 352/1/6 350/1/6 353/1/6
f 353/1/6 350/1/6 354/1/6
f 352/1/6 353/1/6 355/1/6
f 355/1/6 353/1/6 356/1/6
f 357/1/6 358/1/6 359/1/6
f 359/1/6 358/1/6 360/1/6
f 360/5/6 361/5/6 362/5/6
f 362/5/6 361/5/6 363/5/6
f 364/1/6 365/1/6 366/1/6
f 366/1/6 365/1/6 367/1/6
f 368/5/6 369/5/6 370/5/6
f 370/5/6 369/5/6 371/5/6
f 372/5/6 373/5/6 374/5/6
f 374/5/6 373/5/6 375/5/6
f 376/1/6 377/1/6 378/1/6
f 378/1/6 377/1/6 379/1/6
f 378/5/6 379/5/6 380/5/6
f 380/5/6 379/5/6 381/5/6
