# MagicaVoxel @ Ephtracy

# group
o 

# material
mtllib Moai.mtl
usemtl palette

# normals
vn -1 0 0
vn 1 0 0
vn 0 0 1
vn 0 0 -1
vn 0 -1 0
vn 0 1 0

# texcoords
vt 0.275391 0.5
vt 0.306641 0.5
vt 0.337891 0.5

# verts
v -2 0 1.4
v -2 0 -1.2
v -2 5 1.5
v -2 5 1.4
v -2 6 -0.1
v -2 6 -0.2
v -2 6.1 -0.1
v -2 6.1 -0.2
v -2 6.9 2.2
v -2 6.9 1.5
v -2 6.9 1.4
v -2 7 2.3
v -2 7 2.2
v -2 7 1.5
v -2 8.1 2.3
v -2 8.1 -1.2
v -1.9 8.1 2.1
v -1.9 8.1 -1.2
v -1.9 8.6 2.1
v -1.9 8.6 -1.2
v -1.7 0 1.7
v -1.7 0 1.4
v -1.7 4.9 1.7
v -1.7 4.9 1.5
v -1.7 5 1.7
v -1.7 5 1.5
v -1.7 5 1.4
v -1.6 0 -1.2
v -1.6 0 -1.6
v -1.6 6.9 2.3
v -1.6 6.9 2.2
v -1.6 7 2.3
v -1.6 7 2.2
v -1.6 8.1 -1.4
v -1.6 8.1 -1.6
v -1.6 8.6 -1.2
v -1.6 8.6 -1.4
v -1.5 1.4 1.9
v -1.5 1.4 1.7
v -1.5 2.3 1.9
v -1.5 2.3 1.7
v -0.8 3.3 2.2
v -0.8 3.3 1.7
v -0.8 4.2 2.2
v -0.8 4.2 1.7
v -0.7 3.5 2.3
v -0.7 3.5 2.2
v -0.7 4.2 2.3
v -0.7 4.2 2.2
v -0.5 4.2 2.3
v -0.5 4.2 1.7
v -0.5 4.9 1.7
v -0.5 5 1.7
v -0.5 5 1.5
v -0.5 6.9 2.3
v -0.5 6.9 1.5
v 1.1 1.8 1.9
v 1.1 1.8 1.8
v 1.1 1.9 1.9
v 1.1 1.9 1.8
v -1.2 1.8 1.9
v -1.2 1.8 1.8
v -1.2 1.9 1.9
v -1.2 1.9 1.8
v 0.4 4.2 2.3
v 0.4 4.2 1.7
v 0.4 4.9 1.7
v 0.4 5 1.7
v 0.4 5 1.5
v 0.4 6.9 2.3
v 0.4 6.9 1.5
v 0.6 3.5 2.3
v 0.6 3.5 2.2
v 0.6 4.2 2.3
v 0.6 4.2 2.2
v 0.7 3.3 2.2
v 0.7 3.3 1.7
v 0.7 4.2 2.2
v 0.7 4.2 1.7
v 1.3 0 -1.2
v 1.3 0 -1.6
v 1.3 1.4 1.9
v 1.3 1.4 1.7
v 1.3 2.3 1.9
v 1.3 2.3 1.7
v 1.3 8.1 -1.4
v 1.3 8.1 -1.6
v 1.3 8.6 -1.2
v 1.3 8.6 -1.4
v 1.4 6.9 2.3
v 1.4 6.9 2.2
v 1.4 7 2.3
v 1.4 7 2.2
v 1.5 0 1.7
v 1.5 0 1.4
v 1.5 4.9 1.7
v 1.5 4.9 1.5
v 1.5 4.9 1.4
v 1.6 4.9 1.7
v 1.6 4.9 1.5
v 1.6 4.9 1.4
v 1.6 5 1.7
v 1.6 5 1.5
v 1.6 5 1.4
v 1.6 8.1 2.1
v 1.6 8.1 -1.2
v 1.6 8.6 2.1
v 1.6 8.6 -1.2
v 1.7 0 1.4
v 1.7 0 -1.2
v 1.7 5 1.5
v 1.7 5 1.4
v 1.7 6.9 2.2
v 1.7 6.9 1.5
v 1.7 6.9 1.4
v 1.7 7 2.3
v 1.7 7 2.2
v 1.7 7 1.5
v 1.7 8.1 2.3
v 1.7 8.1 -1.2
v -2 7 2.3
v -2 8.1 2.3
v -1.6 6.9 2.3
v -1.6 7 2.3
v -0.7 3.5 2.3
v -0.7 4.2 2.3
v -0.5 4.2 2.3
v -0.5 6.9 2.3
v -0.5 7 2.3
v -0.4 4.2 2.3
v -0.4 6.9 2.3
v 0.3 4.2 2.3
v 0.3 6.9 2.3
v 0.4 4.2 2.3
v 0.4 6.9 2.3
v 0.4 7 2.3
v 0.6 3.5 2.3
v 0.6 4.2 2.3
v 1.4 6.9 2.3
v 1.4 7 2.3
v 1.7 7 2.3
v 1.7 8.1 2.3
v -2 6.9 2.2
v -2 7 2.2
v -1.6 6.9 2.2
v -1.6 7 2.2
v -0.8 3.3 2.2
v -0.8 4.2 2.2
v -0.7 3.5 2.2
v -0.7 4.2 2.2
v 0.6 3.5 2.2
v 0.6 4.2 2.2
v 0.7 3.3 2.2
v 0.7 4.2 2.2
v 1.4 6.9 2.2
v 1.4 7 2.2
v 1.7 6.9 2.2
v 1.7 7 2.2
v -1.9 8.1 2.1
v -1.9 8.6 2.1
v 1.6 8.1 2.1
v 1.6 8.6 2.1
v -1.5 1.4 1.9
v -1.5 2.3 1.9
v -1.2 1.8 1.9
v -1.2 1.9 1.9
v 1.1 1.8 1.9
v 1.1 1.9 1.9
v 1.3 1.4 1.9
v 1.3 2.3 1.9
v -1.2 1.8 1.8
v -1.2 1.9 1.8
v 1.1 1.8 1.8
v 1.1 1.9 1.8
v -1.7 0 1.7
v -1.7 4.9 1.7
v -1.7 5 1.7
v -1.5 1.4 1.7
v -1.5 2.3 1.7
v -0.8 3.3 1.7
v -0.8 4.2 1.7
v -0.5 4.2 1.7
v -0.5 4.9 1.7
v -0.5 5 1.7
v 0.4 4.2 1.7
v 0.4 4.9 1.7
v 0.4 5 1.7
v 0.7 3.3 1.7
v 0.7 4.2 1.7
v 1.3 1.4 1.7
v 1.3 2.3 1.7
v 1.5 0 1.7
v 1.5 4.9 1.7
v 1.6 4.9 1.7
v 1.6 5 1.7
v -2 5 1.5
v -2 6.9 1.5
v -1.7 5 1.5
v -0.5 5 1.5
v -0.5 6.9 1.5
v 0.4 5 1.5
v 0.4 6.9 1.5
v 1.6 5 1.5
v 1.7 5 1.5
v 1.7 6.9 1.5
v -2 0 1.4
v -2 5 1.4
v -1.7 0 1.4
v -1.7 5 1.4
v 1.5 0 1.4
v 1.5 4.9 1.4
v 1.6 4.9 1.4
v 1.6 5 1.4
v 1.7 0 1.4
v 1.7 5 1.4
v -2 0 -1.2
v -2 8.1 -1.2
v -1.9 8.1 -1.2
v -1.9 8.6 -1.2
v -1.6 0 -1.2
v -1.6 8.6 -1.2
v 1.3 0 -1.2
v 1.3 8.6 -1.2
v 1.6 8.1 -1.2
v 1.6 8.6 -1.2
v 1.7 0 -1.2
v 1.7 8.1 -1.2
v -1.6 8.1 -1.4
v -1.6 8.6 -1.4
v 1.3 8.1 -1.4
v 1.3 8.6 -1.4
v -1.6 0 -1.6
v -1.6 8.1 -1.6
v 1.3 0 -1.6
v 1.3 8.1 -1.6
v -1.7 0 1.7
v 1.5 0 1.7
v -2 0 1.4
v -1.7 0 1.4
v 1.5 0 1.4
v 1.7 0 1.4
v -2 0 -1.2
v -1.6 0 -1.2
v 1.3 0 -1.2
v 1.7 0 -1.2
v -1.6 0 -1.6
v 1.3 0 -1.6
v -1.5 1.4 1.9
v 1.3 1.4 1.9
v -1.5 1.4 1.7
v 1.3 1.4 1.7
v -1.2 1.9 1.9
v 1.1 1.9 1.9
v -1.2 1.9 1.8
v 1.1 1.9 1.8
v -0.8 3.3 2.2
v 0.7 3.3 2.2
v -0.8 3.3 1.7
v 0.7 3.3 1.7
v -0.7 3.5 2.3
v 0.6 3.5 2.3
v -0.7 3.5 2.2
v 0.6 3.5 2.2
v 1.5 4.9 1.7
v 1.6 4.9 1.7
v 1.5 4.9 1.5
v 1.6 4.9 1.5
v 1.5 4.9 1.4
v 1.6 4.9 1.4
v -2 5 1.5
v -1.7 5 1.5
v 1.6 5 1.5
v 1.7 5 1.5
v -2 5 1.4
v -1.7 5 1.4
v 1.6 5 1.4
v 1.7 5 1.4
v -1.6 6.9 2.3
v -0.5 6.9 2.3
v 0.4 6.9 2.3
v 1.4 6.9 2.3
v -2 6.9 2.2
v -1.6 6.9 2.2
v 1.4 6.9 2.2
v 1.7 6.9 2.2
v -2 6.9 1.5
v -0.5 6.9 1.5
v 0.4 6.9 1.5
v 1.7 6.9 1.5
v -2 7 2.3
v -1.6 7 2.3
v 1.4 7 2.3
v 1.7 7 2.3
v -2 7 2.2
v -1.6 7 2.2
v 1.4 7 2.2
v 1.7 7 2.2
v -1.2 1.8 1.9
v 1.1 1.8 1.9
v -1.2 1.8 1.8
v 1.1 1.8 1.8
v -1.5 2.3 1.9
v 1.3 2.3 1.9
v -1.5 2.3 1.7
v 1.3 2.3 1.7
v -0.7 4.2 2.3
v -0.5 4.2 2.3
v 0.4 4.2 2.3
v 0.6 4.2 2.3
v -0.8 4.2 2.2
v -0.7 4.2 2.2
v 0.6 4.2 2.2
v 0.7 4.2 2.2
v -0.8 4.2 1.7
v -0.5 4.2 1.7
v 0.4 4.2 1.7
v 0.7 4.2 1.7
v -1.7 5 1.7
v -0.5 5 1.7
v 0.4 5 1.7
v 1.6 5 1.7
v -1.7 5 1.5
v -0.5 5 1.5
v 0.4 5 1.5
v 1.6 5 1.5
v -2 8.1 2.3
v 1.7 8.1 2.3
v -1.9 8.1 2.1
v 1.6 8.1 2.1
v -2 8.1 -1.2
v -1.9 8.1 -1.2
v 1.6 8.1 -1.2
v 1.7 8.1 -1.2
v -1.6 8.1 -1.4
v 1.3 8.1 -1.4
v -1.6 8.1 -1.6
v 1.3 8.1 -1.6
v -1.9 8.6 2.1
v 1.6 8.6 2.1
v -1.9 8.6 -1.2
v -1.6 8.6 -1.2
v 1.3 8.6 -1.2
v 1.6 8.6 -1.2
v -1.6 8.6 -1.4
v 1.3 8.6 -1.4

# faces
f 4/2/1 2/2/1 1/2/1
f 5/2/1 2/2/1 4/2/1
f 6/2/1 2/2/1 5/2/1
f 7/2/1 5/2/1 4/2/1
f 7/1/1 6/1/1 5/1/1
f 8/2/1 2/2/1 6/2/1
f 8/1/1 6/1/1 7/1/1
f 10/3/1 4/3/1 3/3/1
f 11/2/1 7/2/1 4/2/1
f 11/2/1 8/2/1 7/2/1
f 11/3/1 4/3/1 10/3/1
f 13/3/1 10/3/1 9/3/1
f 14/2/1 11/2/1 10/2/1
f 14/3/1 10/3/1 13/3/1
f 15/2/1 13/2/1 12/2/1
f 15/2/1 14/2/1 13/2/1
f 16/2/1 2/2/1 8/2/1
f 16/2/1 14/2/1 15/2/1
f 16/2/1 8/2/1 11/2/1
f 16/2/1 11/2/1 14/2/1
f 19/2/1 18/2/1 17/2/1
f 20/2/1 18/2/1 19/2/1
f 23/2/1 22/2/1 21/2/1
f 24/2/1 22/2/1 23/2/1
f 25/3/1 24/3/1 23/3/1
f 26/2/1 22/2/1 24/2/1
f 26/3/1 24/3/1 25/3/1
f 27/2/1 22/2/1 26/2/1
f 32/3/1 31/3/1 30/3/1
f 33/3/1 31/3/1 32/3/1
f 34/2/1 29/2/1 28/2/1
f 35/2/1 29/2/1 34/2/1
f 36/2/1 34/2/1 28/2/1
f 37/2/1 34/2/1 36/2/1
f 40/2/1 39/2/1 38/2/1
f 41/2/1 39/2/1 40/2/1
f 44/2/1 43/2/1 42/2/1
f 45/2/1 43/2/1 44/2/1
f 48/2/1 47/2/1 46/2/1
f 49/2/1 47/2/1 48/2/1
f 52/3/1 51/3/1 50/3/1
f 53/3/1 52/3/1 50/3/1
f 55/3/1 53/3/1 50/3/1
f 55/3/1 54/3/1 53/3/1
f 56/3/1 54/3/1 55/3/1
f 59/2/1 58/2/1 57/2/1
f 60/2/1 58/2/1 59/2/1
f 61/2/2 62/2/2 63/2/2
f 63/2/2 62/2/2 64/2/2
f 65/3/2 66/3/2 67/3/2
f 65/3/2 67/3/2 68/3/2
f 65/3/2 68/3/2 70/3/2
f 68/3/2 69/3/2 70/3/2
f 70/3/2 69/3/2 71/3/2
f 72/2/2 73/2/2 74/2/2
f 74/2/2 73/2/2 75/2/2
f 76/2/2 77/2/2 78/2/2
f 78/2/2 77/2/2 79/2/2
f 82/2/2 83/2/2 84/2/2
f 84/2/2 83/2/2 85/2/2
f 80/2/2 81/2/2 86/2/2
f 86/2/2 81/2/2 87/2/2
f 80/2/2 86/2/2 88/2/2
f 88/2/2 86/2/2 89/2/2
f 90/3/2 91/3/2 92/3/2
f 92/3/2 91/3/2 93/3/2
f 94/2/2 95/2/2 96/2/2
f 96/2/2 95/2/2 97/2/2
f 97/2/2 95/2/2 98/2/2
f 99/3/2 100/3/2 102/3/2
f 100/2/2 101/2/2 103/2/2
f 102/3/2 100/3/2 103/3/2
f 103/2/2 101/2/2 104/2/2
f 105/2/2 106/2/2 107/2/2
f 107/2/2 106/2/2 108/2/2
f 109/2/2 110/2/2 112/2/2
f 111/3/2 112/3/2 114/3/2
f 112/2/2 110/2/2 115/2/2
f 114/3/2 112/3/2 115/3/2
f 113/3/2 114/3/2 117/3/2
f 114/2/2 115/2/2 118/2/2
f 117/3/2 114/3/2 118/3/2
f 116/2/2 117/2/2 119/2/2
f 117/2/2 118/2/2 119/2/2
f 115/2/2 110/2/2 120/2/2
f 119/2/2 118/2/2 120/2/2
f 118/2/2 115/2/2 120/2/2
f 124/2/3 122/2/3 121/2/3
f 127/2/3 126/2/3 125/2/3
f 128/3/3 124/3/3 123/3/3
f 129/2/3 122/2/3 124/2/3
f 129/3/3 124/3/3 128/3/3
f 130/3/3 128/3/3 127/3/3
f 130/2/3 127/2/3 125/2/3
f 131/2/3 129/2/3 128/2/3
f 131/3/3 128/3/3 130/3/3
f 132/2/3 130/2/3 125/2/3
f 132/2/3 131/2/3 130/2/3
f 133/2/3 129/2/3 131/2/3
f 133/2/3 131/2/3 132/2/3
f 134/2/3 132/2/3 125/2/3
f 134/3/3 133/3/3 132/3/3
f 135/2/3 129/2/3 133/2/3
f 135/3/3 133/3/3 134/3/3
f 136/2/3 122/2/3 129/2/3
f 136/2/3 129/2/3 135/2/3
f 137/2/3 134/2/3 125/2/3
f 138/2/3 134/2/3 137/2/3
f 139/3/3 136/3/3 135/3/3
f 140/2/3 122/2/3 136/2/3
f 140/3/3 136/3/3 139/3/3
f 141/2/3 122/2/3 140/2/3
f 142/2/3 122/2/3 141/2/3
f 145/3/3 144/3/3 143/3/3
f 146/3/3 144/3/3 145/3/3
f 149/2/3 148/2/3 147/2/3
f 150/2/3 148/2/3 149/2/3
f 151/2/3 149/2/3 147/2/3
f 153/2/3 151/2/3 147/2/3
f 153/2/3 152/2/3 151/2/3
f 154/2/3 152/2/3 153/2/3
f 157/3/3 156/3/3 155/3/3
f 158/3/3 156/3/3 157/3/3
f 161/2/3 160/2/3 159/2/3
f 162/2/3 160/2/3 161/2/3
f 165/2/3 164/2/3 163/2/3
f 166/2/3 164/2/3 165/2/3
f 167/2/3 165/2/3 163/2/3
f 168/2/3 164/2/3 166/2/3
f 169/2/3 167/2/3 163/2/3
f 169/2/3 168/2/3 167/2/3
f 170/2/3 164/2/3 168/2/3
f 170/2/3 168/2/3 169/2/3
f 173/2/3 172/2/3 171/2/3
f 174/2/3 172/2/3 173/2/3
f 178/2/3 176/2/3 175/2/3
f 179/2/3 176/2/3 178/2/3
f 180/2/3 176/2/3 179/2/3
f 181/2/3 176/2/3 180/2/3
f 182/2/3 176/2/3 181/2/3
f 183/3/3 177/3/3 176/3/3
f 183/2/3 176/2/3 182/2/3
f 184/3/3 177/3/3 183/3/3
f 188/2/3 180/2/3 179/2/3
f 189/2/3 186/2/3 185/2/3
f 190/2/3 178/2/3 175/2/3
f 191/2/3 189/2/3 188/2/3
f 191/2/3 188/2/3 179/2/3
f 192/2/3 190/2/3 175/2/3
f 192/2/3 191/2/3 190/2/3
f 193/2/3 189/2/3 191/2/3
f 193/2/3 191/2/3 192/2/3
f 193/3/3 187/3/3 186/3/3
f 193/2/3 186/2/3 189/2/3
f 194/3/3 187/3/3 193/3/3
f 195/3/3 187/3/3 194/3/3
f 198/3/3 197/3/3 196/3/3
f 199/3/3 197/3/3 198/3/3
f 200/3/3 197/3/3 199/3/3
f 203/3/3 202/3/3 201/3/3
f 204/3/3 202/3/3 203/3/3
f 205/3/3 202/3/3 204/3/3
f 208/2/3 207/2/3 206/2/3
f 209/2/3 207/2/3 208/2/3
f 212/2/3 211/2/3 210/2/3
f 214/2/3 212/2/3 210/2/3
f 214/2/3 213/2/3 212/2/3
f 215/2/3 213/2/3 214/2/3
f 216/2/4 217/2/4 218/2/4
f 216/2/4 218/2/4 220/2/4
f 218/2/4 219/2/4 220/2/4
f 220/2/4 219/2/4 221/2/4
f 222/2/4 223/2/4 224/2/4
f 224/2/4 223/2/4 225/2/4
f 222/2/4 224/2/4 226/2/4
f 226/2/4 224/2/4 227/2/4
f 228/2/4 229/2/4 230/2/4
f 230/2/4 229/2/4 231/2/4
f 232/2/4 233/2/4 234/2/4
f 234/2/4 233/2/4 235/2/4
f 239/2/5 237/2/5 236/2/5
f 240/2/5 237/2/5 239/2/5
f 242/2/5 239/2/5 238/2/5
f 242/2/5 241/2/5 240/2/5
f 242/2/5 240/2/5 239/2/5
f 243/2/5 241/2/5 242/2/5
f 244/2/5 241/2/5 243/2/5
f 245/2/5 241/2/5 244/2/5
f 246/2/5 244/2/5 243/2/5
f 247/2/5 244/2/5 246/2/5
f 250/2/5 249/2/5 248/2/5
f 251/2/5 249/2/5 250/2/5
f 254/2/5 253/2/5 252/2/5
f 255/2/5 253/2/5 254/2/5
f 258/2/5 257/2/5 256/2/5
f 259/2/5 257/2/5 258/2/5
f 262/2/5 261/2/5 260/2/5
f 263/2/5 261/2/5 262/2/5
f 266/3/5 265/3/5 264/3/5
f 267/3/5 265/3/5 266/3/5
f 268/2/5 267/2/5 266/2/5
f 269/2/5 267/2/5 268/2/5
f 274/3/5 271/3/5 270/3/5
f 275/3/5 271/3/5 274/3/5
f 276/3/5 273/3/5 272/3/5
f 277/3/5 273/3/5 276/3/5
f 283/3/5 279/3/5 278/3/5
f 284/3/5 281/3/5 280/3/5
f 286/3/5 283/3/5 282/3/5
f 287/3/5 279/3/5 283/3/5
f 287/3/5 283/3/5 286/3/5
f 288/3/5 285/3/5 284/3/5
f 288/3/5 284/3/5 280/3/5
f 289/3/5 285/3/5 288/3/5
f 294/2/5 291/2/5 290/2/5
f 295/2/5 291/2/5 294/2/5
f 296/2/5 293/2/5 292/2/5
f 297/2/5 293/2/5 296/2/5
f 298/2/6 299/2/6 300/2/6
f 300/2/6 299/2/6 301/2/6
f 302/2/6 303/2/6 304/2/6
f 304/2/6 303/2/6 305/2/6
f 306/2/6 307/2/6 311/2/6
f 308/2/6 309/2/6 312/2/6
f 310/2/6 311/2/6 314/2/6
f 311/2/6 307/2/6 315/2/6
f 314/2/6 311/2/6 315/2/6
f 312/2/6 313/2/6 316/2/6
f 308/2/6 312/2/6 316/2/6
f 316/2/6 313/2/6 317/2/6
f 318/3/6 319/3/6 322/3/6
f 322/3/6 319/3/6 323/3/6
f 320/3/6 321/3/6 324/3/6
f 324/3/6 321/3/6 325/3/6
f 326/2/6 327/2/6 328/2/6
f 328/2/6 327/2/6 329/2/6
f 326/2/6 328/2/6 330/2/6
f 330/2/6 328/2/6 331/2/6
f 329/2/6 327/2/6 332/2/6
f 332/2/6 327/2/6 333/2/6
f 334/2/6 335/2/6 336/2/6
f 336/2/6 335/2/6 337/2/6
f 338/2/6 339/2/6 340/2/6
f 340/2/6 339/2/6 341/2/6
f 341/2/6 339/2/6 342/2/6
f 342/2/6 339/2/6 343/2/6
f 341/2/6 342/2/6 344/2/6
f 344/2/6 342/2/6 345/2/6
