# MagicaVoxel @ Ephtracy

# group
o 

# material
mtllib Pneu inimigo-0.mtl
usemtl palette

# normals
vn -1 0 0
vn 1 0 0
vn 0 0 1
vn 0 0 -1
vn 0 -1 0
vn 0 1 0

# texcoords
vt 0.302734 0.5
vt 0.306641 0.5
vt 0.330078 0.5
vt 0.845703 0.5

# verts
v -1 1.9 -0.3
v -1 1.9 -0.5
v -1 1.9 -0.6
v -1 2.1 -0.3
v -1 2.1 -0.5
v -1 2.1 -0.6
v -0.9 2.1 -0.3
v -0.9 2.1 -0.5
v -0.9 2.1 -0.6
v -0.9 2.2 -0.3
v -0.9 2.2 -0.5
v -0.9 2.2 -0.6
v -0.8 2.2 -0.3
v -0.8 2.2 -0.5
v -0.8 2.2 -0.6
v -0.8 2.3 -0.3
v -0.8 2.3 -0.5
v -0.8 2.3 -0.6
v -0.8 2.4 -0.5
v -0.8 2.4 -0.6
v -0.8 2.5 -0.5
v -0.8 2.5 -0.6
v -0.7 2.3 -0.5
v -0.7 2.3 -0.6
v -0.7 2.4 -0.5
v -0.7 2.4 -0.6
v 0.1 1.9 -0.5
v 0.1 1.9 -0.6
v 0.1 2 -0.3
v 0.1 2 -0.5
v 0.1 2.1 -0.3
v 0.1 2.1 -0.5
v 0.1 2.1 -0.6
v 0.1 2.2 -0.5
v 0.1 2.2 -0.6
v 0.2 2.1 -0.3
v 0.2 2.1 -0.5
v 0.2 2.2 -0.3
v 0.2 2.2 -0.5
v 0.2 2.2 -0.6
v 0.2 2.3 -0.5
v 0.2 2.3 -0.6
v 0.3 2.2 -0.3
v 0.3 2.2 -0.5
v 0.3 2.3 -0.3
v 0.3 2.3 -0.5
v 0.3 2.3 -0.6
v 0.3 2.4 -0.5
v 0.3 2.4 -0.6
v 0.4 2.4 -0.5
v 0.4 2.4 -0.6
v 0.4 2.5 -0.5
v 0.4 2.5 -0.6
v -0.6 2.4 -0.5
v -0.6 2.4 -0.6
v -0.6 2.5 -0.5
v -0.6 2.5 -0.6
v -0.5 2.2 -0.3
v -0.5 2.2 -0.5
v -0.5 2.3 -0.3
v -0.5 2.3 -0.5
v -0.5 2.3 -0.6
v -0.5 2.4 -0.5
v -0.5 2.4 -0.6
v -0.4 2.1 -0.3
v -0.4 2.1 -0.5
v -0.4 2.2 -0.3
v -0.4 2.2 -0.5
v -0.4 2.2 -0.6
v -0.4 2.3 -0.5
v -0.4 2.3 -0.6
v -0.3 1.9 -0.5
v -0.3 1.9 -0.6
v -0.3 2 -0.3
v -0.3 2 -0.5
v -0.3 2.1 -0.3
v -0.3 2.1 -0.5
v -0.3 2.1 -0.6
v -0.3 2.2 -0.5
v -0.3 2.2 -0.6
v 0.5 2.3 -0.5
v 0.5 2.3 -0.6
v 0.5 2.4 -0.5
v 0.5 2.4 -0.6
v 0.6 2.2 -0.3
v 0.6 2.2 -0.5
v 0.6 2.2 -0.6
v 0.6 2.3 -0.3
v 0.6 2.3 -0.5
v 0.6 2.3 -0.6
v 0.6 2.4 -0.5
v 0.6 2.4 -0.6
v 0.6 2.5 -0.5
v 0.6 2.5 -0.6
v 0.7 2.1 -0.3
v 0.7 2.1 -0.5
v 0.7 2.1 -0.6
v 0.7 2.2 -0.3
v 0.7 2.2 -0.5
v 0.7 2.2 -0.6
v 0.8 1.9 -0.3
v 0.8 1.9 -0.5
v 0.8 1.9 -0.6
v 0.8 2.1 -0.3
v 0.8 2.1 -0.5
v 0.8 2.1 -0.6
v -1 1.9 -0.3
v -1 2.1 -0.3
v -0.9 2.1 -0.3
v -0.9 2.2 -0.3
v -0.8 2.2 -0.3
v -0.8 2.3 -0.3
v -0.5 2.2 -0.3
v -0.5 2.3 -0.3
v -0.4 2.1 -0.3
v -0.4 2.2 -0.3
v -0.3 2 -0.3
v -0.3 2.1 -0.3
v 0.1 2 -0.3
v 0.1 2.1 -0.3
v 0.2 2.1 -0.3
v 0.2 2.2 -0.3
v 0.3 2.2 -0.3
v 0.3 2.3 -0.3
v 0.6 2.2 -0.3
v 0.6 2.3 -0.3
v 0.7 2.1 -0.3
v 0.7 2.2 -0.3
v 0.8 1.9 -0.3
v 0.8 2.1 -0.3
v -0.8 2.4 -0.5
v -0.8 2.5 -0.5
v -0.7 2.3 -0.5
v -0.7 2.4 -0.5
v -0.6 2.4 -0.5
v -0.6 2.5 -0.5
v -0.5 2.2 -0.5
v -0.5 2.3 -0.5
v -0.5 2.4 -0.5
v -0.4 2.1 -0.5
v -0.4 2.2 -0.5
v -0.4 2.3 -0.5
v -0.3 2.1 -0.5
v -0.3 2.2 -0.5
v 0.1 2.1 -0.5
v 0.1 2.2 -0.5
v 0.2 2.1 -0.5
v 0.2 2.2 -0.5
v 0.2 2.3 -0.5
v 0.3 2.2 -0.5
v 0.3 2.3 -0.5
v 0.3 2.4 -0.5
v 0.4 2.4 -0.5
v 0.4 2.5 -0.5
v 0.5 2.3 -0.5
v 0.5 2.4 -0.5
v 0.6 2.4 -0.5
v 0.6 2.5 -0.5
v -0.3 1.9 -0.5
v -0.3 2 -0.5
v 0.1 1.9 -0.5
v 0.1 2 -0.5
v -1 1.9 -0.6
v -1 2.1 -0.6
v -0.9 2.1 -0.6
v -0.9 2.2 -0.6
v -0.8 2.2 -0.6
v -0.8 2.3 -0.6
v -0.8 2.4 -0.6
v -0.8 2.5 -0.6
v -0.7 1.9 -0.6
v -0.7 2.1 -0.6
v -0.7 2.3 -0.6
v -0.7 2.4 -0.6
v -0.6 2.4 -0.6
v -0.6 2.5 -0.6
v -0.5 1.9 -0.6
v -0.5 2.1 -0.6
v -0.5 2.2 -0.6
v -0.5 2.3 -0.6
v -0.5 2.4 -0.6
v -0.4 2.1 -0.6
v -0.4 2.2 -0.6
v -0.4 2.3 -0.6
v -0.3 1.9 -0.6
v -0.3 2.1 -0.6
v -0.3 2.2 -0.6
v 0.1 1.9 -0.6
v 0.1 2.1 -0.6
v 0.1 2.2 -0.6
v 0.2 2.1 -0.6
v 0.2 2.2 -0.6
v 0.2 2.3 -0.6
v 0.3 1.9 -0.6
v 0.3 2.1 -0.6
v 0.3 2.2 -0.6
v 0.3 2.3 -0.6
v 0.3 2.4 -0.6
v 0.4 2.4 -0.6
v 0.4 2.5 -0.6
v 0.5 1.9 -0.6
v 0.5 2.1 -0.6
v 0.5 2.3 -0.6
v 0.5 2.4 -0.6
v 0.6 2.2 -0.6
v 0.6 2.3 -0.6
v 0.6 2.4 -0.6
v 0.6 2.5 -0.6
v 0.7 2.1 -0.6
v 0.7 2.2 -0.6
v 0.8 1.9 -0.6
v 0.8 2.1 -0.6
v -1 1.9 -0.3
v 0.8 1.9 -0.3
v -1 1.9 -0.5
v -0.7 1.9 -0.5
v -0.5 1.9 -0.5
v -0.3 1.9 -0.5
v 0.1 1.9 -0.5
v 0.3 1.9 -0.5
v 0.5 1.9 -0.5
v 0.8 1.9 -0.5
v -1 1.9 -0.6
v -0.7 1.9 -0.6
v -0.5 1.9 -0.6
v -0.3 1.9 -0.6
v 0.1 1.9 -0.6
v 0.3 1.9 -0.6
v 0.5 1.9 -0.6
v 0.8 1.9 -0.6
v -0.8 2.4 -0.5
v -0.7 2.4 -0.5
v 0.5 2.4 -0.5
v 0.6 2.4 -0.5
v -0.8 2.4 -0.6
v -0.7 2.4 -0.6
v 0.5 2.4 -0.6
v 0.6 2.4 -0.6
v -0.3 2 -0.3
v 0.1 2 -0.3
v -0.3 2 -0.5
v 0.1 2 -0.5
v -1 2.1 -0.3
v -0.9 2.1 -0.3
v -0.4 2.1 -0.3
v -0.3 2.1 -0.3
v 0.1 2.1 -0.3
v 0.2 2.1 -0.3
v 0.7 2.1 -0.3
v 0.8 2.1 -0.3
v -1 2.1 -0.5
v -0.9 2.1 -0.5
v -0.4 2.1 -0.5
v -0.3 2.1 -0.5
v 0.1 2.1 -0.5
v 0.2 2.1 -0.5
v 0.7 2.1 -0.5
v 0.8 2.1 -0.5
v -1 2.1 -0.6
v -0.9 2.1 -0.6
v 0.7 2.1 -0.6
v 0.8 2.1 -0.6
v -0.9 2.2 -0.3
v -0.8 2.2 -0.3
v -0.5 2.2 -0.3
v -0.4 2.2 -0.3
v 0.2 2.2 -0.3
v 0.3 2.2 -0.3
v 0.6 2.2 -0.3
v 0.7 2.2 -0.3
v -0.9 2.2 -0.5
v -0.8 2.2 -0.5
v -0.5 2.2 -0.5
v -0.4 2.2 -0.5
v -0.3 2.2 -0.5
v 0.1 2.2 -0.5
v 0.2 2.2 -0.5
v 0.3 2.2 -0.5
v 0.6 2.2 -0.5
v 0.7 2.2 -0.5
v -0.9 2.2 -0.6
v -0.8 2.2 -0.6
v -0.4 2.2 -0.6
v -0.3 2.2 -0.6
v 0.1 2.2 -0.6
v 0.2 2.2 -0.6
v 0.6 2.2 -0.6
v 0.7 2.2 -0.6
v -0.8 2.3 -0.3
v -0.5 2.3 -0.3
v 0.3 2.3 -0.3
v 0.6 2.3 -0.3
v -0.8 2.3 -0.5
v -0.7 2.3 -0.5
v -0.5 2.3 -0.5
v -0.4 2.3 -0.5
v 0.2 2.3 -0.5
v 0.3 2.3 -0.5
v 0.5 2.3 -0.5
v 0.6 2.3 -0.5
v -0.8 2.3 -0.6
v -0.7 2.3 -0.6
v -0.5 2.3 -0.6
v -0.4 2.3 -0.6
v 0.2 2.3 -0.6
v 0.3 2.3 -0.6
v 0.5 2.3 -0.6
v 0.6 2.3 -0.6
v -0.6 2.4 -0.5
v -0.5 2.4 -0.5
v 0.3 2.4 -0.5
v 0.4 2.4 -0.5
v -0.6 2.4 -0.6
v -0.5 2.4 -0.6
v 0.3 2.4 -0.6
v 0.4 2.4 -0.6
v -0.8 2.5 -0.5
v -0.6 2.5 -0.5
v 0.4 2.5 -0.5
v 0.6 2.5 -0.5
v -0.8 2.5 -0.6
v -0.6 2.5 -0.6
v 0.4 2.5 -0.6
v 0.6 2.5 -0.6

# faces
f 4/2/1 2/2/1 1/2/1
f 5/4/1 3/4/1 2/4/1
f 5/2/1 2/2/1 4/2/1
f 6/4/1 3/4/1 5/4/1
f 10/2/1 8/2/1 7/2/1
f 11/4/1 9/4/1 8/4/1
f 11/2/1 8/2/1 10/2/1
f 12/4/1 9/4/1 11/4/1
f 16/2/1 14/2/1 13/2/1
f 17/4/1 15/4/1 14/4/1
f 17/2/1 14/2/1 16/2/1
f 18/4/1 15/4/1 17/4/1
f 21/1/1 20/1/1 19/1/1
f 22/1/1 20/1/1 21/1/1
f 25/1/1 24/1/1 23/1/1
f 26/1/1 24/1/1 25/1/1
f 30/4/1 28/4/1 27/4/1
f 31/2/1 30/2/1 29/2/1
f 32/4/1 28/4/1 30/4/1
f 32/2/1 30/2/1 31/2/1
f 33/4/1 28/4/1 32/4/1
f 34/1/1 33/1/1 32/1/1
f 35/1/1 33/1/1 34/1/1
f 38/2/1 37/2/1 36/2/1
f 39/2/1 37/2/1 38/2/1
f 41/1/1 40/1/1 39/1/1
f 42/1/1 40/1/1 41/1/1
f 45/2/1 44/2/1 43/2/1
f 46/2/1 44/2/1 45/2/1
f 48/1/1 47/1/1 46/1/1
f 49/1/1 47/1/1 48/1/1
f 52/1/1 51/1/1 50/1/1
f 53/1/1 51/1/1 52/1/1
f 54/1/2 55/1/2 56/1/2
f 56/1/2 55/1/2 57/1/2
f 58/2/2 59/2/2 60/2/2
f 60/2/2 59/2/2 61/2/2
f 61/1/2 62/1/2 63/1/2
f 63/1/2 62/1/2 64/1/2
f 65/2/2 66/2/2 67/2/2
f 67/2/2 66/2/2 68/2/2
f 68/1/2 69/1/2 70/1/2
f 70/1/2 69/1/2 71/1/2
f 72/4/2 73/4/2 75/4/2
f 74/2/2 75/2/2 76/2/2
f 75/4/2 73/4/2 77/4/2
f 76/2/2 75/2/2 77/2/2
f 77/4/2 73/4/2 78/4/2
f 77/1/2 78/1/2 79/1/2
f 79/1/2 78/1/2 80/1/2
f 81/1/2 82/1/2 83/1/2
f 83/1/2 82/1/2 84/1/2
f 85/2/2 86/2/2 88/2/2
f 86/4/2 87/4/2 89/4/2
f 88/2/2 86/2/2 89/2/2
f 89/4/2 87/4/2 90/4/2
f 91/1/2 92/1/2 93/1/2
f 93/1/2 92/1/2 94/1/2
f 95/2/2 96/2/2 98/2/2
f 96/4/2 97/4/2 99/4/2
f 98/2/2 96/2/2 99/2/2
f 99/4/2 97/4/2 100/4/2
f 101/2/2 102/2/2 104/2/2
f 102/4/2 103/4/2 105/4/2
f 104/2/2 102/2/2 105/2/2
f 105/4/2 103/4/2 106/4/2
f 109/2/3 108/2/3 107/2/3
f 111/2/3 110/2/3 109/2/3
f 113/2/3 111/2/3 109/2/3
f 113/2/3 112/2/3 111/2/3
f 114/2/3 112/2/3 113/2/3
f 115/2/3 109/2/3 107/2/3
f 115/2/3 113/2/3 109/2/3
f 116/2/3 113/2/3 115/2/3
f 117/2/3 115/2/3 107/2/3
f 118/2/3 115/2/3 117/2/3
f 119/2/3 117/2/3 107/2/3
f 121/2/3 120/2/3 119/2/3
f 123/2/3 122/2/3 121/2/3
f 125/2/3 123/2/3 121/2/3
f 125/2/3 124/2/3 123/2/3
f 126/2/3 124/2/3 125/2/3
f 127/2/3 121/2/3 119/2/3
f 127/2/3 125/2/3 121/2/3
f 128/2/3 125/2/3 127/2/3
f 129/2/3 119/2/3 107/2/3
f 129/2/3 127/2/3 119/2/3
f 130/2/3 127/2/3 129/2/3
f 134/1/3 132/1/3 131/1/3
f 135/1/3 132/1/3 134/1/3
f 135/1/3 134/1/3 133/1/3
f 136/1/3 132/1/3 135/1/3
f 138/1/3 135/1/3 133/1/3
f 139/1/3 135/1/3 138/1/3
f 141/1/3 138/1/3 137/1/3
f 142/1/3 138/1/3 141/1/3
f 143/1/3 141/1/3 140/1/3
f 144/1/3 141/1/3 143/1/3
f 147/1/3 146/1/3 145/1/3
f 148/1/3 146/1/3 147/1/3
f 150/1/3 149/1/3 148/1/3
f 151/1/3 149/1/3 150/1/3
f 153/1/3 152/1/3 151/1/3
f 155/1/3 153/1/3 151/1/3
f 155/1/3 154/1/3 153/1/3
f 156/1/3 154/1/3 155/1/3
f 157/1/3 154/1/3 156/1/3
f 158/1/3 154/1/3 157/1/3
f 159/2/4 160/2/4 161/2/4
f 161/2/4 160/2/4 162/2/4
f 163/4/4 164/4/4 165/4/4
f 165/4/4 166/4/4 167/4/4
f 163/4/4 165/4/4 171/4/4
f 165/4/4 167/4/4 171/4/4
f 167/4/4 168/4/4 171/4/4
f 171/4/4 168/4/4 172/4/4
f 172/4/4 168/4/4 173/4/4
f 169/1/4 170/1/4 174/1/4
f 174/1/4 170/1/4 175/1/4
f 173/1/4 174/1/4 175/1/4
f 175/1/4 170/1/4 176/1/4
f 171/1/4 172/1/4 177/1/4
f 172/4/4 173/4/4 178/4/4
f 177/1/4 172/1/4 178/1/4
f 178/4/4 173/4/4 179/4/4
f 173/1/4 175/1/4 180/1/4
f 179/4/4 173/4/4 180/4/4
f 180/1/4 175/1/4 181/1/4
f 178/4/4 179/4/4 182/4/4
f 177/4/4 178/4/4 182/4/4
f 179/1/4 180/1/4 183/1/4
f 182/4/4 179/4/4 183/4/4
f 183/1/4 180/1/4 184/1/4
f 177/4/4 182/4/4 185/4/4
f 182/1/4 183/1/4 186/1/4
f 185/4/4 182/4/4 186/4/4
f 186/1/4 183/1/4 187/1/4
f 188/4/4 189/4/4 191/4/4
f 189/1/4 190/1/4 191/1/4
f 191/1/4 190/1/4 192/1/4
f 191/4/4 192/4/4 194/4/4
f 188/4/4 191/4/4 194/4/4
f 194/4/4 192/4/4 195/4/4
f 192/1/4 193/1/4 196/1/4
f 195/4/4 192/4/4 196/4/4
f 196/1/4 193/1/4 197/1/4
f 197/1/4 198/1/4 199/1/4
f 194/1/4 195/1/4 201/1/4
f 196/4/4 197/4/4 202/4/4
f 201/1/4 195/1/4 202/1/4
f 195/4/4 196/4/4 202/4/4
f 197/1/4 199/1/4 203/1/4
f 202/4/4 197/4/4 203/4/4
f 199/1/4 200/1/4 203/1/4
f 203/1/4 200/1/4 204/1/4
f 201/4/4 202/4/4 205/4/4
f 202/4/4 203/4/4 205/4/4
f 205/4/4 203/4/4 206/4/4
f 204/1/4 200/1/4 207/1/4
f 207/1/4 200/1/4 208/1/4
f 201/4/4 205/4/4 209/4/4
f 209/4/4 205/4/4 210/4/4
f 201/4/4 209/4/4 211/4/4
f 211/4/4 209/4/4 212/4/4
f 215/2/5 214/2/5 213/2/5
f 216/2/5 214/2/5 215/2/5
f 217/2/5 214/2/5 216/2/5
f 218/2/5 214/2/5 217/2/5
f 219/2/5 214/2/5 218/2/5
f 220/2/5 214/2/5 219/2/5
f 221/2/5 214/2/5 220/2/5
f 222/2/5 214/2/5 221/2/5
f 223/4/5 216/4/5 215/4/5
f 224/1/5 217/1/5 216/1/5
f 224/4/5 216/4/5 223/4/5
f 225/4/5 218/4/5 217/4/5
f 225/1/5 217/1/5 224/1/5
f 226/4/5 218/4/5 225/4/5
f 227/4/5 220/4/5 219/4/5
f 228/1/5 221/1/5 220/1/5
f 228/4/5 220/4/5 227/4/5
f 229/4/5 222/4/5 221/4/5
f 229/1/5 221/1/5 228/1/5
f 230/4/5 222/4/5 229/4/5
f 235/1/5 232/1/5 231/1/5
f 236/1/5 232/1/5 235/1/5
f 237/1/5 234/1/5 233/1/5
f 238/1/5 234/1/5 237/1/5
f 239/2/6 240/2/6 241/2/6
f 241/2/6 240/2/6 242/2/6
f 243/2/6 244/2/6 251/2/6
f 251/2/6 244/2/6 252/2/6
f 245/2/6 246/2/6 253/2/6
f 253/2/6 246/2/6 254/2/6
f 247/2/6 248/2/6 255/2/6
f 255/2/6 248/2/6 256/2/6
f 249/2/6 250/2/6 257/2/6
f 257/2/6 250/2/6 258/2/6
f 251/4/6 252/4/6 259/4/6
f 259/4/6 252/4/6 260/4/6
f 257/4/6 258/4/6 261/4/6
f 261/4/6 258/4/6 262/4/6
f 263/2/6 264/2/6 271/2/6
f 271/2/6 264/2/6 272/2/6
f 265/2/6 266/2/6 273/2/6
f 273/2/6 266/2/6 274/2/6
f 267/2/6 268/2/6 277/2/6
f 277/2/6 268/2/6 278/2/6
f 269/2/6 270/2/6 279/2/6
f 279/2/6 270/2/6 280/2/6
f 271/4/6 272/4/6 281/4/6
f 281/4/6 272/4/6 282/4/6
f 274/1/6 275/1/6 283/1/6
f 283/1/6 275/1/6 284/1/6
f 276/1/6 277/1/6 285/1/6
f 285/1/6 277/1/6 286/1/6
f 279/4/6 280/4/6 287/4/6
f 287/4/6 280/4/6 288/4/6
f 289/2/6 290/2/6 293/2/6
f 293/2/6 290/2/6 294/2/6
f 294/2/6 290/2/6 295/2/6
f 291/2/6 292/2/6 298/2/6
f 298/2/6 292/2/6 299/2/6
f 299/2/6 292/2/6 300/2/6
f 293/4/6 294/4/6 301/4/6
f 301/4/6 294/4/6 302/4/6
f 295/1/6 296/1/6 303/1/6
f 303/1/6 296/1/6 304/1/6
f 297/1/6 298/1/6 305/1/6
f 305/1/6 298/1/6 306/1/6
f 299/4/6 300/4/6 307/4/6
f 307/4/6 300/4/6 308/4/6
f 309/1/6 310/1/6 313/1/6
f 313/1/6 310/1/6 314/1/6
f 311/1/6 312/1/6 315/1/6
f 315/1/6 312/1/6 316/1/6
f 317/1/6 318/1/6 321/1/6
f 321/1/6 318/1/6 322/1/6
f 319/1/6 320/1/6 323/1/6
f 323/1/6 320/1/6 324/1/6
