# MagicaVoxel @ Ephtracy

# group
o 

# material
mtllib Placa.mtl
usemtl palette

# normals
vn -1 0 0
vn 1 0 0
vn 0 0 1
vn 0 0 -1
vn 0 -1 0
vn 0 1 0

# texcoords
vt 0.908203 0.5
vt 0.939453 0.5
vt 0.943359 0.5
vt 0.970703 0.5
vt 0.974609 0.5
vt 0.982422 0.5

# verts
v -0.7 2.5 0.5
v -0.7 2.5 0.4
v -0.7 2.7 0.5
v -0.7 2.7 0.4
v -0.6 2.7 0.5
v -0.6 2.7 0.4
v -0.6 2.9 0.5
v -0.6 2.9 0.4
v -0.5 2.9 0.5
v -0.5 2.9 0.4
v -0.5 3.1 0.5
v -0.5 3.1 0.4
v -0.4 3.1 0.5
v -0.4 3.1 0.4
v -0.4 3.3 0.5
v -0.4 3.3 0.4
v -0.3 3.3 0.5
v -0.3 3.3 0.4
v -0.3 3.5 0.5
v -0.3 3.5 0.4
v -0.2 0 0.4
v -0.2 0 0.3
v -0.2 0.2 0.4
v -0.2 0.2 0.3
v -0.2 0.8 0.4
v -0.2 0.8 0.3
v -0.2 1 0.4
v -0.2 1 0.3
v -0.2 1.6 0.4
v -0.2 1.6 0.3
v -0.2 1.8 0.4
v -0.2 1.8 0.3
v -0.2 2 0.4
v -0.2 2 0.3
v -0.2 2.1 0.4
v -0.2 2.1 0.3
v -0.2 2.4 0.4
v -0.2 2.4 0.3
v -0.2 2.5 0.4
v -0.2 2.5 0.3
v -0.2 3.5 0.5
v -0.2 3.5 0.4
v -0.2 3.7 0.5
v -0.2 3.7 0.4
v -0.1 0 0.5
v -0.1 0 0.4
v -0.1 0.1 0.5
v -0.1 0.1 0.4
v -0.1 0.2 0.4
v -0.1 0.2 0.3
v -0.1 0.2 0.2
v -0.1 0.4 0.3
v -0.1 0.4 0.2
v -0.1 0.6 0.5
v -0.1 0.6 0.4
v -0.1 0.8 0.5
v -0.1 0.8 0.4
v -0.1 0.8 0.3
v -0.1 1 0.4
v -0.1 1 0.3
v -0.1 1 0.2
v -0.1 1.2 0.3
v -0.1 1.2 0.2
v -0.1 1.4 0.5
v -0.1 1.4 0.4
v -0.1 1.6 0.5
v -0.1 1.6 0.4
v -0.1 1.6 0.3
v -0.1 1.8 0.4
v -0.1 1.8 0.3
v -0.1 1.8 0.2
v -0.1 2 0.4
v -0.1 2 0.3
v -0.1 2 0.2
v -0.1 2.1 0.5
v -0.1 2.1 0.4
v -0.1 2.1 0.3
v -0.1 2.2 0.5
v -0.1 2.2 0.4
v -0.1 2.3 0.3
v -0.1 2.3 0.2
v -0.1 2.4 0.4
v -0.1 2.4 0.3
v -0.1 2.4 0.2
v -0.1 2.5 0.4
v -0.1 2.5 0.3
v -0.1 3 0.4
v -0.1 3.5 0.4
v -0.1 3.7 0.5
v -0.1 3.7 0.4
v -0.1 3.9 0.5
v -0.1 3.9 0.4
v -0.1 4 0.4
v -0.1 4 0.3
v 5.96046e-08 0 0.5
v 5.96046e-08 0 0.4
v 5.96046e-08 0 0.3
v 5.96046e-08 0.1 0.5
v 5.96046e-08 0.1 0.4
v 5.96046e-08 0.2 0.3
v 5.96046e-08 0.2 0.2
v 5.96046e-08 0.4 0.4
v 5.96046e-08 0.4 0.3
v 5.96046e-08 0.4 0.2
v 5.96046e-08 0.6 0.5
v 5.96046e-08 0.6 0.4
v 5.96046e-08 0.6 0.3
v 5.96046e-08 0.8 0.5
v 5.96046e-08 0.8 0.4
v 5.96046e-08 1 0.3
v 5.96046e-08 1 0.2
v 5.96046e-08 1.2 0.4
v 5.96046e-08 1.2 0.3
v 5.96046e-08 1.2 0.2
v 5.96046e-08 1.4 0.5
v 5.96046e-08 1.4 0.4
v 5.96046e-08 1.4 0.3
v 5.96046e-08 1.6 0.5
v 5.96046e-08 1.6 0.4
v 5.96046e-08 1.8 0.3
v 5.96046e-08 1.8 0.2
v 5.96046e-08 2 0.3
v 5.96046e-08 2 0.2
v 5.96046e-08 2.1 0.5
v 5.96046e-08 2.1 0.4
v 5.96046e-08 2.2 0.5
v 5.96046e-08 2.2 0.4
v 5.96046e-08 2.2 0.3
v 5.96046e-08 2.3 0.4
v 5.96046e-08 2.3 0.3
v 5.96046e-08 2.3 0.2
v 5.96046e-08 2.4 0.3
v 5.96046e-08 2.4 0.2
v 5.96046e-08 2.5 0.4
v 5.96046e-08 3 0.4
v 5.96046e-08 3.2 0.4
v 5.96046e-08 3.3 0.4
v 5.96046e-08 3.5 0.4
v 5.96046e-08 3.7 0.5
v 5.96046e-08 3.7 0.4
v 5.96046e-08 3.9 0.5
v 5.96046e-08 3.9 0.4
v 5.96046e-08 4 0.4
v 5.96046e-08 4 0.3
v 0.1 0.4 0.4
v 0.1 0.4 0.3
v 0.1 0.6 0.4
v 0.1 0.6 0.3
v 0.1 1.2 0.4
v 0.1 1.2 0.3
v 0.1 1.4 0.4
v 0.1 1.4 0.3
v 0.1 2.2 0.4
v 0.1 2.2 0.3
v 0.1 2.3 0.4
v 0.1 2.3 0.3
v 0.1 3.5 0.5
v 0.1 3.5 0.4
v 0.1 3.7 0.5
v 0.1 3.7 0.4
v 0.2 3.3 0.5
v 0.2 3.3 0.4
v 0.2 3.5 0.5
v 0.2 3.5 0.4
v 0.3 3.1 0.5
v 0.3 3.1 0.4
v 0.3 3.3 0.5
v 0.3 3.3 0.4
v 0.4 2.9 0.5
v 0.4 2.9 0.4
v 0.4 3.1 0.5
v 0.4 3.1 0.4
v 0.5 2.7 0.5
v 0.5 2.7 0.4
v 0.5 2.9 0.5
v 0.5 2.9 0.4
v 0.6 2.5 0.5
v 0.6 2.5 0.4
v 0.6 2.7 0.5
v 0.6 2.7 0.4
v -0.7 2.5 0.5
v -0.7 2.7 0.5
v -0.6 2.7 0.5
v -0.6 2.9 0.5
v -0.5 2.6 0.5
v -0.5 2.7 0.5
v -0.5 2.9 0.5
v -0.5 3.1 0.5
v -0.4 2.6 0.5
v -0.4 2.7 0.5
v -0.4 2.8 0.5
v -0.4 3.1 0.5
v -0.4 3.3 0.5
v -0.3 2.7 0.5
v -0.3 2.8 0.5
v -0.3 3.1 0.5
v -0.3 3.3 0.5
v -0.3 3.5 0.5
v -0.2 3 0.5
v -0.2 3.1 0.5
v -0.2 3.3 0.5
v -0.2 3.5 0.5
v -0.2 3.7 0.5
v -0.1 0 0.5
v -0.1 0.1 0.5
v -0.1 0.6 0.5
v -0.1 0.8 0.5
v -0.1 1.4 0.5
v -0.1 1.6 0.5
v -0.1 2.1 0.5
v -0.1 2.2 0.5
v -0.1 2.7 0.5
v -0.1 3 0.5
v -0.1 3.1 0.5
v -0.1 3.2 0.5
v -0.1 3.7 0.5
v -0.1 3.9 0.5
v 5.96046e-08 0 0.5
v 5.96046e-08 0.1 0.5
v 5.96046e-08 0.6 0.5
v 5.96046e-08 0.8 0.5
v 5.96046e-08 1.4 0.5
v 5.96046e-08 1.6 0.5
v 5.96046e-08 2.1 0.5
v 5.96046e-08 2.2 0.5
v 5.96046e-08 2.7 0.5
v 5.96046e-08 3 0.5
v 5.96046e-08 3.1 0.5
v 5.96046e-08 3.2 0.5
v 5.96046e-08 3.3 0.5
v 5.96046e-08 3.7 0.5
v 5.96046e-08 3.9 0.5
v 0.1 2.6 0.5
v 0.1 2.7 0.5
v 0.1 3 0.5
v 0.1 3.1 0.5
v 0.1 3.2 0.5
v 0.1 3.3 0.5
v 0.1 3.5 0.5
v 0.1 3.7 0.5
v 0.2 2.6 0.5
v 0.2 2.7 0.5
v 0.2 2.8 0.5
v 0.2 3.1 0.5
v 0.2 3.3 0.5
v 0.2 3.5 0.5
v 0.3 2.7 0.5
v 0.3 2.8 0.5
v 0.3 3.1 0.5
v 0.3 3.3 0.5
v 0.4 2.9 0.5
v 0.4 3.1 0.5
v 0.5 2.7 0.5
v 0.5 2.9 0.5
v 0.6 2.5 0.5
v 0.6 2.7 0.5
v -0.2 0 0.4
v -0.2 0.2 0.4
v -0.2 0.8 0.4
v -0.2 1 0.4
v -0.2 1.6 0.4
v -0.2 1.8 0.4
v -0.2 2 0.4
v -0.2 2.1 0.4
v -0.2 2.4 0.4
v -0.2 2.5 0.4
v -0.1 0 0.4
v -0.1 0.1 0.4
v -0.1 0.2 0.4
v -0.1 0.6 0.4
v -0.1 0.8 0.4
v -0.1 1 0.4
v -0.1 1.4 0.4
v -0.1 1.6 0.4
v -0.1 1.8 0.4
v -0.1 2 0.4
v -0.1 2.1 0.4
v -0.1 2.2 0.4
v -0.1 2.4 0.4
v -0.1 2.5 0.4
v -0.1 3.9 0.4
v -0.1 4 0.4
v 5.96046e-08 0.1 0.4
v 5.96046e-08 0.4 0.4
v 5.96046e-08 0.6 0.4
v 5.96046e-08 0.8 0.4
v 5.96046e-08 1.2 0.4
v 5.96046e-08 1.4 0.4
v 5.96046e-08 1.6 0.4
v 5.96046e-08 2.1 0.4
v 5.96046e-08 2.2 0.4
v 5.96046e-08 2.3 0.4
v 5.96046e-08 2.5 0.4
v 5.96046e-08 3.9 0.4
v 5.96046e-08 4 0.4
v 0.1 0.4 0.4
v 0.1 0.6 0.4
v 0.1 1.2 0.4
v 0.1 1.4 0.4
v 0.1 2.2 0.4
v 0.1 2.3 0.4
v -0.7 2.5 0.4
v -0.7 2.7 0.4
v -0.6 2.7 0.4
v -0.6 2.9 0.4
v -0.5 2.6 0.4
v -0.5 2.7 0.4
v -0.5 2.9 0.4
v -0.5 3.1 0.4
v -0.4 2.6 0.4
v -0.4 2.7 0.4
v -0.4 2.8 0.4
v -0.4 3.1 0.4
v -0.4 3.3 0.4
v -0.3 2.7 0.4
v -0.3 2.8 0.4
v -0.3 3.1 0.4
v -0.3 3.3 0.4
v -0.3 3.5 0.4
v -0.2 2.5 0.4
v -0.2 3 0.4
v -0.2 3.1 0.4
v -0.2 3.3 0.4
v -0.2 3.5 0.4
v -0.2 3.7 0.4
v -0.1 2.5 0.4
v -0.1 3 0.4
v -0.1 3.5 0.4
v -0.1 3.7 0.4
v 5.96046e-08 2.5 0.4
v 5.96046e-08 3 0.4
v 5.96046e-08 3.2 0.4
v 5.96046e-08 3.3 0.4
v 5.96046e-08 3.5 0.4
v 5.96046e-08 3.7 0.4
v 0.1 2.6 0.4
v 0.1 2.7 0.4
v 0.1 3 0.4
v 0.1 3.1 0.4
v 0.1 3.2 0.4
v 0.1 3.3 0.4
v 0.1 3.5 0.4
v 0.1 3.7 0.4
v 0.2 2.6 0.4
v 0.2 2.7 0.4
v 0.2 2.8 0.4
v 0.2 3.1 0.4
v 0.2 3.3 0.4
v 0.2 3.5 0.4
v 0.3 2.7 0.4
v 0.3 2.8 0.4
v 0.3 3.1 0.4
v 0.3 3.3 0.4
v 0.4 2.9 0.4
v 0.4 3.1 0.4
v 0.5 2.7 0.4
v 0.5 2.9 0.4
v 0.6 2.5 0.4
v 0.6 2.7 0.4
v -0.2 0 0.3
v -0.2 0.2 0.3
v -0.2 0.8 0.3
v -0.2 1 0.3
v -0.2 1.6 0.3
v -0.2 1.8 0.3
v -0.2 2 0.3
v -0.2 2.1 0.3
v -0.2 2.4 0.3
v -0.2 2.5 0.3
v -0.1 0 0.3
v -0.1 0.2 0.3
v -0.1 0.4 0.3
v -0.1 0.8 0.3
v -0.1 1 0.3
v -0.1 1.2 0.3
v -0.1 1.6 0.3
v -0.1 1.8 0.3
v -0.1 2 0.3
v -0.1 2.1 0.3
v -0.1 2.3 0.3
v -0.1 2.4 0.3
v -0.1 2.5 0.3
v -0.1 4 0.3
v 5.96046e-08 0 0.3
v 5.96046e-08 0.2 0.3
v 5.96046e-08 0.4 0.3
v 5.96046e-08 0.6 0.3
v 5.96046e-08 1 0.3
v 5.96046e-08 1.2 0.3
v 5.96046e-08 1.4 0.3
v 5.96046e-08 1.8 0.3
v 5.96046e-08 2 0.3
v 5.96046e-08 2.2 0.3
v 5.96046e-08 2.3 0.3
v 5.96046e-08 2.4 0.3
v 5.96046e-08 4 0.3
v 0.1 0.4 0.3
v 0.1 0.6 0.3
v 0.1 1.2 0.3
v 0.1 1.4 0.3
v 0.1 2.2 0.3
v 0.1 2.3 0.3
v -0.1 0.2 0.2
v -0.1 0.4 0.2
v -0.1 1 0.2
v -0.1 1.2 0.2
v -0.1 1.8 0.2
v -0.1 2 0.2
v -0.1 2.3 0.2
v -0.1 2.4 0.2
v 5.96046e-08 0.2 0.2
v 5.96046e-08 0.4 0.2
v 5.96046e-08 1 0.2
v 5.96046e-08 1.2 0.2
v 5.96046e-08 1.8 0.2
v 5.96046e-08 2 0.2
v 5.96046e-08 2.3 0.2
v 5.96046e-08 2.4 0.2
v -0.1 0 0.5
v 5.96046e-08 0 0.5
v -0.2 0 0.4
v -0.1 0 0.4
v 5.96046e-08 0 0.4
v -0.2 0 0.3
v -0.1 0 0.3
v 5.96046e-08 0 0.3
v -0.1 0.2 0.3
v 5.96046e-08 0.2 0.3
v -0.1 0.2 0.2
v 5.96046e-08 0.2 0.2
v 5.96046e-08 0.4 0.4
v 0.1 0.4 0.4
v 5.96046e-08 0.4 0.3
v 0.1 0.4 0.3
v -0.1 0.6 0.5
v 5.96046e-08 0.6 0.5
v -0.1 0.6 0.4
v 5.96046e-08 0.6 0.4
v -0.2 0.8 0.4
v -0.1 0.8 0.4
v -0.2 0.8 0.3
v -0.1 0.8 0.3
v -0.1 1 0.3
v 5.96046e-08 1 0.3
v -0.1 1 0.2
v 5.96046e-08 1 0.2
v 5.96046e-08 1.2 0.4
v 0.1 1.2 0.4
v 5.96046e-08 1.2 0.3
v 0.1 1.2 0.3
v -0.1 1.4 0.5
v 5.96046e-08 1.4 0.5
v -0.1 1.4 0.4
v 5.96046e-08 1.4 0.4
v -0.2 1.6 0.4
v -0.1 1.6 0.4
v -0.2 1.6 0.3
v -0.1 1.6 0.3
v -0.1 1.8 0.3
v 5.96046e-08 1.8 0.3
v -0.1 1.8 0.2
v 5.96046e-08 1.8 0.2
v -0.2 2 0.4
v -0.1 2 0.4
v -0.2 2 0.3
v -0.1 2 0.3
v -0.1 2.1 0.5
v 5.96046e-08 2.1 0.5
v -0.1 2.1 0.4
v 5.96046e-08 2.1 0.4
v 5.96046e-08 2.2 0.4
v 0.1 2.2 0.4
v 5.96046e-08 2.2 0.3
v 0.1 2.2 0.3
v -0.1 2.3 0.3
v 5.96046e-08 2.3 0.3
v -0.1 2.3 0.2
v 5.96046e-08 2.3 0.2
v -0.2 2.4 0.4
v -0.1 2.4 0.4
v -0.2 2.4 0.3
v -0.1 2.4 0.3
v -0.7 2.5 0.5
v 0.6 2.5 0.5
v -0.7 2.5 0.4
v -0.2 2.5 0.4
v -0.1 2.5 0.4
v 5.96046e-08 2.5 0.4
v 0.6 2.5 0.4
v -0.1 0.1 0.5
v 5.96046e-08 0.1 0.5
v -0.1 0.1 0.4
v 5.96046e-08 0.1 0.4
v -0.2 0.2 0.4
v -0.1 0.2 0.4
v -0.2 0.2 0.3
v -0.1 0.2 0.3
v -0.1 0.4 0.3
v 5.96046e-08 0.4 0.3
v -0.1 0.4 0.2
v 5.96046e-08 0.4 0.2
v 5.96046e-08 0.6 0.4
v 0.1 0.6 0.4
v 5.96046e-08 0.6 0.3
v 0.1 0.6 0.3
v -0.1 0.8 0.5
v 5.96046e-08 0.8 0.5
v -0.1 0.8 0.4
v 5.96046e-08 0.8 0.4
v -0.2 1 0.4
v -0.1 1 0.4
v -0.2 1 0.3
v -0.1 1 0.3
v -0.1 1.2 0.3
v 5.96046e-08 1.2 0.3
v -0.1 1.2 0.2
v 5.96046e-08 1.2 0.2
v 5.96046e-08 1.4 0.4
v 0.1 1.4 0.4
v 5.96046e-08 1.4 0.3
v 0.1 1.4 0.3
v -0.1 1.6 0.5
v 5.96046e-08 1.6 0.5
v -0.1 1.6 0.4
v 5.96046e-08 1.6 0.4
v -0.2 1.8 0.4
v -0.1 1.8 0.4
v -0.2 1.8 0.3
v -0.1 1.8 0.3
v -0.1 2 0.3
v 5.96046e-08 2 0.3
v -0.1 2 0.2
v 5.96046e-08 2 0.2
v -0.2 2.1 0.4
v -0.1 2.1 0.4
v -0.2 2.1 0.3
v -0.1 2.1 0.3
v -0.1 2.2 0.5
v 5.96046e-08 2.2 0.5
v -0.1 2.2 0.4
v 5.96046e-08 2.2 0.4
v 5.96046e-08 2.3 0.4
v 0.1 2.3 0.4
v 5.96046e-08 2.3 0.3
v 0.1 2.3 0.3
v -0.1 2.4 0.3
v 5.96046e-08 2.4 0.3
v -0.1 2.4 0.2
v 5.96046e-08 2.4 0.2
v -0.2 2.5 0.4
v -0.1 2.5 0.4
v -0.2 2.5 0.3
v -0.1 2.5 0.3
v -0.7 2.7 0.5
v -0.6 2.7 0.5
v 0.5 2.7 0.5
v 0.6 2.7 0.5
v -0.7 2.7 0.4
v -0.6 2.7 0.4
v 0.5 2.7 0.4
v 0.6 2.7 0.4
v -0.6 2.9 0.5
v -0.5 2.9 0.5
v 0.4 2.9 0.5
v 0.5 2.9 0.5
v -0.6 2.9 0.4
v -0.5 2.9 0.4
v 0.4 2.9 0.4
v 0.5 2.9 0.4
v -0.5 3.1 0.5
v -0.4 3.1 0.5
v 0.3 3.1 0.5
v 0.4 3.1 0.5
v -0.5 3.1 0.4
v -0.4 3.1 0.4
v 0.3 3.1 0.4
v 0.4 3.1 0.4
v -0.4 3.3 0.5
v -0.3 3.3 0.5
v 0.2 3.3 0.5
v 0.3 3.3 0.5
v -0.4 3.3 0.4
v -0.3 3.3 0.4
v 0.2 3.3 0.4
v 0.3 3.3 0.4
v -0.3 3.5 0.5
v -0.2 3.5 0.5
v 0.1 3.5 0.5
v 0.2 3.5 0.5
v -0.3 3.5 0.4
v -0.2 3.5 0.4
v 0.1 3.5 0.4
v 0.2 3.5 0.4
v -0.2 3.7 0.5
v -0.1 3.7 0.5
v 5.96046e-08 3.7 0.5
v 0.1 3.7 0.5
v -0.2 3.7 0.4
v -0.1 3.7 0.4
v 5.96046e-08 3.7 0.4
v 0.1 3.7 0.4
v -0.1 3.9 0.5
v 5.96046e-08 3.9 0.5
v -0.1 3.9 0.4
v 5.96046e-08 3.9 0.4
v -0.1 4 0.4
v 5.96046e-08 4 0.4
v -0.1 4 0.3
v 5.96046e-08 4 0.3

# faces
f 3/2/1 2/2/1 1/2/1
f 4/2/1 2/2/1 3/2/1
f 7/2/1 6/2/1 5/2/1
f 8/2/1 6/2/1 7/2/1
f 11/2/1 10/2/1 9/2/1
f 12/2/1 10/2/1 11/2/1
f 15/2/1 14/2/1 13/2/1
f 16/2/1 14/2/1 15/2/1
f 19/2/1 18/2/1 17/2/1
f 20/2/1 18/2/1 19/2/1
f 23/6/1 22/6/1 21/6/1
f 24/6/1 22/6/1 23/6/1
f 27/6/1 26/6/1 25/6/1
f 28/6/1 26/6/1 27/6/1
f 31/6/1 30/6/1 29/6/1
f 32/6/1 30/6/1 31/6/1
f 35/6/1 34/6/1 33/6/1
f 36/6/1 34/6/1 35/6/1
f 39/6/1 38/6/1 37/6/1
f 40/6/1 38/6/1 39/6/1
f 43/2/1 42/2/1 41/2/1
f 44/2/1 42/2/1 43/2/1
f 47/6/1 46/6/1 45/6/1
f 48/6/1 46/6/1 47/6/1
f 52/4/1 50/4/1 49/4/1
f 52/6/1 51/6/1 50/6/1
f 53/6/1 51/6/1 52/6/1
f 55/4/1 52/4/1 49/4/1
f 56/6/1 55/6/1 54/6/1
f 57/4/1 52/4/1 55/4/1
f 57/6/1 55/6/1 56/6/1
f 58/4/1 52/4/1 57/4/1
f 62/4/1 60/4/1 59/4/1
f 62/6/1 61/6/1 60/6/1
f 63/6/1 61/6/1 62/6/1
f 65/4/1 62/4/1 59/4/1
f 66/6/1 65/6/1 64/6/1
f 67/4/1 62/4/1 65/4/1
f 67/6/1 65/6/1 66/6/1
f 68/4/1 62/4/1 67/4/1
f 72/4/1 70/4/1 69/4/1
f 73/6/1 71/6/1 70/6/1
f 73/4/1 70/4/1 72/4/1
f 74/6/1 71/6/1 73/6/1
f 78/6/1 76/6/1 75/6/1
f 79/4/1 77/4/1 76/4/1
f 79/6/1 76/6/1 78/6/1
f 80/4/1 77/4/1 79/4/1
f 82/4/1 80/4/1 79/4/1
f 83/6/1 81/6/1 80/6/1
f 83/4/1 80/4/1 82/4/1
f 84/6/1 81/6/1 83/6/1
f 87/4/1 86/4/1 85/4/1
f 88/4/1 86/4/1 87/4/1
f 90/4/1 86/4/1 88/4/1
f 91/2/1 90/2/1 89/2/1
f 92/4/1 86/4/1 90/4/1
f 92/2/1 90/2/1 91/2/1
f 93/4/1 86/4/1 92/4/1
f 94/4/1 86/4/1 93/4/1
f 95/6/2 96/6/2 98/6/2
f 96/4/2 97/4/2 99/4/2
f 98/6/2 96/6/2 99/6/2
f 99/4/2 97/4/2 100/4/2
f 99/4/2 100/4/2 102/4/2
f 100/6/2 101/6/2 103/6/2
f 102/4/2 100/4/2 103/4/2
f 103/6/2 101/6/2 104/6/2
f 105/6/2 106/6/2 108/6/2
f 106/4/2 107/4/2 109/4/2
f 108/6/2 106/6/2 109/6/2
f 109/4/2 107/4/2 110/4/2
f 109/4/2 110/4/2 112/4/2
f 110/6/2 111/6/2 113/6/2
f 112/4/2 110/4/2 113/4/2
f 113/6/2 111/6/2 114/6/2
f 115/6/2 116/6/2 118/6/2
f 116/4/2 117/4/2 119/4/2
f 118/6/2 116/6/2 119/6/2
f 119/4/2 117/4/2 120/4/2
f 119/4/2 120/4/2 122/4/2
f 120/6/2 121/6/2 122/6/2
f 122/6/2 121/6/2 123/6/2
f 119/4/2 122/4/2 125/4/2
f 124/6/2 125/6/2 126/6/2
f 125/4/2 122/4/2 127/4/2
f 126/6/2 125/6/2 127/6/2
f 127/4/2 122/4/2 128/4/2
f 129/4/2 130/4/2 132/4/2
f 130/6/2 131/6/2 132/6/2
f 132/6/2 131/6/2 133/6/2
f 129/4/2 132/4/2 134/4/2
f 134/4/2 132/4/2 135/4/2
f 135/4/2 132/4/2 136/4/2
f 136/4/2 132/4/2 137/4/2
f 137/4/2 132/4/2 138/4/2
f 138/4/2 132/4/2 140/4/2
f 139/2/2 140/2/2 141/2/2
f 140/4/2 132/4/2 142/4/2
f 141/2/2 140/2/2 142/2/2
f 142/4/2 132/4/2 143/4/2
f 143/4/2 132/4/2 144/4/2
f 145/6/2 146/6/2 147/6/2
f 147/6/2 146/6/2 148/6/2
f 149/6/2 150/6/2 151/6/2
f 151/6/2 150/6/2 152/6/2
f 153/6/2 154/6/2 155/6/2
f 155/6/2 154/6/2 156/6/2
f 157/2/2 158/2/2 159/2/2
f 159/2/2 158/2/2 160/2/2
f 161/2/2 162/2/2 163/2/2
f 163/2/2 162/2/2 164/2/2
f 165/2/2 166/2/2 167/2/2
f 167/2/2 166/2/2 168/2/2
f 169/2/2 170/2/2 171/2/2
f 171/2/2 170/2/2 172/2/2
f 173/2/2 174/2/2 175/2/2
f 175/2/2 174/2/2 176/2/2
f 177/2/2 178/2/2 179/2/2
f 179/2/2 178/2/2 180/2/2
f 183/2/3 182/2/3 181/2/3
f 185/2/3 183/2/3 181/2/3
f 185/2/3 184/2/3 183/2/3
f 186/2/3 184/2/3 185/2/3
f 187/2/3 184/2/3 186/2/3
f 189/2/3 185/2/3 181/2/3
f 189/1/3 186/1/3 185/1/3
f 190/2/3 188/2/3 187/2/3
f 190/1/3 186/1/3 189/1/3
f 190/2/3 187/2/3 186/2/3
f 191/2/3 188/2/3 190/2/3
f 192/2/3 188/2/3 191/2/3
f 194/2/3 190/2/3 189/2/3
f 194/1/3 191/1/3 190/1/3
f 195/2/3 193/2/3 192/2/3
f 195/1/3 191/1/3 194/1/3
f 195/2/3 192/2/3 191/2/3
f 196/2/3 193/2/3 195/2/3
f 197/2/3 193/2/3 196/2/3
f 199/2/3 195/2/3 194/2/3
f 199/2/3 196/2/3 195/2/3
f 200/5/3 197/5/3 196/5/3
f 200/2/3 196/2/3 199/2/3
f 201/2/3 198/2/3 197/2/3
f 201/5/3 197/5/3 200/5/3
f 202/2/3 198/2/3 201/2/3
f 212/2/3 194/2/3 189/2/3
f 212/2/3 199/2/3 194/2/3
f 213/5/3 200/5/3 199/5/3
f 213/2/3 199/2/3 212/2/3
f 213/5/3 201/5/3 200/5/3
f 213/5/3 202/5/3 201/5/3
f 214/5/3 202/5/3 213/5/3
f 215/5/3 202/5/3 214/5/3
f 216/2/3 203/2/3 202/2/3
f 218/6/3 205/6/3 204/6/3
f 219/6/3 205/6/3 218/6/3
f 220/6/3 207/6/3 206/6/3
f 221/6/3 207/6/3 220/6/3
f 222/6/3 209/6/3 208/6/3
f 223/6/3 209/6/3 222/6/3
f 224/6/3 211/6/3 210/6/3
f 225/6/3 211/6/3 224/6/3
f 226/2/3 212/2/3 189/2/3
f 226/3/3 213/3/3 212/3/3
f 227/5/3 214/5/3 213/5/3
f 227/3/3 213/3/3 226/3/3
f 228/6/3 215/6/3 214/6/3
f 228/5/3 214/5/3 227/5/3
f 229/5/3 202/5/3 215/5/3
f 229/6/3 215/6/3 228/6/3
f 230/5/3 202/5/3 229/5/3
f 231/2/3 217/2/3 216/2/3
f 231/2/3 216/2/3 202/2/3
f 232/2/3 217/2/3 231/2/3
f 233/2/3 189/2/3 181/2/3
f 233/2/3 226/2/3 189/2/3
f 233/2/3 227/2/3 226/2/3
f 234/2/3 227/2/3 233/2/3
f 235/5/3 229/5/3 228/5/3
f 235/2/3 227/2/3 234/2/3
f 235/5/3 228/5/3 227/5/3
f 236/5/3 229/5/3 235/5/3
f 237/6/3 230/6/3 229/6/3
f 237/5/3 229/5/3 236/5/3
f 238/5/3 202/5/3 230/5/3
f 238/6/3 230/6/3 237/6/3
f 239/2/3 231/2/3 202/2/3
f 239/5/3 202/5/3 238/5/3
f 240/2/3 231/2/3 239/2/3
f 241/1/3 234/1/3 233/1/3
f 241/2/3 233/2/3 181/2/3
f 242/2/3 236/2/3 235/2/3
f 242/1/3 234/1/3 241/1/3
f 242/2/3 235/2/3 234/2/3
f 243/2/3 236/2/3 242/2/3
f 244/5/3 238/5/3 237/5/3
f 244/2/3 236/2/3 243/2/3
f 244/5/3 237/5/3 236/5/3
f 245/2/3 239/2/3 238/2/3
f 245/5/3 238/5/3 244/5/3
f 246/2/3 239/2/3 245/2/3
f 247/1/3 243/1/3 242/1/3
f 247/2/3 242/2/3 241/2/3
f 248/2/3 245/2/3 244/2/3
f 248/1/3 243/1/3 247/1/3
f 248/2/3 244/2/3 243/2/3
f 249/2/3 245/2/3 248/2/3
f 250/2/3 245/2/3 249/2/3
f 251/2/3 248/2/3 247/2/3
f 251/2/3 249/2/3 248/2/3
f 252/2/3 249/2/3 251/2/3
f 253/2/3 247/2/3 241/2/3
f 253/2/3 251/2/3 247/2/3
f 254/2/3 251/2/3 253/2/3
f 255/2/3 241/2/3 181/2/3
f 255/2/3 253/2/3 241/2/3
f 256/2/3 253/2/3 255/2/3
f 267/6/3 258/6/3 257/6/3
f 268/6/3 258/6/3 267/6/3
f 269/6/3 258/6/3 268/6/3
f 271/6/3 260/6/3 259/6/3
f 272/6/3 260/6/3 271/6/3
f 274/6/3 262/6/3 261/6/3
f 275/6/3 262/6/3 274/6/3
f 276/6/3 264/6/3 263/6/3
f 277/6/3 264/6/3 276/6/3
f 279/6/3 266/6/3 265/6/3
f 280/6/3 266/6/3 279/6/3
f 283/4/3 270/4/3 269/4/3
f 283/4/3 269/4/3 268/4/3
f 284/4/3 270/4/3 283/4/3
f 285/4/3 270/4/3 284/4/3
f 286/4/3 273/4/3 272/4/3
f 286/4/3 272/4/3 271/4/3
f 287/4/3 273/4/3 286/4/3
f 288/4/3 273/4/3 287/4/3
f 289/4/3 277/4/3 276/4/3
f 289/4/3 275/4/3 274/4/3
f 289/4/3 276/4/3 275/4/3
f 290/4/3 277/4/3 289/4/3
f 291/4/3 280/4/3 279/4/3
f 291/4/3 279/4/3 278/4/3
f 292/4/3 280/4/3 291/4/3
f 293/4/3 280/4/3 292/4/3
f 294/4/3 282/4/3 281/4/3
f 295/4/3 282/4/3 294/4/3
f 296/6/3 285/6/3 284/6/3
f 297/6/3 285/6/3 296/6/3
f 298/6/3 288/6/3 287/6/3
f 299/6/3 288/6/3 298/6/3
f 300/6/3 292/6/3 291/6/3
f 301/6/3 292/6/3 300/6/3
f 302/2/4 303/2/4 304/2/4
f 302/2/4 304/2/4 306/2/4
f 304/2/4 305/2/4 306/2/4
f 306/2/4 305/2/4 307/2/4
f 307/2/4 305/2/4 308/2/4
f 302/2/4 306/2/4 310/2/4
f 306/1/4 307/1/4 310/1/4
f 308/2/4 309/2/4 311/2/4
f 310/1/4 307/1/4 311/1/4
f 307/2/4 308/2/4 311/2/4
f 311/2/4 309/2/4 312/2/4
f 312/2/4 309/2/4 313/2/4
f 310/2/4 311/2/4 315/2/4
f 311/1/4 312/1/4 315/1/4
f 313/2/4 314/2/4 316/2/4
f 315/1/4 312/1/4 316/1/4
f 312/2/4 313/2/4 316/2/4
f 316/2/4 314/2/4 317/2/4
f 317/2/4 314/2/4 318/2/4
f 302/2/4 310/2/4 320/2/4
f 310/2/4 315/2/4 320/2/4
f 315/2/4 316/2/4 320/2/4
f 316/2/4 317/2/4 320/2/4
f 320/2/4 317/2/4 321/2/4
f 317/5/4 318/5/4 322/5/4
f 321/2/4 317/2/4 322/2/4
f 318/2/4 319/2/4 323/2/4
f 322/5/4 318/5/4 323/5/4
f 323/2/4 319/2/4 324/2/4
f 320/2/4 321/2/4 326/2/4
f 321/5/4 322/5/4 327/5/4
f 326/2/4 321/2/4 327/2/4
f 322/5/4 323/5/4 327/5/4
f 323/5/4 324/5/4 327/5/4
f 324/2/4 325/2/4 328/2/4
f 327/5/4 324/5/4 328/5/4
f 328/2/4 325/2/4 329/2/4
f 330/2/4 331/2/4 336/2/4
f 336/2/4 331/2/4 337/2/4
f 331/5/4 332/5/4 338/5/4
f 337/2/4 331/2/4 338/2/4
f 338/5/4 332/5/4 339/5/4
f 332/6/4 333/6/4 340/6/4
f 339/5/4 332/5/4 340/5/4
f 333/5/4 334/5/4 341/5/4
f 340/6/4 333/6/4 341/6/4
f 334/2/4 335/2/4 342/2/4
f 341/5/4 334/5/4 342/5/4
f 342/2/4 335/2/4 343/2/4
f 336/1/4 337/1/4 344/1/4
f 330/2/4 336/2/4 344/2/4
f 338/2/4 339/2/4 345/2/4
f 344/1/4 337/1/4 345/1/4
f 337/2/4 338/2/4 345/2/4
f 345/2/4 339/2/4 346/2/4
f 340/5/4 341/5/4 347/5/4
f 346/2/4 339/2/4 347/2/4
f 339/5/4 340/5/4 347/5/4
f 341/2/4 342/2/4 348/2/4
f 347/5/4 341/5/4 348/5/4
f 348/2/4 342/2/4 349/2/4
f 345/1/4 346/1/4 350/1/4
f 344/2/4 345/2/4 350/2/4
f 347/2/4 348/2/4 351/2/4
f 350/1/4 346/1/4 351/1/4
f 346/2/4 347/2/4 351/2/4
f 351/2/4 348/2/4 352/2/4
f 352/2/4 348/2/4 353/2/4
f 350/2/4 351/2/4 354/2/4
f 351/2/4 352/2/4 354/2/4
f 354/2/4 352/2/4 355/2/4
f 344/2/4 350/2/4 356/2/4
f 350/2/4 354/2/4 356/2/4
f 356/2/4 354/2/4 357/2/4
f 330/2/4 344/2/4 358/2/4
f 344/2/4 356/2/4 358/2/4
f 358/2/4 356/2/4 359/2/4
f 360/6/4 361/6/4 370/6/4
f 370/6/4 361/6/4 371/6/4
f 362/6/4 363/6/4 373/6/4
f 373/6/4 363/6/4 374/6/4
f 364/6/4 365/6/4 376/6/4
f 376/6/4 365/6/4 377/6/4
f 366/6/4 367/6/4 378/6/4
f 378/6/4 367/6/4 379/6/4
f 368/6/4 369/6/4 381/6/4
f 381/6/4 369/6/4 382/6/4
f 370/4/4 371/4/4 384/4/4
f 384/4/4 371/4/4 385/4/4
f 373/4/4 374/4/4 386/4/4
f 372/4/4 373/4/4 386/4/4
f 386/4/4 374/4/4 387/4/4
f 387/4/4 374/4/4 388/4/4
f 376/4/4 377/4/4 389/4/4
f 375/4/4 376/4/4 389/4/4
f 389/4/4 377/4/4 390/4/4
f 390/4/4 377/4/4 391/4/4
f 379/4/4 380/4/4 392/4/4
f 378/4/4 379/4/4 392/4/4
f 392/4/4 380/4/4 393/4/4
f 393/4/4 380/4/4 394/4/4
f 382/4/4 383/4/4 395/4/4
f 381/4/4 382/4/4 395/4/4
f 395/4/4 383/4/4 396/4/4
f 386/6/4 387/6/4 397/6/4
f 397/6/4 387/6/4 398/6/4
f 389/6/4 390/6/4 399/6/4
f 399/6/4 390/6/4 400/6/4
f 393/6/4 394/6/4 401/6/4
f 401/6/4 394/6/4 402/6/4
f 403/6/4 404/6/4 411/6/4
f 411/6/4 404/6/4 412/6/4
f 405/6/4 406/6/4 413/6/4
f 413/6/4 406/6/4 414/6/4
f 407/6/4 408/6/4 415/6/4
f 415/6/4 408/6/4 416/6/4
f 409/6/4 410/6/4 417/6/4
f 417/6/4 410/6/4 418/6/4
f 422/6/5 420/6/5 419/6/5
f 423/6/5 420/6/5 422/6/5
f 424/6/5 422/6/5 421/6/5
f 425/4/5 423/4/5 422/4/5
f 425/6/5 422/6/5 424/6/5
f 426/4/5 423/4/5 425/4/5
f 429/6/5 428/6/5 427/6/5
f 430/6/5 428/6/5 429/6/5
f 433/6/5 432/6/5 431/6/5
f 434/6/5 432/6/5 433/6/5
f 437/6/5 436/6/5 435/6/5
f 438/6/5 436/6/5 437/6/5
f 441/6/5 440/6/5 439/6/5
f 442/6/5 440/6/5 441/6/5
f 445/6/5 444/6/5 443/6/5
f 446/6/5 444/6/5 445/6/5
f 449/6/5 448/6/5 447/6/5
f 450/6/5 448/6/5 449/6/5
f 453/6/5 452/6/5 451/6/5
f 454/6/5 452/6/5 453/6/5
f 457/6/5 456/6/5 455/6/5
f 458/6/5 456/6/5 457/6/5
f 461/6/5 460/6/5 459/6/5
f 462/6/5 460/6/5 461/6/5
f 465/6/5 464/6/5 463/6/5
f 466/6/5 464/6/5 465/6/5
f 469/6/5 468/6/5 467/6/5
f 470/6/5 468/6/5 469/6/5
f 473/6/5 472/6/5 471/6/5
f 474/6/5 472/6/5 473/6/5
f 477/6/5 476/6/5 475/6/5
f 478/6/5 476/6/5 477/6/5
f 481/6/5 480/6/5 479/6/5
f 482/6/5 480/6/5 481/6/5
f 485/2/5 484/2/5 483/2/5
f 486/2/5 484/2/5 485/2/5
f 487/2/5 484/2/5 486/2/5
f 488/2/5 484/2/5 487/2/5
f 489/2/5 484/2/5 488/2/5
f 490/6/6 491/6/6 492/6/6
f 492/6/6 491/6/6 493/6/6
f 494/6/6 495/6/6 496/6/6
f 496/6/6 495/6/6 497/6/6
f 498/6/6 499/6/6 500/6/6
f 500/6/6 499/6/6 501/6/6
f 502/6/6 503/6/6 504/6/6
f 504/6/6 503/6/6 505/6/6
f 506/6/6 507/6/6 508/6/6
f 508/6/6 507/6/6 509/6/6
f 510/6/6 511/6/6 512/6/6
f 512/6/6 511/6/6 513/6/6
f 514/6/6 515/6/6 516/6/6
f 516/6/6 515/6/6 517/6/6
f 518/6/6 519/6/6 520/6/6
f 520/6/6 519/6/6 521/6/6
f 522/6/6 523/6/6 524/6/6
f 524/6/6 523/6/6 525/6/6
f 526/6/6 527/6/6 528/6/6
f 528/6/6 527/6/6 529/6/6
f 530/6/6 531/6/6 532/6/6
f 532/6/6 531/6/6 533/6/6
f 534/6/6 535/6/6 536/6/6
f 536/6/6 535/6/6 537/6/6
f 538/6/6 539/6/6 540/6/6
f 540/6/6 539/6/6 541/6/6
f 542/6/6 543/6/6 544/6/6
f 544/6/6 543/6/6 545/6/6
f 546/6/6 547/6/6 548/6/6
f 548/6/6 547/6/6 549/6/6
f 550/6/6 551/6/6 552/6/6
f 552/6/6 551/6/6 553/6/6
f 554/2/6 555/2/6 558/2/6
f 558/2/6 555/2/6 559/2/6
f 556/2/6 557/2/6 560/2/6
f 560/2/6 557/2/6 561/2/6
f 562/2/6 563/2/6 566/2/6
f 566/2/6 563/2/6 567/2/6
f 564/2/6 565/2/6 568/2/6
f 568/2/6 565/2/6 569/2/6
f 570/2/6 571/2/6 574/2/6
f 574/2/6 571/2/6 575/2/6
f 572/2/6 573/2/6 576/2/6
f 576/2/6 573/2/6 577/2/6
f 578/2/6 579/2/6 582/2/6
f 582/2/6 579/2/6 583/2/6
f 580/2/6 581/2/6 584/2/6
f 584/2/6 581/2/6 585/2/6
f 586/2/6 587/2/6 590/2/6
f 590/2/6 587/2/6 591/2/6
f 588/2/6 589/2/6 592/2/6
f 592/2/6 589/2/6 593/2/6
f 594/2/6 595/2/6 598/2/6
f 598/2/6 595/2/6 599/2/6
f 596/2/6 597/2/6 600/2/6
f 600/2/6 597/2/6 601/2/6
f 602/2/6 603/2/6 604/2/6
f 604/2/6 603/2/6 605/2/6
f 606/4/6 607/4/6 608/4/6
f 608/4/6 607/4/6 609/4/6
