# MagicaVoxel @ Ephtracy

# group
o 

# material
mtllib SM_Spitter-1.mtl
usemtl palette

# normals
vn -1 0 0
vn 1 0 0
vn 0 0 1
vn 0 0 -1
vn 0 -1 0
vn 0 1 0

# texcoords
vt 0.970703 0.5
vt 0.974609 0.5
vt 0.978516 0.5

# verts
v -1.1 0 -5.96046e-08
v -1.1 0 -0.1
v -1.1 0.1 -5.96046e-08
v -1.1 0.1 -0.1
v -1 0 0.0999999
v -1 0 -5.96046e-08
v -1 0 -0.1
v -1 0 -0.2
v -1 0.1 0.0999999
v -1 0.1 -5.96046e-08
v -1 0.1 -0.1
v -1 0.1 -0.2
v -0.9 0 0.2
v -0.9 0 0.0999999
v -0.9 0 -0.2
v -0.9 0 -0.3
v -0.9 0.1 0.2
v -0.9 0.1 0.0999999
v -0.9 0.1 -0.2
v -0.9 0.1 -0.3
v -0.6 0.6 0.0999999
v -0.6 0.6 -0.2
v -0.6 0.8 0.0999999
v -0.6 0.8 -0.2
v -0.5 0.3 0.0999999
v -0.5 0.3 -0.2
v -0.5 0.6 0.2
v -0.5 0.6 0.0999999
v -0.5 0.6 -0.2
v -0.5 0.6 -0.3
v -0.5 0.8 0.2
v -0.5 0.8 0.0999999
v -0.5 0.8 -0.2
v -0.5 0.8 -0.3
v -0.5 1.1 0.0999999
v -0.5 1.1 -0.2
v -0.4 0.1 0.0999999
v -0.4 0.1 -0.2
v -0.4 0.3 0.2
v -0.4 0.3 0.0999999
v -0.4 0.3 -0.2
v -0.4 0.3 -0.3
v -0.4 0.6 0.2
v -0.4 0.6 0.0999999
v -0.4 0.6 -0.2
v -0.4 0.6 -0.3
v -0.4 0.8 0.2
v -0.4 0.8 0.0999999
v -0.4 0.8 -0.2
v -0.4 0.8 -0.3
v -0.4 1.1 0.2
v -0.4 1.1 0.0999999
v -0.4 1.1 -0.2
v -0.4 1.1 -0.3
v -0.4 1.4 0.0999999
v -0.4 1.4 -0.2
v -0.3 0 0.2
v -0.3 0 0.0999999
v -0.3 0 -0.2
v -0.3 0 -0.3
v -0.3 0.3 0.2
v -0.3 0.3 0.0999999
v -0.3 0.3 -0.2
v -0.3 0.3 -0.3
v -0.3 1.1 0.2
v -0.3 1.1 0.0999999
v -0.3 1.1 -0.2
v -0.3 1.1 -0.3
v -0.3 1.4 0.2
v -0.3 1.4 0.0999999
v -0.3 1.4 -0.2
v -0.3 1.4 -0.3
v -0.3 1.7 0.0999999
v -0.3 1.7 -0.2
v -0.2 1.4 0.2
v -0.2 1.4 0.0999999
v -0.2 1.4 -0.2
v -0.2 1.4 -0.3
v -0.2 1.7 0.2
v -0.2 1.7 0.0999999
v -0.2 1.7 -0.2
v -0.2 1.7 -0.3
v -0.1 0 0.3
v -0.1 0 0.2
v -0.1 0 -0.3
v -0.1 0 -0.4
v -0.1 0.1 0.3
v -0.1 0.1 0.2
v -0.1 0.1 -0.3
v -0.1 0.1 -0.4
v 0 0 0.5
v 0 0 0.3
v 0 0 -0.4
v 0 0 -0.6
v 0 0.1 0.5
v 0 0.1 0.3
v 0 0.1 -0.4
v 0 0.1 -0.6
v 0.1 0 -0.6
v 0.1 0 -0.7
v 0.1 0.1 -0.6
v 0.1 0.1 -0.7
v 0.2 0 0.6
v 0.2 0 0.5
v 0.2 0.1 0.6
v 0.2 0.1 0.5
v -0.5 0 0.2
v -0.5 0 0.0999999
v -0.5 0 -0.2
v -0.5 0 -0.3
v -0.5 0.1 0.2
v -0.5 0.1 0.0999999
v -0.5 0.1 -0.2
v -0.5 0.1 -0.3
v -0.2 0.6 0.2
v -0.2 0.6 0.0999999
v -0.2 0.6 -0.2
v -0.2 0.6 -0.3
v -0.2 0.8 0.2
v -0.2 0.8 0.0999999
v -0.2 0.8 -0.2
v -0.2 0.8 -0.3
v -0.1 0.3 0.2
v -0.1 0.3 0.0999999
v -0.1 0.3 -0.2
v -0.1 0.3 -0.3
v -0.1 0.6 0.2
v -0.1 0.6 0.0999999
v -0.1 0.6 -0.2
v -0.1 0.6 -0.3
v -0.1 0.8 0.2
v -0.1 0.8 0.0999999
v -0.1 0.8 -0.2
v -0.1 0.8 -0.3
v -0.1 1.1 0.2
v -0.1 1.1 0.0999999
v -0.1 1.1 -0.2
v -0.1 1.1 -0.3
v 0 0.1 0.2
v 0 0.1 0.0999999
v 0 0.1 -0.2
v 0 0.1 -0.3
v 0 0.3 0.2
v 0 0.3 0.0999999
v 0 0.3 -0.2
v 0 0.3 -0.3
v 0 0.6 0.0999999
v 0 0.6 -0.2
v 0 0.8 0.0999999
v 0 0.8 -0.2
v 0 1.1 0.2
v 0 1.1 0.0999999
v 0 1.1 -0.2
v 0 1.1 -0.3
v 0 1.4 0.2
v 0 1.4 0.0999999
v 0 1.4 -0.2
v 0 1.4 -0.3
v 0.1 0 0.0999999
v 0.1 0 -0.2
v 0.1 0.1 0.0999999
v 0.1 0.1 -0.2
v 0.1 0.3 0.0999999
v 0.1 0.3 -0.2
v 0.1 1.1 0.0999999
v 0.1 1.1 -0.2
v 0.1 1.4 0.2
v 0.1 1.4 0.0999999
v 0.1 1.4 -0.2
v 0.1 1.4 -0.3
v 0.1 1.7 0.2
v 0.1 1.7 0.0999999
v 0.1 1.7 -0.2
v 0.1 1.7 -0.3
v 0.2 0 -0.2
v 0.2 0 -0.3
v 0.2 0.1 -0.2
v 0.2 0.1 -0.3
v 0.2 1.4 0.0999999
v 0.2 1.4 -0.2
v 0.2 1.7 0.0999999
v 0.2 1.7 -0.2
v 0.3 0 0.2
v 0.3 0 0.0999999
v 0.3 0 -0.3
v 0.3 0 -0.4
v 0.3 0.1 0.2
v 0.3 0.1 0.0999999
v 0.3 0.1 -0.3
v 0.3 0.1 -0.4
v 0.4 0 0.3
v 0.4 0 0.2
v 0.4 0 -0.4
v 0.4 0 -0.7
v 0.4 0.1 0.3
v 0.4 0.1 0.2
v 0.4 0.1 -0.4
v 0.4 0.1 -0.7
v 0.5 0 0.6
v 0.5 0 0.3
v 0.5 0.1 0.6
v 0.5 0.1 0.3
v 0.2 0 0.6
v 0.2 0.1 0.6
v 0.5 0 0.6
v 0.5 0.1 0.6
v 0 0 0.5
v 0 0.1 0.5
v 0.2 0 0.5
v 0.2 0.1 0.5
v -0.1 0 0.3
v -0.1 0.1 0.3
v 0 0 0.3
v 0 0.1 0.3
v -0.9 0 0.2
v -0.9 0.1 0.2
v -0.5 0 0.2
v -0.5 0.1 0.2
v -0.5 0.6 0.2
v -0.5 0.8 0.2
v -0.4 0.3 0.2
v -0.4 0.6 0.2
v -0.4 0.8 0.2
v -0.4 1.1 0.2
v -0.3 0 0.2
v -0.3 0.3 0.2
v -0.3 1.1 0.2
v -0.3 1.4 0.2
v -0.2 0.6 0.2
v -0.2 0.8 0.2
v -0.2 1.4 0.2
v -0.2 1.7 0.2
v -0.1 0 0.2
v -0.1 0.1 0.2
v -0.1 0.3 0.2
v -0.1 0.6 0.2
v -0.1 0.8 0.2
v -0.1 1.1 0.2
v 0 0.1 0.2
v 0 0.3 0.2
v 0 1.1 0.2
v 0 1.4 0.2
v 0.1 1.4 0.2
v 0.1 1.7 0.2
v -1 0 0.0999999
v -1 0.1 0.0999999
v -0.9 0 0.0999999
v -0.9 0.1 0.0999999
v -0.6 0.6 0.0999999
v -0.6 0.8 0.0999999
v -0.5 0 0.0999999
v -0.5 0.1 0.0999999
v -0.5 0.3 0.0999999
v -0.5 0.6 0.0999999
v -0.5 0.8 0.0999999
v -0.5 1.1 0.0999999
v -0.4 0 0.0999999
v -0.4 0.1 0.0999999
v -0.4 0.3 0.0999999
v -0.4 0.6 0.0999999
v -0.4 0.8 0.0999999
v -0.4 1.1 0.0999999
v -0.4 1.4 0.0999999
v -0.3 0 0.0999999
v -0.3 0.3 0.0999999
v -0.3 1.1 0.0999999
v -0.3 1.4 0.0999999
v -0.3 1.7 0.0999999
v -0.2 0.6 0.0999999
v -0.2 0.8 0.0999999
v -0.2 1.4 0.0999999
v -0.2 1.7 0.0999999
v -0.1 0.3 0.0999999
v -0.1 0.6 0.0999999
v -0.1 0.8 0.0999999
v -0.1 1.1 0.0999999
v 0 0.1 0.0999999
v 0 0.3 0.0999999
v 0 0.6 0.0999999
v 0 0.8 0.0999999
v 0 1.1 0.0999999
v 0 1.4 0.0999999
v 0.1 0.1 0.0999999
v 0.1 0.3 0.0999999
v 0.1 1.1 0.0999999
v 0.1 1.4 0.0999999
v 0.1 1.7 0.0999999
v 0.2 1.4 0.0999999
v 0.2 1.7 0.0999999
v -1.1 0 -5.96046e-08
v -1.1 0.1 -5.96046e-08
v -1 0 -5.96046e-08
v -1 0.1 -5.96046e-08
v 0.1 0 -0.2
v 0.1 0.1 -0.2
v 0.2 0 -0.2
v 0.2 0.1 -0.2
v 0.2 0 -0.3
v 0.2 0.1 -0.3
v 0.3 0 -0.3
v 0.3 0.1 -0.3
v 0.3 0 -0.4
v 0.3 0.1 -0.4
v 0.4 0 -0.4
v 0.4 0.1 -0.4
v 0.4 0 0.3
v 0.4 0.1 0.3
v 0.5 0 0.3
v 0.5 0.1 0.3
v 0.3 0 0.2
v 0.3 0.1 0.2
v 0.4 0 0.2
v 0.4 0.1 0.2
v 0.1 0 0.0999999
v 0.1 0.1 0.0999999
v 0.3 0 0.0999999
v 0.3 0.1 0.0999999
v -1.1 0 -0.1
v -1.1 0.1 -0.1
v -1 0 -0.1
v -1 0.1 -0.1
v -1 0 -0.2
v -1 0.1 -0.2
v -0.9 0 -0.2
v -0.9 0.1 -0.2
v -0.6 0.6 -0.2
v -0.6 0.8 -0.2
v -0.5 0 -0.2
v -0.5 0.1 -0.2
v -0.5 0.3 -0.2
v -0.5 0.6 -0.2
v -0.5 0.8 -0.2
v -0.5 1.1 -0.2
v -0.4 0 -0.2
v -0.4 0.1 -0.2
v -0.4 0.3 -0.2
v -0.4 0.6 -0.2
v -0.4 0.8 -0.2
v -0.4 1.1 -0.2
v -0.4 1.4 -0.2
v -0.3 0 -0.2
v -0.3 0.3 -0.2
v -0.3 1.1 -0.2
v -0.3 1.4 -0.2
v -0.3 1.7 -0.2
v -0.2 0.6 -0.2
v -0.2 0.8 -0.2
v -0.2 1.4 -0.2
v -0.2 1.7 -0.2
v -0.1 0.3 -0.2
v -0.1 0.6 -0.2
v -0.1 0.8 -0.2
v -0.1 1.1 -0.2
v 0 0.1 -0.2
v 0 0.3 -0.2
v 0 0.6 -0.2
v 0 0.8 -0.2
v 0 1.1 -0.2
v 0 1.4 -0.2
v 0.1 0.1 -0.2
v 0.1 0.3 -0.2
v 0.1 1.1 -0.2
v 0.1 1.4 -0.2
v 0.1 1.7 -0.2
v 0.2 1.4 -0.2
v 0.2 1.7 -0.2
v -0.9 0 -0.3
v -0.9 0.1 -0.3
v -0.5 0 -0.3
v -0.5 0.1 -0.3
v -0.5 0.6 -0.3
v -0.5 0.8 -0.3
v -0.4 0.3 -0.3
v -0.4 0.6 -0.3
v -0.4 0.8 -0.3
v -0.4 1.1 -0.3
v -0.3 0 -0.3
v -0.3 0.3 -0.3
v -0.3 1.1 -0.3
v -0.3 1.4 -0.3
v -0.2 0.6 -0.3
v -0.2 0.8 -0.3
v -0.2 1.4 -0.3
v -0.2 1.7 -0.3
v -0.1 0 -0.3
v -0.1 0.1 -0.3
v -0.1 0.3 -0.3
v -0.1 0.6 -0.3
v -0.1 0.8 -0.3
v -0.1 1.1 -0.3
v 0 0.1 -0.3
v 0 0.3 -0.3
v 0 1.1 -0.3
v 0 1.4 -0.3
v 0.1 1.4 -0.3
v 0.1 1.7 -0.3
v -0.1 0 -0.4
v -0.1 0.1 -0.4
v 0 0 -0.4
v 0 0.1 -0.4
v 0 0 -0.6
v 0 0.1 -0.6
v 0.1 0 -0.6
v 0.1 0.1 -0.6
v 0.1 0 -0.7
v 0.1 0.1 -0.7
v 0.4 0 -0.7
v 0.4 0.1 -0.7
v 0.2 0 0.6
v 0.5 0 0.6
v 0 0 0.5
v 0.2 0 0.5
v 0.3 0 0.5
v 0.1 0 0.4
v 0.2 0 0.4
v 0.3 0 0.4
v -0.1 0 0.3
v 0 0 0.3
v 0.1 0 0.3
v 0.2 0 0.3
v 0.4 0 0.3
v 0.5 0 0.3
v -0.9 0 0.2
v -0.5 0 0.2
v -0.3 0 0.2
v -0.1 0 0.2
v 0 0 0.2
v 0.3 0 0.2
v 0.4 0 0.2
v -1 0 0.0999999
v -0.9 0 0.0999999
v -0.5 0 0.0999999
v -0.4 0 0.0999999
v -0.3 0 0.0999999
v 0 0 0.0999999
v 0.1 0 0.0999999
v 0.3 0 0.0999999
v -1.1 0 -5.96046e-08
v -1 0 -5.96046e-08
v -0.8 0 -5.96046e-08
v -0.7 0 -5.96046e-08
v -1.1 0 -0.1
v -1 0 -0.1
v -0.8 0 -0.1
v -0.7 0 -0.1
v -0.6 0 -0.1
v -1 0 -0.2
v -0.9 0 -0.2
v -0.7 0 -0.2
v -0.6 0 -0.2
v -0.5 0 -0.2
v -0.4 0 -0.2
v -0.3 0 -0.2
v 0 0 -0.2
v 0.1 0 -0.2
v 0.2 0 -0.2
v -0.9 0 -0.3
v -0.5 0 -0.3
v -0.3 0 -0.3
v -0.1 0 -0.3
v 0 0 -0.3
v 0.1 0 -0.3
v 0.2 0 -0.3
v 0.3 0 -0.3
v -0.1 0 -0.4
v 0 0 -0.4
v 0.1 0 -0.4
v 0.2 0 -0.4
v 0.3 0 -0.4
v 0.4 0 -0.4
v 0.2 0 -0.5
v 0.3 0 -0.5
v 0 0 -0.6
v 0.1 0 -0.6
v 0.1 0 -0.7
v 0.4 0 -0.7
v -0.4 0.3 0.2
v -0.3 0.3 0.2
v -0.5 0.3 0.0999999
v -0.4 0.3 0.0999999
v -0.3 0.3 0.0999999
v -0.5 0.3 -0.2
v -0.4 0.3 -0.2
v -0.3 0.3 -0.2
v -0.4 0.3 -0.3
v -0.3 0.3 -0.3
v -0.5 0.6 0.2
v -0.4 0.6 0.2
v -0.6 0.6 0.0999999
v -0.5 0.6 0.0999999
v -0.4 0.6 0.0999999
v -0.6 0.6 -0.2
v -0.5 0.6 -0.2
v -0.4 0.6 -0.2
v -0.5 0.6 -0.3
v -0.4 0.6 -0.3
v -0.2 0.8 0.2
v -0.1 0.8 0.2
v -0.2 0.8 0.0999999
v -0.1 0.8 0.0999999
v 0 0.8 0.0999999
v -0.2 0.8 -0.2
v -0.1 0.8 -0.2
v 0 0.8 -0.2
v -0.2 0.8 -0.3
v -0.1 0.8 -0.3
v -0.1 1.1 0.2
v 0 1.1 0.2
v -0.1 1.1 0.0999999
v 0 1.1 0.0999999
v 0.1 1.1 0.0999999
v -0.1 1.1 -0.2
v 0 1.1 -0.2
v 0.1 1.1 -0.2
v -0.1 1.1 -0.3
v 0 1.1 -0.3
v 0 1.4 0.2
v 0.1 1.4 0.2
v 0 1.4 0.0999999
v 0.1 1.4 0.0999999
v 0.2 1.4 0.0999999
v 0 1.4 -0.2
v 0.1 1.4 -0.2
v 0.2 1.4 -0.2
v 0 1.4 -0.3
v 0.1 1.4 -0.3
v 0.2 0.1 0.6
v 0.5 0.1 0.6
v 0 0.1 0.5
v 0.2 0.1 0.5
v 0.3 0.1 0.5
v 0.1 0.1 0.4
v 0.2 0.1 0.4
v 0.3 0.1 0.4
v -0.1 0.1 0.3
v 0 0.1 0.3
v 0.1 0.1 0.3
v 0.2 0.1 0.3
v 0.4 0.1 0.3
v 0.5 0.1 0.3
v -0.9 0.1 0.2
v -0.5 0.1 0.2
v -0.1 0.1 0.2
v 0 0.1 0.2
v 0.3 0.1 0.2
v 0.4 0.1 0.2
v -1 0.1 0.0999999
v -0.9 0.1 0.0999999
v -0.5 0.1 0.0999999
v -0.4 0.1 0.0999999
v 0 0.1 0.0999999
v 0.1 0.1 0.0999999
v 0.3 0.1 0.0999999
v -1.1 0.1 -5.96046e-08
v -1 0.1 -5.96046e-08
v -0.8 0.1 -5.96046e-08
v -0.7 0.1 -5.96046e-08
v -1.1 0.1 -0.1
v -1 0.1 -0.1
v -0.8 0.1 -0.1
v -0.7 0.1 -0.1
v -0.6 0.1 -0.1
v -1 0.1 -0.2
v -0.9 0.1 -0.2
v -0.7 0.1 -0.2
v -0.6 0.1 -0.2
v -0.5 0.1 -0.2
v -0.4 0.1 -0.2
v 0 0.1 -0.2
v 0.1 0.1 -0.2
v 0.2 0.1 -0.2
v -0.9 0.1 -0.3
v -0.5 0.1 -0.3
v -0.1 0.1 -0.3
v 0 0.1 -0.3
v 0.1 0.1 -0.3
v 0.2 0.1 -0.3
v 0.3 0.1 -0.3
v -0.1 0.1 -0.4
v 0 0.1 -0.4
v 0.1 0.1 -0.4
v 0.2 0.1 -0.4
v 0.3 0.1 -0.4
v 0.4 0.1 -0.4
v 0.2 0.1 -0.5
v 0.3 0.1 -0.5
v 0 0.1 -0.6
v 0.1 0.1 -0.6
v 0.1 0.1 -0.7
v 0.4 0.1 -0.7
v -0.1 0.3 0.2
v 0 0.3 0.2
v -0.1 0.3 0.0999999
v 0 0.3 0.0999999
v 0.1 0.3 0.0999999
v -0.1 0.3 -0.2
v 0 0.3 -0.2
v 0.1 0.3 -0.2
v -0.1 0.3 -0.3
v 0 0.3 -0.3
v -0.2 0.6 0.2
v -0.1 0.6 0.2
v -0.2 0.6 0.0999999
v -0.1 0.6 0.0999999
v 0 0.6 0.0999999
v -0.2 0.6 -0.2
v -0.1 0.6 -0.2
v 0 0.6 -0.2
v -0.2 0.6 -0.3
v -0.1 0.6 -0.3
v -0.5 0.8 0.2
v -0.4 0.8 0.2
v -0.6 0.8 0.0999999
v -0.5 0.8 0.0999999
v -0.4 0.8 0.0999999
v -0.6 0.8 -0.2
v -0.5 0.8 -0.2
v -0.4 0.8 -0.2
v -0.5 0.8 -0.3
v -0.4 0.8 -0.3
v -0.4 1.1 0.2
v -0.3 1.1 0.2
v -0.5 1.1 0.0999999
v -0.4 1.1 0.0999999
v -0.3 1.1 0.0999999
v -0.5 1.1 -0.2
v -0.4 1.1 -0.2
v -0.3 1.1 -0.2
v -0.4 1.1 -0.3
v -0.3 1.1 -0.3
v -0.3 1.4 0.2
v -0.2 1.4 0.2
v -0.4 1.4 0.0999999
v -0.3 1.4 0.0999999
v -0.2 1.4 0.0999999
v -0.4 1.4 -0.2
v -0.3 1.4 -0.2
v -0.2 1.4 -0.2
v -0.3 1.4 -0.3
v -0.2 1.4 -0.3
v -0.2 1.7 0.2
v 0.1 1.7 0.2
v -0.3 1.7 0.0999999
v -0.2 1.7 0.0999999
v 0.1 1.7 0.0999999
v 0.2 1.7 0.0999999
v -0.3 1.7 -0.2
v -0.2 1.7 -0.2
v 0.1 1.7 -0.2
v 0.2 1.7 -0.2
v -0.2 1.7 -0.3
v 0.1 1.7 -0.3

# faces
f 3/1/1 2/1/1 1/1/1
f 4/1/1 2/1/1 3/1/1
f 9/1/1 6/1/1 5/1/1
f 10/1/1 6/1/1 9/1/1
f 11/1/1 8/1/1 7/1/1
f 12/1/1 8/1/1 11/1/1
f 17/1/1 14/1/1 13/1/1
f 18/1/1 14/1/1 17/1/1
f 19/1/1 16/1/1 15/1/1
f 20/1/1 16/1/1 19/1/1
f 23/2/1 22/2/1 21/2/1
f 24/2/1 22/2/1 23/2/1
f 28/2/1 26/2/1 25/2/1
f 29/2/1 26/2/1 28/2/1
f 31/2/1 28/2/1 27/2/1
f 32/2/1 28/2/1 31/2/1
f 33/2/1 30/2/1 29/2/1
f 34/2/1 30/2/1 33/2/1
f 35/2/1 33/2/1 32/2/1
f 36/2/1 33/2/1 35/2/1
f 40/2/1 38/2/1 37/2/1
f 41/2/1 38/2/1 40/2/1
f 43/2/1 40/2/1 39/2/1
f 44/2/1 40/2/1 43/2/1
f 45/2/1 42/2/1 41/2/1
f 46/2/1 42/2/1 45/2/1
f 51/2/1 48/2/1 47/2/1
f 52/2/1 48/2/1 51/2/1
f 53/2/1 50/2/1 49/2/1
f 54/2/1 50/2/1 53/2/1
f 55/2/1 53/2/1 52/2/1
f 56/2/1 53/2/1 55/2/1
f 61/2/1 58/2/1 57/2/1
f 62/2/1 58/2/1 61/2/1
f 63/2/1 60/2/1 59/2/1
f 64/2/1 60/2/1 63/2/1
f 69/2/1 66/2/1 65/2/1
f 70/2/1 66/2/1 69/2/1
f 71/2/1 68/2/1 67/2/1
f 72/2/1 68/2/1 71/2/1
f 73/2/1 71/2/1 70/2/1
f 74/2/1 71/2/1 73/2/1
f 79/2/1 76/2/1 75/2/1
f 80/2/1 76/2/1 79/2/1
f 81/2/1 78/2/1 77/2/1
f 82/2/1 78/2/1 81/2/1
f 87/1/1 84/1/1 83/1/1
f 88/1/1 84/1/1 87/1/1
f 89/1/1 86/1/1 85/1/1
f 90/1/1 86/1/1 89/1/1
f 95/1/1 92/1/1 91/1/1
f 96/1/1 92/1/1 95/1/1
f 97/1/1 94/1/1 93/1/1
f 98/1/1 94/1/1 97/1/1
f 101/1/1 100/1/1 99/1/1
f 102/1/1 100/1/1 101/1/1
f 105/1/1 104/1/1 103/1/1
f 106/1/1 104/1/1 105/1/1
f 107/1/2 108/1/2 111/1/2
f 111/1/2 108/1/2 112/1/2
f 109/1/2 110/1/2 113/1/2
f 113/1/2 110/1/2 114/1/2
f 115/2/2 116/2/2 119/2/2
f 119/2/2 116/2/2 120/2/2
f 117/2/2 118/2/2 121/2/2
f 121/2/2 118/2/2 122/2/2
f 123/2/2 124/2/2 127/2/2
f 127/2/2 124/2/2 128/2/2
f 125/2/2 126/2/2 129/2/2
f 129/2/2 126/2/2 130/2/2
f 128/2/2 129/2/2 132/2/2
f 132/2/2 129/2/2 133/2/2
f 131/2/2 132/2/2 135/2/2
f 135/2/2 132/2/2 136/2/2
f 133/2/2 134/2/2 137/2/2
f 137/2/2 134/2/2 138/2/2
f 139/2/2 140/2/2 143/2/2
f 143/2/2 140/2/2 144/2/2
f 141/2/2 142/2/2 145/2/2
f 145/2/2 142/2/2 146/2/2
f 144/2/2 145/2/2 147/2/2
f 147/2/2 145/2/2 148/2/2
f 149/2/2 150/2/2 152/2/2
f 152/2/2 150/2/2 153/2/2
f 151/2/2 152/2/2 155/2/2
f 155/2/2 152/2/2 156/2/2
f 153/2/2 154/2/2 157/2/2
f 157/2/2 154/2/2 158/2/2
f 159/2/2 160/2/2 161/2/2
f 161/2/2 160/2/2 162/2/2
f 161/2/2 162/2/2 163/2/2
f 163/2/2 162/2/2 164/2/2
f 165/2/2 166/2/2 168/2/2
f 168/2/2 166/2/2 169/2/2
f 167/2/2 168/2/2 171/2/2
f 171/2/2 168/2/2 172/2/2
f 169/2/2 170/2/2 173/2/2
f 173/2/2 170/2/2 174/2/2
f 175/1/2 176/1/2 177/1/2
f 177/1/2 176/1/2 178/1/2
f 179/2/2 180/2/2 181/2/2
f 181/2/2 180/2/2 182/2/2
f 183/1/2 184/1/2 187/1/2
f 187/1/2 184/1/2 188/1/2
f 185/1/2 186/1/2 189/1/2
f 189/1/2 186/1/2 190/1/2
f 191/1/2 192/1/2 195/1/2
f 195/1/2 192/1/2 196/1/2
f 193/1/2 194/1/2 197/1/2
f 197/1/2 194/1/2 198/1/2
f 199/1/2 200/1/2 201/1/2
f 201/1/2 200/1/2 202/1/2
f 205/1/3 204/1/3 203/1/3
f 206/1/3 204/1/3 205/1/3
f 209/1/3 208/1/3 207/1/3
f 210/1/3 208/1/3 209/1/3
f 213/1/3 212/1/3 211/1/3
f 214/1/3 212/1/3 213/1/3
f 217/1/3 216/1/3 215/1/3
f 218/1/3 216/1/3 217/1/3
f 222/2/3 220/2/3 219/2/3
f 223/2/3 220/2/3 222/2/3
f 226/2/3 222/2/3 221/2/3
f 226/2/3 224/2/3 223/2/3
f 226/2/3 223/2/3 222/2/3
f 227/2/3 224/2/3 226/2/3
f 229/2/3 226/2/3 225/2/3
f 229/2/3 228/2/3 227/2/3
f 229/2/3 227/2/3 226/2/3
f 230/2/3 228/2/3 229/2/3
f 231/2/3 228/2/3 230/2/3
f 233/2/3 229/2/3 225/2/3
f 234/2/3 229/2/3 233/2/3
f 235/2/3 229/2/3 234/2/3
f 236/2/3 229/2/3 235/2/3
f 237/2/3 232/2/3 231/2/3
f 237/2/3 231/2/3 230/2/3
f 238/2/3 232/2/3 237/2/3
f 239/2/3 235/2/3 234/2/3
f 240/2/3 235/2/3 239/2/3
f 241/2/3 232/2/3 238/2/3
f 242/2/3 232/2/3 241/2/3
f 243/2/3 232/2/3 242/2/3
f 244/2/3 232/2/3 243/2/3
f 247/1/3 246/1/3 245/1/3
f 248/1/3 246/1/3 247/1/3
f 254/2/3 250/2/3 249/2/3
f 255/2/3 250/2/3 254/2/3
f 257/1/3 252/1/3 251/1/3
f 258/1/3 252/1/3 257/1/3
f 259/2/3 254/2/3 253/2/3
f 260/2/3 254/2/3 259/2/3
f 261/2/3 256/2/3 255/2/3
f 262/2/3 256/2/3 261/2/3
f 264/2/3 258/2/3 257/2/3
f 264/2/3 259/2/3 258/2/3
f 265/2/3 259/2/3 264/2/3
f 266/2/3 263/2/3 262/2/3
f 267/2/3 263/2/3 266/2/3
f 271/2/3 268/2/3 267/2/3
f 272/2/3 268/2/3 271/2/3
f 274/2/3 270/2/3 269/2/3
f 275/2/3 270/2/3 274/2/3
f 278/2/3 274/2/3 273/2/3
f 279/2/3 274/2/3 278/2/3
f 280/2/3 276/2/3 275/2/3
f 281/2/3 276/2/3 280/2/3
f 283/2/3 278/2/3 277/2/3
f 284/2/3 278/2/3 283/2/3
f 285/2/3 282/2/3 281/2/3
f 286/2/3 282/2/3 285/2/3
f 288/2/3 287/2/3 286/2/3
f 289/2/3 287/2/3 288/2/3
f 292/1/3 291/1/3 290/1/3
f 293/1/3 291/1/3 292/1/3
f 296/1/3 295/1/3 294/1/3
f 297/1/3 295/1/3 296/1/3
f 300/1/3 299/1/3 298/1/3
f 301/1/3 299/1/3 300/1/3
f 304/1/3 303/1/3 302/1/3
f 305/1/3 303/1/3 304/1/3
f 306/1/4 307/1/4 308/1/4
f 308/1/4 307/1/4 309/1/4
f 310/1/4 311/1/4 312/1/4
f 312/1/4 311/1/4 313/1/4
f 314/1/4 315/1/4 316/1/4
f 316/1/4 315/1/4 317/1/4
f 318/1/4 319/1/4 320/1/4
f 320/1/4 319/1/4 321/1/4
f 322/1/4 323/1/4 324/1/4
f 324/1/4 323/1/4 325/1/4
f 326/2/4 327/2/4 331/2/4
f 331/2/4 327/2/4 332/2/4
f 328/1/4 329/1/4 334/1/4
f 334/1/4 329/1/4 335/1/4
f 330/2/4 331/2/4 336/2/4
f 336/2/4 331/2/4 337/2/4
f 332/2/4 333/2/4 338/2/4
f 338/2/4 333/2/4 339/2/4
f 334/2/4 335/2/4 341/2/4
f 335/2/4 336/2/4 341/2/4
f 341/2/4 336/2/4 342/2/4
f 339/2/4 340/2/4 343/2/4
f 343/2/4 340/2/4 344/2/4
f 344/2/4 345/2/4 348/2/4
f 348/2/4 345/2/4 349/2/4
f 346/2/4 347/2/4 351/2/4
f 351/2/4 347/2/4 352/2/4
f 350/2/4 351/2/4 355/2/4
f 355/2/4 351/2/4 356/2/4
f 352/2/4 353/2/4 357/2/4
f 357/2/4 353/2/4 358/2/4
f 354/2/4 355/2/4 360/2/4
f 360/2/4 355/2/4 361/2/4
f 358/2/4 359/2/4 362/2/4
f 362/2/4 359/2/4 363/2/4
f 363/2/4 364/2/4 365/2/4
f 365/2/4 364/2/4 366/2/4
f 367/1/4 368/1/4 369/1/4
f 369/1/4 368/1/4 370/1/4
f 371/2/4 372/2/4 374/2/4
f 374/2/4 372/2/4 375/2/4
f 373/2/4 374/2/4 378/2/4
f 375/2/4 376/2/4 378/2/4
f 374/2/4 375/2/4 378/2/4
f 378/2/4 376/2/4 379/2/4
f 377/2/4 378/2/4 381/2/4
f 379/2/4 380/2/4 381/2/4
f 378/2/4 379/2/4 381/2/4
f 381/2/4 380/2/4 382/2/4
f 382/2/4 380/2/4 383/2/4
f 377/2/4 381/2/4 385/2/4
f 385/2/4 381/2/4 386/2/4
f 386/2/4 381/2/4 387/2/4
f 387/2/4 381/2/4 388/2/4
f 383/2/4 384/2/4 389/2/4
f 382/2/4 383/2/4 389/2/4
f 389/2/4 384/2/4 390/2/4
f 386/2/4 387/2/4 391/2/4
f 391/2/4 387/2/4 392/2/4
f 390/2/4 384/2/4 393/2/4
f 393/2/4 384/2/4 394/2/4
f 394/2/4 384/2/4 395/2/4
f 395/2/4 384/2/4 396/2/4
f 397/1/4 398/1/4 399/1/4
f 399/1/4 398/1/4 400/1/4
f 401/1/4 402/1/4 403/1/4
f 403/1/4 402/1/4 404/1/4
f 405/1/4 406/1/4 407/1/4
f 407/1/4 406/1/4 408/1/4
f 412/1/5 410/1/5 409/1/5
f 413/1/5 410/1/5 412/1/5
f 414/1/5 412/1/5 411/1/5
f 415/3/5 413/3/5 412/3/5
f 415/1/5 412/1/5 414/1/5
f 416/1/5 410/1/5 413/1/5
f 416/3/5 413/3/5 415/3/5
f 418/1/5 414/1/5 411/1/5
f 419/3/5 415/3/5 414/3/5
f 419/1/5 414/1/5 418/1/5
f 420/1/5 416/1/5 415/1/5
f 420/3/5 415/3/5 419/3/5
f 421/1/5 410/1/5 416/1/5
f 421/1/5 416/1/5 420/1/5
f 422/1/5 410/1/5 421/1/5
f 426/1/5 418/1/5 417/1/5
f 426/1/5 420/1/5 419/1/5
f 426/1/5 419/1/5 418/1/5
f 426/1/5 421/1/5 420/1/5
f 427/1/5 421/1/5 426/1/5
f 428/1/5 421/1/5 427/1/5
f 429/1/5 421/1/5 428/1/5
f 431/1/5 424/1/5 423/1/5
f 432/1/5 424/1/5 431/1/5
f 434/2/5 426/2/5 425/2/5
f 434/2/5 427/2/5 426/2/5
f 435/1/5 428/1/5 427/1/5
f 435/2/5 427/2/5 434/2/5
f 436/1/5 428/1/5 435/1/5
f 437/1/5 428/1/5 436/1/5
f 439/1/5 433/1/5 432/1/5
f 439/1/5 432/1/5 431/1/5
f 439/1/5 431/1/5 430/1/5
f 440/1/5 433/1/5 439/1/5
f 441/1/5 433/1/5 440/1/5
f 442/1/5 439/1/5 438/1/5
f 442/1/5 440/1/5 439/1/5
f 443/1/5 440/1/5 442/1/5
f 444/3/5 441/3/5 440/3/5
f 444/1/5 440/1/5 443/1/5
f 445/1/5 433/1/5 441/1/5
f 445/3/5 441/3/5 444/3/5
f 446/1/5 433/1/5 445/1/5
f 447/1/5 444/1/5 443/1/5
f 447/1/5 445/1/5 444/1/5
f 448/1/5 445/1/5 447/1/5
f 449/3/5 446/3/5 445/3/5
f 449/1/5 445/1/5 448/1/5
f 450/1/5 433/1/5 446/1/5
f 450/3/5 446/3/5 449/3/5
f 451/1/5 433/1/5 450/1/5
f 452/2/5 436/2/5 435/2/5
f 452/1/5 433/1/5 451/1/5
f 452/2/5 434/2/5 433/2/5
f 452/2/5 435/2/5 434/2/5
f 453/2/5 436/2/5 452/2/5
f 454/2/5 436/2/5 453/2/5
f 455/2/5 436/2/5 454/2/5
f 457/1/5 451/1/5 450/1/5
f 457/1/5 450/1/5 449/1/5
f 457/1/5 449/1/5 448/1/5
f 458/1/5 451/1/5 457/1/5
f 459/2/5 454/2/5 453/2/5
f 460/2/5 454/2/5 459/2/5
f 461/1/5 456/1/5 455/1/5
f 461/2/5 454/2/5 460/2/5
f 461/1/5 455/1/5 454/1/5
f 462/1/5 456/1/5 461/1/5
f 463/1/5 456/1/5 462/1/5
f 465/1/5 461/1/5 460/1/5
f 465/1/5 462/1/5 461/1/5
f 466/1/5 462/1/5 465/1/5
f 467/3/5 463/3/5 462/3/5
f 467/1/5 462/1/5 466/1/5
f 468/1/5 464/1/5 463/1/5
f 468/3/5 463/3/5 467/3/5
f 469/1/5 464/1/5 468/1/5
f 471/3/5 469/3/5 468/3/5
f 471/1/5 467/1/5 466/1/5
f 471/1/5 468/1/5 467/1/5
f 472/1/5 470/1/5 469/1/5
f 472/3/5 469/3/5 471/3/5
f 473/1/5 471/1/5 466/1/5
f 473/1/5 472/1/5 471/1/5
f 474/1/5 472/1/5 473/1/5
f 475/1/5 472/1/5 474/1/5
f 476/1/5 470/1/5 472/1/5
f 476/1/5 472/1/5 475/1/5
f 480/2/5 478/2/5 477/2/5
f 481/2/5 478/2/5 480/2/5
f 482/2/5 480/2/5 479/2/5
f 483/2/5 480/2/5 482/2/5
f 485/2/5 484/2/5 483/2/5
f 486/2/5 484/2/5 485/2/5
f 490/2/5 488/2/5 487/2/5
f 491/2/5 488/2/5 490/2/5
f 492/2/5 490/2/5 489/2/5
f 493/2/5 490/2/5 492/2/5
f 495/2/5 494/2/5 493/2/5
f 496/2/5 494/2/5 495/2/5
f 499/2/5 498/2/5 497/2/5
f 500/2/5 498/2/5 499/2/5
f 503/2/5 501/2/5 500/2/5
f 504/2/5 501/2/5 503/2/5
f 505/2/5 503/2/5 502/2/5
f 506/2/5 503/2/5 505/2/5
f 509/2/5 508/2/5 507/2/5
f 510/2/5 508/2/5 509/2/5
f 513/2/5 511/2/5 510/2/5
f 514/2/5 511/2/5 513/2/5
f 515/2/5 513/2/5 512/2/5
f 516/2/5 513/2/5 515/2/5
f 519/2/5 518/2/5 517/2/5
f 520/2/5 518/2/5 519/2/5
f 523/2/5 521/2/5 520/2/5
f 524/2/5 521/2/5 523/2/5
f 525/2/5 523/2/5 522/2/5
f 526/2/5 523/2/5 525/2/5
f 527/1/6 528/1/6 530/1/6
f 530/1/6 528/1/6 531/1/6
f 529/1/6 530/1/6 532/1/6
f 530/3/6 531/3/6 533/3/6
f 532/1/6 530/1/6 533/1/6
f 531/1/6 528/1/6 534/1/6
f 533/3/6 531/3/6 534/3/6
f 529/1/6 532/1/6 536/1/6
f 532/3/6 533/3/6 537/3/6
f 536/1/6 532/1/6 537/1/6
f 533/1/6 534/1/6 538/1/6
f 537/3/6 533/3/6 538/3/6
f 534/1/6 528/1/6 539/1/6
f 538/1/6 534/1/6 539/1/6
f 539/1/6 528/1/6 540/1/6
f 535/1/6 536/1/6 543/1/6
f 537/1/6 538/1/6 543/1/6
f 536/1/6 537/1/6 543/1/6
f 538/1/6 539/1/6 543/1/6
f 543/1/6 539/1/6 544/1/6
f 544/1/6 539/1/6 545/1/6
f 545/1/6 539/1/6 546/1/6
f 541/1/6 542/1/6 548/1/6
f 548/1/6 542/1/6 549/1/6
f 544/1/6 545/1/6 551/1/6
f 551/1/6 545/1/6 552/1/6
f 552/1/6 545/1/6 553/1/6
f 549/1/6 550/1/6 555/1/6
f 547/1/6 548/1/6 555/1/6
f 548/1/6 549/1/6 555/1/6
f 555/1/6 550/1/6 556/1/6
f 556/1/6 550/1/6 557/1/6
f 554/1/6 555/1/6 558/1/6
f 555/1/6 556/1/6 558/1/6
f 558/1/6 556/1/6 559/1/6
f 556/3/6 557/3/6 560/3/6
f 559/1/6 556/1/6 560/1/6
f 557/1/6 550/1/6 561/1/6
f 560/3/6 557/3/6 561/3/6
f 561/1/6 550/1/6 562/1/6
f 559/1/6 560/1/6 563/1/6
f 560/1/6 561/1/6 563/1/6
f 563/1/6 561/1/6 564/1/6
f 561/3/6 562/3/6 565/3/6
f 564/1/6 561/1/6 565/1/6
f 562/1/6 550/1/6 566/1/6
f 565/3/6 562/3/6 566/3/6
f 566/1/6 550/1/6 567/1/6
f 567/1/6 550/1/6 568/1/6
f 564/1/6 565/1/6 572/1/6
f 565/1/6 566/1/6 572/1/6
f 566/1/6 567/1/6 572/1/6
f 572/1/6 567/1/6 573/1/6
f 570/1/6 571/1/6 575/1/6
f 569/1/6 570/1/6 575/1/6
f 575/1/6 571/1/6 576/1/6
f 576/1/6 571/1/6 577/1/6
f 574/1/6 575/1/6 579/1/6
f 575/1/6 576/1/6 579/1/6
f 579/1/6 576/1/6 580/1/6
f 576/3/6 577/3/6 581/3/6
f 580/1/6 576/1/6 581/1/6
f 577/1/6 578/1/6 582/1/6
f 581/3/6 577/3/6 582/3/6
f 582/1/6 578/1/6 583/1/6
f 582/3/6 583/3/6 585/3/6
f 580/1/6 581/1/6 585/1/6
f 581/1/6 582/1/6 585/1/6
f 583/1/6 584/1/6 586/1/6
f 585/3/6 583/3/6 586/3/6
f 580/1/6 585/1/6 587/1/6
f 585/1/6 586/1/6 587/1/6
f 587/1/6 586/1/6 588/1/6
f 588/1/6 586/1/6 589/1/6
f 586/1/6 584/1/6 590/1/6
f 589/1/6 586/1/6 590/1/6
f 591/2/6 592/2/6 593/2/6
f 593/2/6 592/2/6 594/2/6
f 594/2/6 595/2/6 597/2/6
f 597/2/6 595/2/6 598/2/6
f 596/2/6 597/2/6 599/2/6
f 599/2/6 597/2/6 600/2/6
f 601/2/6 602/2/6 603/2/6
f 603/2/6 602/2/6 604/2/6
f 604/2/6 605/2/6 607/2/6
f 607/2/6 605/2/6 608/2/6
f 606/2/6 607/2/6 609/2/6
f 609/2/6 607/2/6 610/2/6
f 611/2/6 612/2/6 614/2/6
f 614/2/6 612/2/6 615/2/6
f 613/2/6 614/2/6 616/2/6
f 616/2/6 614/2/6 617/2/6
f 617/2/6 618/2/6 619/2/6
f 619/2/6 618/2/6 620/2/6
f 621/2/6 622/2/6 624/2/6
f 624/2/6 622/2/6 625/2/6
f 623/2/6 624/2/6 626/2/6
f 626/2/6 624/2/6 627/2/6
f 627/2/6 628/2/6 629/2/6
f 629/2/6 628/2/6 630/2/6
f 631/2/6 632/2/6 634/2/6
f 634/2/6 632/2/6 635/2/6
f 633/2/6 634/2/6 636/2/6
f 636/2/6 634/2/6 637/2/6
f 637/2/6 638/2/6 639/2/6
f 639/2/6 638/2/6 640/2/6
f 641/2/6 642/2/6 644/2/6
f 644/2/6 642/2/6 645/2/6
f 643/2/6 644/2/6 647/2/6
f 645/2/6 646/2/6 647/2/6
f 644/2/6 645/2/6 647/2/6
f 647/2/6 646/2/6 648/2/6
f 648/2/6 646/2/6 649/2/6
f 649/2/6 646/2/6 650/2/6
f 648/2/6 649/2/6 651/2/6
f 651/2/6 649/2/6 652/2/6
