# MagicaVoxel @ Ephtracy

# group
o 

# material
mtllib SM_Spitter-0.mtl
usemtl palette

# normals
vn -1 0 0
vn 1 0 0
vn 0 0 1
vn 0 0 -1
vn 0 -1 0
vn 0 1 0

# texcoords
vt 0.970703 0.5
vt 0.974609 0.5
vt 0.978516 0.5
vt 0.982422 0.5
vt 0.986328 0.5
vt 0.990234 0.5

# verts
v -2.23517e-08 1.6 0.3
v -2.23517e-08 1.6 0.2
v -2.23517e-08 1.6 -0.3
v -2.23517e-08 1.6 -0.4
v -2.23517e-08 1.7 0.2
v -2.23517e-08 1.7 0
v -2.23517e-08 1.7 -0.1
v -2.23517e-08 1.7 -0.3
v -2.23517e-08 1.7 -0.4
v -2.23517e-08 1.7 -0.6
v -2.23517e-08 1.8 0.5
v -2.23517e-08 1.8 0.3
v -2.23517e-08 1.8 0.2
v -2.23517e-08 1.8 0.1
v -2.23517e-08 1.8 -0.3
v -2.23517e-08 1.8 -0.4
v -2.23517e-08 1.9 0.3
v -2.23517e-08 1.9 0.2
v -2.23517e-08 1.9 0.1
v -2.23517e-08 1.9 -0.1
v -2.23517e-08 1.9 -0.2
v -2.23517e-08 1.9 -0.3
v -2.23517e-08 1.9 -0.4
v -2.23517e-08 2 0.3
v -2.23517e-08 2 0.2
v -2.23517e-08 2 0
v -2.23517e-08 2 -0.2
v -2.23517e-08 2 -0.3
v -2.23517e-08 2 -0.5
v -2.23517e-08 2 -0.6
v -2.23517e-08 2.1 0.5
v -2.23517e-08 2.1 0.2
v -2.23517e-08 2.1 -0.3
v -2.23517e-08 2.1 -0.5
v 0.1 1.2 0.2
v 0.1 1.2 -0.2
v 0.1 1.3 0.4
v 0.1 1.3 0.2
v 0.1 1.3 -0.2
v 0.1 1.3 -0.4
v 0.1 1.5 0.5
v 0.1 1.5 0.4
v 0.1 1.5 -0.4
v 0.1 1.5 -0.5
v 0.1 1.6 0.3
v 0.1 1.6 0.2
v 0.1 1.6 -0.3
v 0.1 1.6 -0.4
v 0.1 1.7 0.2
v 0.1 1.7 0
v 0.1 1.7 -0.1
v 0.1 1.7 -0.3
v 0.1 1.7 -0.4
v 0.1 1.7 -0.5
v 0.1 1.8 0.5
v 0.1 1.8 0.3
v 0.1 1.9 -0.1
v 0.1 1.9 -0.2
v 0.1 2 0.2
v 0.1 2 0
v 0.1 2 -0.2
v 0.1 2 -0.3
v 0.1 2.1 0.2
v 0.1 2.1 -0.2
v 0.1 2.1 -0.3
v 0.1 2.2 0.2
v 0.1 2.2 -0.2
v 0.8 2.1 0.4
v 0.8 2.1 0.2
v 0.8 2.1 -0.2
v 0.8 2.1 -0.4
v 0.8 2.2 0.2
v 0.8 2.2 -0.2
v 0.8 2.4 0.4
v 0.8 2.4 0.2
v 0.8 2.4 -0.2
v 0.8 2.4 -0.4
v 0.9 2.3 0.2
v 0.9 2.3 0.1
v 0.9 2.3 -0.1
v 0.9 2.3 -0.2
v 0.9 2.4 0.4
v 0.9 2.4 0.2
v 0.9 2.4 0.1
v 0.9 2.4 -0.1
v 0.9 2.4 -0.2
v 0.9 2.4 -0.4
v 0.9 2.5 0.5
v 0.9 2.5 0.4
v 0.9 2.5 0.3
v 0.9 2.5 0.2
v 0.9 2.5 -0.2
v 0.9 2.5 -0.3
v 0.9 2.5 -0.4
v 0.9 2.5 -0.5
v 0.9 2.6 0.5
v 0.9 2.6 0.3
v 0.9 2.6 -0.3
v 0.9 2.6 -0.5
v 0.1 1.7 -0.5
v 0.1 1.7 -0.6
v 0.1 1.9 0.5
v 0.1 1.9 0.4
v 0.1 1.9 -0.4
v 0.1 1.9 -0.5
v 0.1 2 -0.5
v 0.1 2 -0.6
v 0.1 2.1 0.5
v 0.1 2.1 0.4
v 0.1 2.1 -0.4
v 0.1 2.1 -0.5
v 0.6 1.4 0.2
v 0.6 1.4 -0.2
v 0.6 1.5 0.3
v 0.6 1.5 0.2
v 0.6 1.5 -0.2
v 0.6 1.5 -0.3
v 0.6 1.8 0.3
v 0.6 1.8 0.2
v 0.6 1.8 -0.2
v 0.6 1.8 -0.3
v 0.6 2 0.2
v 0.6 2 -0.2
v 1 2.1 0.4
v 1 2.1 0.2
v 1 2.1 -0.2
v 1 2.1 -0.4
v 1 2.2 0.3
v 1 2.2 0.2
v 1 2.2 -0.2
v 1 2.2 -0.3
v 1 2.3 0.2
v 1 2.3 0.1
v 1 2.3 -0.1
v 1 2.3 -0.2
v 1 2.4 0.4
v 1 2.4 0.3
v 1 2.4 0.2
v 1 2.4 0.1
v 1 2.4 -0.1
v 1 2.4 -0.2
v 1 2.4 -0.3
v 1 2.4 -0.4
v 1 2.5 0.5
v 1 2.5 0.4
v 1 2.5 0.3
v 1 2.5 0.2
v 1 2.5 -0.2
v 1 2.5 -0.3
v 1 2.5 -0.4
v 1 2.5 -0.5
v 1 2.6 0.5
v 1 2.6 0.3
v 1 2.6 -0.3
v 1 2.6 -0.5
v 1.2 1.2 0.2
v 1.2 1.2 -0.2
v 1.2 1.3 0.4
v 1.2 1.3 0.2
v 1.2 1.3 -0.2
v 1.2 1.3 -0.4
v 1.2 1.4 0.3
v 1.2 1.4 0.2
v 1.2 1.4 -0.2
v 1.2 1.4 -0.3
v 1.2 1.5 0.5
v 1.2 1.5 0.4
v 1.2 1.5 0.3
v 1.2 1.5 0.2
v 1.2 1.5 -0.2
v 1.2 1.5 -0.3
v 1.2 1.5 -0.4
v 1.2 1.5 -0.5
v 1.2 1.8 0.4
v 1.2 1.8 0.3
v 1.2 1.8 0.2
v 1.2 1.8 -0.2
v 1.2 1.8 -0.3
v 1.2 1.8 -0.4
v 1.2 1.9 0.5
v 1.2 1.9 0.4
v 1.2 1.9 -0.4
v 1.2 1.9 -0.5
v 1.2 2 0.3
v 1.2 2 0.2
v 1.2 2 -0.2
v 1.2 2 -0.3
v 1.2 2.1 0.4
v 1.2 2.1 0.2
v 1.2 2.1 -0.2
v 1.2 2.1 -0.4
v 1.2 2.2 0.2
v 1.2 2.2 -0.2
v -2.23517e-08 1.8 0.5
v -2.23517e-08 2.1 0.5
v 0.1 1.5 0.5
v 0.1 1.8 0.5
v 0.1 1.9 0.5
v 0.1 2.1 0.5
v 0.9 2.5 0.5
v 0.9 2.6 0.5
v 1 2.5 0.5
v 1 2.6 0.5
v 1.2 1.5 0.5
v 1.2 1.9 0.5
v 0.1 1.3 0.4
v 0.1 1.5 0.4
v 0.1 1.9 0.4
v 0.1 2.1 0.4
v 0.8 2.1 0.4
v 0.8 2.4 0.4
v 0.9 2.1 0.4
v 0.9 2.4 0.4
v 0.9 2.5 0.4
v 1 2.1 0.4
v 1 2.4 0.4
v 1 2.5 0.4
v 1.2 1.3 0.4
v 1.2 1.5 0.4
v 1.2 1.9 0.4
v 1.2 2.1 0.4
v -2.23517e-08 1.6 0.3
v -2.23517e-08 1.8 0.3
v 0.1 1.6 0.3
v 0.1 1.8 0.3
v 0.1 1.2 0.2
v 0.1 1.3 0.2
v 0.1 2.1 0.2
v 0.1 2.2 0.2
v 0.8 2.1 0.2
v 0.8 2.2 0.2
v 1 2.1 0.2
v 1 2.2 0.2
v 1.2 1.2 0.2
v 1.2 1.3 0.2
v 1.2 2.1 0.2
v 1.2 2.2 0.2
v -2.23517e-08 1.7 -0.1
v -2.23517e-08 1.9 -0.1
v 0.1 1.7 -0.1
v 0.1 1.9 -0.1
v 0.9 2.3 -0.1
v 0.9 2.4 -0.1
v 1 2.3 -0.1
v 1 2.4 -0.1
v -2.23517e-08 1.9 -0.2
v -2.23517e-08 2 -0.2
v 0.1 1.9 -0.2
v 0.1 2 -0.2
v 0.6 1.4 -0.2
v 0.6 1.5 -0.2
v 0.6 1.8 -0.2
v 0.6 2 -0.2
v 0.8 2.2 -0.2
v 0.8 2.4 -0.2
v 0.9 2.2 -0.2
v 0.9 2.3 -0.2
v 0.9 2.4 -0.2
v 0.9 2.5 -0.2
v 1 2.2 -0.2
v 1 2.3 -0.2
v 1 2.4 -0.2
v 1 2.5 -0.2
v 1.2 1.4 -0.2
v 1.2 1.5 -0.2
v 1.2 1.8 -0.2
v 1.2 2 -0.2
v -2.23517e-08 1.6 -0.3
v -2.23517e-08 1.7 -0.3
v -2.23517e-08 2 -0.3
v -2.23517e-08 2.1 -0.3
v 0.1 1.6 -0.3
v 0.1 1.7 -0.3
v 0.1 2 -0.3
v 0.1 2.1 -0.3
v 0.6 1.5 -0.3
v 0.6 1.8 -0.3
v 0.9 2.5 -0.3
v 0.9 2.6 -0.3
v 1 2.5 -0.3
v 1 2.6 -0.3
v 1.2 1.5 -0.3
v 1.2 1.8 -0.3
v 0.6 1.5 0.3
v 0.6 1.8 0.3
v 0.9 2.5 0.3
v 0.9 2.6 0.3
v 1 2.5 0.3
v 1 2.6 0.3
v 1.2 1.5 0.3
v 1.2 1.8 0.3
v -2.23517e-08 1.6 0.2
v -2.23517e-08 1.7 0.2
v -2.23517e-08 2 0.2
v -2.23517e-08 2.1 0.2
v 0.1 1.6 0.2
v 0.1 1.7 0.2
v 0.1 2 0.2
v 0.1 2.1 0.2
v 0.6 1.4 0.2
v 0.6 1.5 0.2
v 0.6 1.8 0.2
v 0.6 2 0.2
v 0.8 2.2 0.2
v 0.8 2.4 0.2
v 0.9 2.2 0.2
v 0.9 2.3 0.2
v 0.9 2.4 0.2
v 0.9 2.5 0.2
v 1 2.2 0.2
v 1 2.3 0.2
v 1 2.4 0.2
v 1 2.5 0.2
v 1.2 1.4 0.2
v 1.2 1.5 0.2
v 1.2 1.8 0.2
v 1.2 2 0.2
v 0.9 2.3 0.1
v 0.9 2.4 0.1
v 1 2.3 0.1
v 1 2.4 0.1
v -2.23517e-08 1.7 0
v -2.23517e-08 2 0
v 0.1 1.7 0
v 0.1 2 0
v 0.1 1.2 -0.2
v 0.1 1.3 -0.2
v 0.1 2.1 -0.2
v 0.1 2.2 -0.2
v 0.8 2.1 -0.2
v 0.8 2.2 -0.2
v 1 2.1 -0.2
v 1 2.2 -0.2
v 1.2 1.2 -0.2
v 1.2 1.3 -0.2
v 1.2 2.1 -0.2
v 1.2 2.2 -0.2
v -2.23517e-08 1.6 -0.4
v -2.23517e-08 1.7 -0.4
v 0.1 1.3 -0.4
v 0.1 1.5 -0.4
v 0.1 1.6 -0.4
v 0.1 1.7 -0.4
v 0.1 1.9 -0.4
v 0.1 2.1 -0.4
v 0.8 2.1 -0.4
v 0.8 2.4 -0.4
v 0.9 2.1 -0.4
v 0.9 2.4 -0.4
v 0.9 2.5 -0.4
v 1 2.1 -0.4
v 1 2.4 -0.4
v 1 2.5 -0.4
v 1.2 1.3 -0.4
v 1.2 1.5 -0.4
v 1.2 1.9 -0.4
v 1.2 2.1 -0.4
v -2.23517e-08 2 -0.5
v -2.23517e-08 2.1 -0.5
v 0.1 1.5 -0.5
v 0.1 1.7 -0.5
v 0.1 1.9 -0.5
v 0.1 2 -0.5
v 0.1 2.1 -0.5
v 0.9 2.5 -0.5
v 0.9 2.6 -0.5
v 1 2.5 -0.5
v 1 2.6 -0.5
v 1.2 1.5 -0.5
v 1.2 1.9 -0.5
v -2.23517e-08 1.7 -0.6
v -2.23517e-08 2 -0.6
v 0.1 1.7 -0.6
v 0.1 2 -0.6
v 0.1 1.2 0.2
v 1.2 1.2 0.2
v 0.1 1.2 -0.2
v 1.2 1.2 -0.2
v 0.1 1.3 0.4
v 1.2 1.3 0.4
v 0.1 1.3 0.2
v 1.2 1.3 0.2
v 0.1 1.3 -0.2
v 1.2 1.3 -0.2
v 0.1 1.3 -0.4
v 1.2 1.3 -0.4
v 0.1 1.5 0.5
v 1.2 1.5 0.5
v 0.1 1.5 0.4
v 1.2 1.5 0.4
v 0.1 1.5 -0.4
v 1.2 1.5 -0.4
v 0.1 1.5 -0.5
v 1.2 1.5 -0.5
v -2.23517e-08 1.6 0.3
v 0.1 1.6 0.3
v -2.23517e-08 1.6 0.2
v 0.1 1.6 0.2
v -2.23517e-08 1.6 -0.3
v 0.1 1.6 -0.3
v -2.23517e-08 1.6 -0.4
v 0.1 1.6 -0.4
v -2.23517e-08 1.7 0.2
v 0.1 1.7 0.2
v -2.23517e-08 1.7 0
v 0.1 1.7 0
v -2.23517e-08 1.7 -0.1
v 0.1 1.7 -0.1
v -2.23517e-08 1.7 -0.3
v 0.1 1.7 -0.3
v -2.23517e-08 1.7 -0.4
v 0.1 1.7 -0.4
v 0.1 1.7 -0.5
v -2.23517e-08 1.7 -0.6
v 0.1 1.7 -0.6
v -2.23517e-08 1.8 0.5
v 0.1 1.8 0.5
v -2.23517e-08 1.8 0.3
v 0.1 1.8 0.3
v 0.6 1.8 0.3
v 1.2 1.8 0.3
v 0.6 1.8 0.2
v 1.2 1.8 0.2
v 0.6 1.8 -0.2
v 1.2 1.8 -0.2
v 0.6 1.8 -0.3
v 1.2 1.8 -0.3
v 0.6 2 0.2
v 1.2 2 0.2
v 0.6 2 -0.2
v 1.2 2 -0.2
v 0.9 2.3 0.2
v 1 2.3 0.2
v 0.9 2.3 0.1
v 1 2.3 0.1
v 0.9 2.3 -0.1
v 1 2.3 -0.1
v 0.9 2.3 -0.2
v 1 2.3 -0.2
v 0.9 2.5 0.5
v 1 2.5 0.5
v 0.9 2.5 0.4
v 1 2.5 0.4
v 0.9 2.5 -0.4
v 1 2.5 -0.4
v 0.9 2.5 -0.5
v 1 2.5 -0.5
v 0.6 1.4 0.2
v 1.2 1.4 0.2
v 0.6 1.4 -0.2
v 1.2 1.4 -0.2
v 0.6 1.5 0.3
v 1.2 1.5 0.3
v 0.6 1.5 0.2
v 1.2 1.5 0.2
v 0.6 1.5 -0.2
v 1.2 1.5 -0.2
v 0.6 1.5 -0.3
v 1.2 1.5 -0.3
v 0.1 1.9 0.5
v 1.2 1.9 0.5
v 0.1 1.9 0.4
v 1.2 1.9 0.4
v -2.23517e-08 1.9 -0.1
v 0.1 1.9 -0.1
v -2.23517e-08 1.9 -0.2
v 0.1 1.9 -0.2
v 0.1 1.9 -0.4
v 1.2 1.9 -0.4
v 0.1 1.9 -0.5
v 1.2 1.9 -0.5
v -2.23517e-08 2 0.2
v 0.1 2 0.2
v -2.23517e-08 2 0
v 0.1 2 0
v -2.23517e-08 2 -0.2
v 0.1 2 -0.2
v -2.23517e-08 2 -0.3
v 0.1 2 -0.3
v -2.23517e-08 2 -0.5
v 0.1 2 -0.5
v -2.23517e-08 2 -0.6
v 0.1 2 -0.6
v -2.23517e-08 2.1 0.5
v 0.1 2.1 0.5
v 0.1 2.1 0.4
v 0.8 2.1 0.4
v 1 2.1 0.4
v 1.2 2.1 0.4
v -2.23517e-08 2.1 0.2
v 0.1 2.1 0.2
v 0.8 2.1 0.2
v 1 2.1 0.2
v 1.2 2.1 0.2
v 0.1 2.1 -0.2
v 0.8 2.1 -0.2
v 1 2.1 -0.2
v 1.2 2.1 -0.2
v -2.23517e-08 2.1 -0.3
v 0.1 2.1 -0.3
v 0.1 2.1 -0.4
v 0.8 2.1 -0.4
v 1 2.1 -0.4
v 1.2 2.1 -0.4
v -2.23517e-08 2.1 -0.5
v 0.1 2.1 -0.5
v 0.1 2.2 0.2
v 0.8 2.2 0.2
v 0.9 2.2 0.2
v 1 2.2 0.2
v 1.2 2.2 0.2
v 0.1 2.2 -0.2
v 0.8 2.2 -0.2
v 0.9 2.2 -0.2
v 1 2.2 -0.2
v 1.2 2.2 -0.2
v 0.8 2.4 0.4
v 0.9 2.4 0.4
v 0.8 2.4 0.2
v 0.9 2.4 0.2
v 1 2.4 0.2
v 0.9 2.4 0.1
v 1 2.4 0.1
v 0.9 2.4 -0.1
v 1 2.4 -0.1
v 0.8 2.4 -0.2
v 0.9 2.4 -0.2
v 1 2.4 -0.2
v 0.8 2.4 -0.4
v 0.9 2.4 -0.4
v 0.9 2.5 0.3
v 1 2.5 0.3
v 0.9 2.5 0.2
v 1 2.5 0.2
v 0.9 2.5 -0.2
v 1 2.5 -0.2
v 0.9 2.5 -0.3
v 1 2.5 -0.3
v 0.9 2.6 0.5
v 1 2.6 0.5
v 0.9 2.6 0.3
v 1 2.6 0.3
v 0.9 2.6 -0.3
v 1 2.6 -0.3
v 0.9 2.6 -0.5
v 1 2.6 -0.5

# faces
f 5/2/1 2/2/1 1/2/1
f 8/2/1 4/2/1 3/2/1
f 9/2/1 4/2/1 8/2/1
f 12/2/1 6/2/1 5/2/1
f 12/2/1 5/2/1 1/2/1
f 13/2/1 6/2/1 12/2/1
f 14/2/1 6/2/1 13/2/1
f 15/2/1 10/2/1 9/2/1
f 15/2/1 9/2/1 8/2/1
f 15/2/1 8/2/1 7/2/1
f 16/2/1 10/2/1 15/2/1
f 17/2/1 13/2/1 12/2/1
f 17/2/1 12/2/1 11/2/1
f 18/3/1 14/3/1 13/3/1
f 18/2/1 13/2/1 17/2/1
f 19/2/1 6/2/1 14/2/1
f 19/3/1 14/3/1 18/3/1
f 20/2/1 15/2/1 7/2/1
f 21/2/1 15/2/1 20/2/1
f 22/3/1 16/3/1 15/3/1
f 22/2/1 15/2/1 21/2/1
f 23/2/1 10/2/1 16/2/1
f 23/3/1 16/3/1 22/3/1
f 24/3/1 18/3/1 17/3/1
f 24/2/1 17/2/1 11/2/1
f 25/2/1 19/2/1 18/2/1
f 25/3/1 18/3/1 24/3/1
f 26/2/1 6/2/1 19/2/1
f 26/2/1 19/2/1 25/2/1
f 27/2/1 23/2/1 22/2/1
f 27/2/1 22/2/1 21/2/1
f 28/2/1 23/2/1 27/2/1
f 29/2/1 10/2/1 23/2/1
f 29/2/1 23/2/1 28/2/1
f 30/2/1 10/2/1 29/2/1
f 31/2/1 24/2/1 11/2/1
f 31/2/1 25/2/1 24/2/1
f 32/2/1 25/2/1 31/2/1
f 33/2/1 29/2/1 28/2/1
f 34/2/1 29/2/1 33/2/1
f 38/1/1 36/1/1 35/1/1
f 39/1/1 36/1/1 38/1/1
f 42/1/1 38/1/1 37/1/1
f 42/1/1 40/1/1 39/1/1
f 42/1/1 39/1/1 38/1/1
f 43/1/1 40/1/1 42/1/1
f 45/1/1 42/1/1 41/1/1
f 45/1/1 44/1/1 43/1/1
f 45/1/1 43/1/1 42/1/1
f 46/1/1 44/1/1 45/1/1
f 47/1/1 44/1/1 46/1/1
f 48/1/1 44/1/1 47/1/1
f 49/1/1 47/1/1 46/1/1
f 50/1/1 47/1/1 49/1/1
f 51/1/1 47/1/1 50/1/1
f 52/1/1 47/1/1 51/1/1
f 53/1/1 44/1/1 48/1/1
f 54/1/1 44/1/1 53/1/1
f 55/1/1 45/1/1 41/1/1
f 56/1/1 45/1/1 55/1/1
f 57/1/1 51/1/1 50/1/1
f 60/1/1 57/1/1 50/1/1
f 60/1/1 58/1/1 57/1/1
f 61/1/1 58/1/1 60/1/1
f 63/1/1 60/1/1 59/1/1
f 63/1/1 62/1/1 61/1/1
f 63/1/1 61/1/1 60/1/1
f 64/1/1 62/1/1 63/1/1
f 65/1/1 62/1/1 64/1/1
f 66/1/1 64/1/1 63/1/1
f 67/1/1 64/1/1 66/1/1
f 72/1/1 69/1/1 68/1/1
f 73/1/1 71/1/1 70/1/1
f 74/1/1 72/1/1 68/1/1
f 75/1/1 72/1/1 74/1/1
f 76/1/1 71/1/1 73/1/1
f 77/1/1 71/1/1 76/1/1
f 83/6/1 79/6/1 78/6/1
f 84/6/1 79/6/1 83/6/1
f 85/6/1 81/6/1 80/6/1
f 86/6/1 81/6/1 85/6/1
f 89/6/1 83/6/1 82/6/1
f 90/6/1 83/6/1 89/6/1
f 91/6/1 83/6/1 90/6/1
f 92/6/1 87/6/1 86/6/1
f 93/6/1 87/6/1 92/6/1
f 94/6/1 87/6/1 93/6/1
f 96/6/1 89/6/1 88/6/1
f 96/6/1 90/6/1 89/6/1
f 97/6/1 90/6/1 96/6/1
f 98/6/1 95/6/1 94/6/1
f 98/6/1 94/6/1 93/6/1
f 99/6/1 95/6/1 98/6/1
f 100/2/2 101/2/2 105/2/2
f 105/2/2 101/2/2 106/2/2
f 104/2/2 105/2/2 106/2/2
f 106/2/2 101/2/2 107/2/2
f 102/2/2 103/2/2 108/2/2
f 108/2/2 103/2/2 109/2/2
f 104/2/2 106/2/2 110/2/2
f 110/2/2 106/2/2 111/2/2
f 112/3/2 113/3/2 115/3/2
f 115/3/2 113/3/2 116/3/2
f 114/3/2 115/3/2 118/3/2
f 116/3/2 117/3/2 118/3/2
f 115/3/2 116/3/2 118/3/2
f 118/3/2 117/3/2 119/3/2
f 119/3/2 117/3/2 120/3/2
f 120/3/2 117/3/2 121/3/2
f 119/3/2 120/3/2 122/3/2
f 122/3/2 120/3/2 123/3/2
f 124/5/2 125/5/2 128/5/2
f 128/5/2 125/5/2 129/5/2
f 126/5/2 127/5/2 130/5/2
f 130/5/2 127/5/2 131/5/2
f 128/4/2 129/4/2 132/4/2
f 130/4/2 131/4/2 135/4/2
f 124/5/2 128/5/2 136/5/2
f 128/4/2 132/4/2 137/4/2
f 136/5/2 128/5/2 137/5/2
f 132/6/2 133/6/2 138/6/2
f 137/4/2 132/4/2 138/4/2
f 138/6/2 133/6/2 139/6/2
f 134/6/2 135/6/2 140/6/2
f 135/4/2 131/4/2 141/4/2
f 140/6/2 135/6/2 141/6/2
f 131/5/2 127/5/2 142/5/2
f 141/4/2 131/4/2 142/4/2
f 142/5/2 127/5/2 143/5/2
f 136/6/2 137/6/2 145/6/2
f 137/6/2 138/6/2 145/6/2
f 145/6/2 138/6/2 146/6/2
f 146/6/2 138/6/2 147/6/2
f 142/6/2 143/6/2 148/6/2
f 141/6/2 142/6/2 148/6/2
f 148/6/2 143/6/2 149/6/2
f 149/6/2 143/6/2 150/6/2
f 145/6/2 146/6/2 152/6/2
f 144/6/2 145/6/2 152/6/2
f 152/6/2 146/6/2 153/6/2
f 149/6/2 150/6/2 154/6/2
f 150/6/2 151/6/2 154/6/2
f 154/6/2 151/6/2 155/6/2
f 156/1/2 157/1/2 159/1/2
f 159/1/2 157/1/2 160/1/2
f 158/1/2 159/1/2 162/1/2
f 159/3/2 160/3/2 163/3/2
f 162/1/2 159/1/2 163/1/2
f 160/1/2 161/1/2 164/1/2
f 163/3/2 160/3/2 164/3/2
f 164/1/2 161/1/2 165/1/2
f 158/1/2 162/1/2 167/1/2
f 162/3/2 163/3/2 168/3/2
f 167/1/2 162/1/2 168/1/2
f 168/3/2 163/3/2 169/3/2
f 164/3/2 165/3/2 170/3/2
f 165/1/2 161/1/2 171/1/2
f 170/3/2 165/3/2 171/3/2
f 171/1/2 161/1/2 172/1/2
f 166/1/2 167/1/2 174/1/2
f 167/3/2 168/3/2 174/3/2
f 174/3/2 168/3/2 175/3/2
f 171/3/2 172/3/2 178/3/2
f 172/1/2 173/1/2 179/1/2
f 178/3/2 172/3/2 179/3/2
f 166/1/2 174/1/2 180/1/2
f 174/1/2 175/1/2 180/1/2
f 180/1/2 175/1/2 181/1/2
f 179/1/2 173/1/2 182/1/2
f 178/1/2 179/1/2 182/1/2
f 182/1/2 173/1/2 183/1/2
f 175/3/2 176/3/2 184/3/2
f 181/1/2 175/1/2 184/1/2
f 184/3/2 176/3/2 185/3/2
f 177/3/2 178/3/2 186/3/2
f 178/1/2 182/1/2 187/1/2
f 186/3/2 178/3/2 187/3/2
f 184/1/2 185/1/2 188/1/2
f 181/1/2 184/1/2 188/1/2
f 185/3/2 186/3/2 189/3/2
f 188/1/2 185/1/2 189/1/2
f 186/1/2 187/1/2 190/1/2
f 189/3/2 186/3/2 190/3/2
f 187/1/2 182/1/2 191/1/2
f 190/1/2 187/1/2 191/1/2
f 189/1/2 190/1/2 192/1/2
f 192/1/2 190/1/2 193/1/2
f 197/2/3 195/2/3 194/2/3
f 198/2/3 195/2/3 197/2/3
f 199/2/3 195/2/3 198/2/3
f 202/6/3 201/6/3 200/6/3
f 203/6/3 201/6/3 202/6/3
f 204/1/3 197/1/3 196/1/3
f 204/1/3 198/1/3 197/1/3
f 205/1/3 198/1/3 204/1/3
f 210/1/3 209/1/3 208/1/3
f 212/1/3 210/1/3 208/1/3
f 212/1/3 211/1/3 210/1/3
f 213/1/3 211/1/3 212/1/3
f 215/1/3 212/1/3 208/1/3
f 215/5/3 213/5/3 212/5/3
f 216/6/3 214/6/3 213/6/3
f 216/5/3 213/5/3 215/5/3
f 217/6/3 214/6/3 216/6/3
f 218/1/3 207/1/3 206/1/3
f 219/1/3 207/1/3 218/1/3
f 220/1/3 215/1/3 208/1/3
f 221/1/3 215/1/3 220/1/3
f 224/2/3 223/2/3 222/2/3
f 225/2/3 223/2/3 224/2/3
f 230/1/3 229/1/3 228/1/3
f 231/1/3 229/1/3 230/1/3
f 234/1/3 227/1/3 226/1/3
f 235/1/3 227/1/3 234/1/3
f 236/1/3 233/1/3 232/1/3
f 237/1/3 233/1/3 236/1/3
f 240/2/3 239/2/3 238/2/3
f 241/2/3 239/2/3 240/2/3
f 244/6/3 243/6/3 242/6/3
f 245/6/3 243/6/3 244/6/3
f 248/2/3 247/2/3 246/2/3
f 249/2/3 247/2/3 248/2/3
f 256/1/3 255/1/3 254/1/3
f 257/1/3 255/1/3 256/1/3
f 258/1/3 255/1/3 257/1/3
f 260/4/3 257/4/3 256/4/3
f 261/4/3 257/4/3 260/4/3
f 262/6/3 259/6/3 258/6/3
f 263/6/3 259/6/3 262/6/3
f 264/3/3 251/3/3 250/3/3
f 265/3/3 251/3/3 264/3/3
f 266/3/3 253/3/3 252/3/3
f 267/3/3 253/3/3 266/3/3
f 272/2/3 269/2/3 268/2/3
f 273/2/3 269/2/3 272/2/3
f 274/2/3 271/2/3 270/2/3
f 275/2/3 271/2/3 274/2/3
f 280/6/3 279/6/3 278/6/3
f 281/6/3 279/6/3 280/6/3
f 282/3/3 277/3/3 276/3/3
f 283/3/3 277/3/3 282/3/3
f 286/6/4 287/6/4 288/6/4
f 288/6/4 287/6/4 289/6/4
f 284/3/4 285/3/4 290/3/4
f 290/3/4 285/3/4 291/3/4
f 292/2/4 293/2/4 296/2/4
f 296/2/4 293/2/4 297/2/4
f 294/2/4 295/2/4 298/2/4
f 298/2/4 295/2/4 299/2/4
f 304/1/4 305/1/4 306/1/4
f 306/1/4 305/1/4 307/1/4
f 307/1/4 305/1/4 308/1/4
f 306/4/4 307/4/4 310/4/4
f 310/4/4 307/4/4 311/4/4
f 308/6/4 309/6/4 312/6/4
f 312/6/4 309/6/4 313/6/4
f 300/3/4 301/3/4 314/3/4
f 314/3/4 301/3/4 315/3/4
f 302/3/4 303/3/4 316/3/4
f 316/3/4 303/3/4 317/3/4
f 318/6/4 319/6/4 320/6/4
f 320/6/4 319/6/4 321/6/4
f 322/2/4 323/2/4 324/2/4
f 324/2/4 323/2/4 325/2/4
f 328/1/4 329/1/4 330/1/4
f 330/1/4 329/1/4 331/1/4
f 326/1/4 327/1/4 334/1/4
f 334/1/4 327/1/4 335/1/4
f 332/1/4 333/1/4 336/1/4
f 336/1/4 333/1/4 337/1/4
f 338/2/4 339/2/4 342/2/4
f 342/2/4 339/2/4 343/2/4
f 344/1/4 345/1/4 346/1/4
f 344/1/4 346/1/4 348/1/4
f 346/1/4 347/1/4 348/1/4
f 348/1/4 347/1/4 349/1/4
f 344/1/4 348/1/4 351/1/4
f 348/5/4 349/5/4 351/5/4
f 349/6/4 350/6/4 352/6/4
f 351/5/4 349/5/4 352/5/4
f 352/6/4 350/6/4 353/6/4
f 340/1/4 341/1/4 354/1/4
f 354/1/4 341/1/4 355/1/4
f 344/1/4 351/1/4 356/1/4
f 356/1/4 351/1/4 357/1/4
f 358/2/4 359/2/4 363/2/4
f 363/2/4 359/2/4 364/2/4
f 365/6/4 366/6/4 367/6/4
f 367/6/4 366/6/4 368/6/4
f 361/1/4 362/1/4 369/1/4
f 360/1/4 361/1/4 369/1/4
f 369/1/4 362/1/4 370/1/4
f 371/2/4 372/2/4 373/2/4
f 373/2/4 372/2/4 374/2/4
f 377/1/5 376/1/5 375/1/5
f 378/1/5 376/1/5 377/1/5
f 381/1/5 380/1/5 379/1/5
f 382/1/5 380/1/5 381/1/5
f 385/1/5 384/1/5 383/1/5
f 386/1/5 384/1/5 385/1/5
f 389/1/5 388/1/5 387/1/5
f 390/1/5 388/1/5 389/1/5
f 393/1/5 392/1/5 391/1/5
f 394/1/5 392/1/5 393/1/5
f 397/2/5 396/2/5 395/2/5
f 398/2/5 396/2/5 397/2/5
f 401/2/5 400/2/5 399/2/5
f 402/2/5 400/2/5 401/2/5
f 405/2/5 404/2/5 403/2/5
f 406/2/5 404/2/5 405/2/5
f 409/2/5 408/2/5 407/2/5
f 410/2/5 408/2/5 409/2/5
f 413/2/5 412/2/5 411/2/5
f 414/2/5 413/2/5 411/2/5
f 415/2/5 413/2/5 414/2/5
f 418/2/5 417/2/5 416/2/5
f 419/2/5 417/2/5 418/2/5
f 422/3/5 421/3/5 420/3/5
f 423/3/5 421/3/5 422/3/5
f 426/3/5 425/3/5 424/3/5
f 427/3/5 425/3/5 426/3/5
f 430/3/5 429/3/5 428/3/5
f 431/3/5 429/3/5 430/3/5
f 434/6/5 433/6/5 432/6/5
f 435/6/5 433/6/5 434/6/5
f 438/6/5 437/6/5 436/6/5
f 439/6/5 437/6/5 438/6/5
f 442/6/5 441/6/5 440/6/5
f 443/6/5 441/6/5 442/6/5
f 446/6/5 445/6/5 444/6/5
f 447/6/5 445/6/5 446/6/5
f 448/3/6 449/3/6 450/3/6
f 450/3/6 449/3/6 451/3/6
f 452/3/6 453/3/6 454/3/6
f 454/3/6 453/3/6 455/3/6
f 456/3/6 457/3/6 458/3/6
f 458/3/6 457/3/6 459/3/6
f 460/1/6 461/1/6 462/1/6
f 462/1/6 461/1/6 463/1/6
f 464/2/6 465/2/6 466/2/6
f 466/2/6 465/2/6 467/2/6
f 468/1/6 469/1/6 470/1/6
f 470/1/6 469/1/6 471/1/6
f 472/2/6 473/2/6 474/2/6
f 474/2/6 473/2/6 475/2/6
f 476/2/6 477/2/6 478/2/6
f 478/2/6 477/2/6 479/2/6
f 480/2/6 481/2/6 482/2/6
f 482/2/6 481/2/6 483/2/6
f 484/2/6 485/2/6 486/2/6
f 484/2/6 486/2/6 490/2/6
f 486/1/6 487/1/6 491/1/6
f 490/2/6 486/2/6 491/2/6
f 491/1/6 487/1/6 492/1/6
f 488/1/6 489/1/6 493/1/6
f 493/1/6 489/1/6 494/1/6
f 495/1/6 496/1/6 500/1/6
f 500/1/6 496/1/6 501/1/6
f 499/2/6 500/2/6 501/2/6
f 501/1/6 496/1/6 502/1/6
f 497/1/6 498/1/6 503/1/6
f 503/1/6 498/1/6 504/1/6
f 499/2/6 501/2/6 505/2/6
f 505/2/6 501/2/6 506/2/6
f 507/1/6 508/1/6 512/1/6
f 510/1/6 511/1/6 512/1/6
f 509/1/6 510/1/6 512/1/6
f 508/1/6 509/1/6 512/1/6
f 512/1/6 511/1/6 513/1/6
f 513/1/6 511/1/6 514/1/6
f 514/1/6 511/1/6 515/1/6
f 515/1/6 511/1/6 516/1/6
f 517/1/6 518/1/6 519/1/6
f 519/1/6 518/1/6 520/1/6
f 520/6/6 521/6/6 522/6/6
f 522/6/6 521/6/6 523/6/6
f 524/6/6 525/6/6 527/6/6
f 527/6/6 525/6/6 528/6/6
f 526/1/6 527/1/6 529/1/6
f 529/1/6 527/1/6 530/1/6
f 531/6/6 532/6/6 533/6/6
f 533/6/6 532/6/6 534/6/6
f 535/6/6 536/6/6 537/6/6
f 537/6/6 536/6/6 538/6/6
f 539/6/6 540/6/6 541/6/6
f 541/6/6 540/6/6 542/6/6
f 543/6/6 544/6/6 545/6/6
f 545/6/6 544/6/6 546/6/6
