# MagicaVoxel @ Ephtracy

# group
o 

# material
mtllib sementinha upgrade.mtl
usemtl palette

# normals
vn -1 0 0
vn 1 0 0
vn 0 0 1
vn 0 0 -1
vn 0 -1 0
vn 0 1 0

# texcoords
vt 0.0683594 0.5
vt 0.923828 0.5
vt 0.955078 0.5
vt 0.974609 0.5
vt 0.978516 0.5
vt 0.982422 0.5
vt 0.986328 0.5
vt 0.990234 0.5

# verts
v -0.6 0.8 0.2
v -0.6 0.8 -0.1
v -0.6 1 0.2
v -0.6 1 -0.1
v -0.5 0.6 0.2
v -0.5 0.6 -0.1
v -0.5 0.7 0.3
v -0.5 0.7 0.2
v -0.5 0.7 -0.1
v -0.5 0.7 -0.3
v -0.5 0.8 0.2
v -0.5 0.8 -0.1
v -0.5 0.9 0.4
v -0.5 0.9 0.3
v -0.5 1 0.2
v -0.5 1 -0.1
v -0.5 1.2 0.4
v -0.5 1.2 -0.3
v -0.4 1.2 0.3
v -0.4 1.2 -0.2
v -0.4 1.3 0.3
v -0.4 1.3 -0.2
v -0.3 0.5 0.2
v -0.3 0.5 -0.1
v -0.3 0.6 0.3
v -0.3 0.6 0.2
v -0.3 0.6 -0.1
v -0.3 0.6 -0.3
v -0.3 0.7 0.3
v -0.3 0.7 0.2
v -0.3 0.7 -0.1
v -0.3 0.7 -0.3
v -0.2 0 0.4
v -0.2 0 0.1
v -0.2 0.1 0.3
v -0.2 0.1 0.2
v -0.2 0.1 0.1
v -0.2 0.1 0
v -0.2 0.2 0.4
v -0.2 0.2 0.3
v -0.2 0.2 0.2
v -0.2 0.2 0.1
v -0.2 0.2 0
v -0.2 0.2 -0.1
v -0.2 0.3 0.1
v -0.2 0.3 0
v -0.2 0.3 -0.1
v -0.2 0.3 -0.2
v -0.2 0.4 0
v -0.2 0.4 -0.1
v -0.2 0.4 -0.2
v -0.2 0.4 -0.3
v -0.2 0.5 0.3
v -0.2 0.5 0.2
v -0.2 0.5 -0.1
v -0.2 0.6 0.3
v -0.2 0.6 0.2
v -0.2 0.6 -0.1
v -0.2 0.6 -0.3
v 5.96046e-08 0.8 -0.2
v 5.96046e-08 0.8 -0.3
v 5.96046e-08 0.9 -0.2
v 5.96046e-08 0.9 -0.3
v -0.2 0.8 -0.2
v -0.2 0.8 -0.3
v -0.2 0.9 -0.2
v -0.2 0.9 -0.3
v 5.96046e-08 0 0.4
v 5.96046e-08 0 0.1
v 5.96046e-08 0.1 0.3
v 5.96046e-08 0.1 0.2
v 5.96046e-08 0.1 0.1
v 5.96046e-08 0.1 0
v 5.96046e-08 0.2 0.4
v 5.96046e-08 0.2 0.3
v 5.96046e-08 0.2 0.2
v 5.96046e-08 0.2 0.1
v 5.96046e-08 0.2 0
v 5.96046e-08 0.2 -0.1
v 5.96046e-08 0.3 0.1
v 5.96046e-08 0.3 0
v 5.96046e-08 0.3 -0.1
v 5.96046e-08 0.3 -0.2
v 5.96046e-08 0.4 0
v 5.96046e-08 0.4 -0.1
v 5.96046e-08 0.4 -0.2
v 5.96046e-08 0.4 -0.3
v 5.96046e-08 0.5 0.3
v 5.96046e-08 0.5 0.2
v 5.96046e-08 0.5 -0.1
v 5.96046e-08 0.6 0.3
v 5.96046e-08 0.6 0.2
v 5.96046e-08 0.6 -0.1
v 5.96046e-08 0.6 -0.3
v 0.1 0.5 0.2
v 0.1 0.5 -0.1
v 0.1 0.6 0.3
v 0.1 0.6 0.2
v 0.1 0.6 -0.1
v 0.1 0.6 -0.3
v 0.1 0.7 0.3
v 0.1 0.7 0.2
v 0.1 0.7 -0.1
v 0.1 0.7 -0.3
v 0.2 1.2 0.3
v 0.2 1.2 -0.2
v 0.2 1.3 0.3
v 0.2 1.3 -0.2
v 0.3 0.6 0.2
v 0.3 0.6 -0.1
v 0.3 0.7 0.3
v 0.3 0.7 0.2
v 0.3 0.7 -0.1
v 0.3 0.7 -0.3
v 0.3 0.8 0.2
v 0.3 0.8 -0.1
v 0.3 0.9 0.4
v 0.3 0.9 0.3
v 0.3 1 0.2
v 0.3 1 -0.1
v 0.3 1.2 0.4
v 0.3 1.2 -0.3
v 0.4 0.8 0.2
v 0.4 0.8 -0.1
v 0.4 1 0.2
v 0.4 1 -0.1
v -0.5 0.9 0.4
v -0.5 1.2 0.4
v -0.2 0 0.4
v -0.2 0.2 0.4
v 5.96046e-08 0 0.4
v 5.96046e-08 0.2 0.4
v 0.3 0.9 0.4
v 0.3 1.2 0.4
v -0.5 0.7 0.3
v -0.5 0.9 0.3
v -0.4 0.7 0.3
v -0.4 0.9 0.3
v -0.4 1.2 0.3
v -0.4 1.3 0.3
v -0.3 0.6 0.3
v -0.3 0.7 0.3
v -0.3 0.8 0.3
v -0.2 0.5 0.3
v -0.2 0.6 0.3
v -0.2 0.7 0.3
v -0.2 0.8 0.3
v 5.96046e-08 0.5 0.3
v 5.96046e-08 0.6 0.3
v 5.96046e-08 0.7 0.3
v 5.96046e-08 0.8 0.3
v 0.1 0.6 0.3
v 0.1 0.7 0.3
v 0.1 0.8 0.3
v 0.2 0.7 0.3
v 0.2 0.9 0.3
v 0.2 1.2 0.3
v 0.2 1.3 0.3
v 0.3 0.7 0.3
v 0.3 0.9 0.3
v -0.6 0.8 0.2
v -0.6 1 0.2
v -0.5 0.6 0.2
v -0.5 0.7 0.2
v -0.5 0.8 0.2
v -0.5 1 0.2
v -0.4 0.6 0.2
v -0.4 0.7 0.2
v -0.3 0.5 0.2
v -0.3 0.6 0.2
v -0.3 0.7 0.2
v -0.2 0.1 0.2
v -0.2 0.2 0.2
v -0.2 0.5 0.2
v -0.2 0.6 0.2
v 5.96046e-08 0.1 0.2
v 5.96046e-08 0.2 0.2
v 5.96046e-08 0.5 0.2
v 5.96046e-08 0.6 0.2
v 0.1 0.5 0.2
v 0.1 0.6 0.2
v 0.1 0.7 0.2
v 0.2 0.6 0.2
v 0.2 0.7 0.2
v 0.3 0.6 0.2
v 0.3 0.7 0.2
v 0.3 0.8 0.2
v 0.3 1 0.2
v 0.4 0.8 0.2
v 0.4 1 0.2
v -0.2 0.2 0.1
v -0.2 0.3 0.1
v 5.96046e-08 0.2 0.1
v 5.96046e-08 0.3 0.1
v -0.2 0.3 0
v -0.2 0.4 0
v 5.96046e-08 0.3 0
v 5.96046e-08 0.4 0
v -0.2 0.4 -0.1
v -0.2 0.5 -0.1
v 5.96046e-08 0.4 -0.1
v 5.96046e-08 0.5 -0.1
v -0.2 0.1 0.3
v -0.2 0.2 0.3
v 5.96046e-08 0.1 0.3
v 5.96046e-08 0.2 0.3
v -0.2 0 0.1
v -0.2 0.1 0.1
v 5.96046e-08 0 0.1
v 5.96046e-08 0.1 0.1
v -0.2 0.1 0
v -0.2 0.2 0
v 5.96046e-08 0.1 0
v 5.96046e-08 0.2 0
v -0.6 0.8 -0.1
v -0.6 1 -0.1
v -0.5 0.6 -0.1
v -0.5 0.7 -0.1
v -0.5 0.8 -0.1
v -0.5 1 -0.1
v -0.4 0.6 -0.1
v -0.4 0.7 -0.1
v -0.3 0.5 -0.1
v -0.3 0.6 -0.1
v -0.3 0.7 -0.1
v -0.2 0.2 -0.1
v -0.2 0.3 -0.1
v -0.2 0.5 -0.1
v -0.2 0.6 -0.1
v 5.96046e-08 0.2 -0.1
v 5.96046e-08 0.3 -0.1
v 5.96046e-08 0.5 -0.1
v 5.96046e-08 0.6 -0.1
v 0.1 0.5 -0.1
v 0.1 0.6 -0.1
v 0.1 0.7 -0.1
v 0.2 0.6 -0.1
v 0.2 0.7 -0.1
v 0.3 0.6 -0.1
v 0.3 0.7 -0.1
v 0.3 0.8 -0.1
v 0.3 1 -0.1
v 0.4 0.8 -0.1
v 0.4 1 -0.1
v -0.4 1.2 -0.2
v -0.4 1.3 -0.2
v -0.2 0.3 -0.2
v -0.2 0.4 -0.2
v -0.2 0.8 -0.2
v -0.2 0.9 -0.2
v 5.96046e-08 0.3 -0.2
v 5.96046e-08 0.4 -0.2
v 5.96046e-08 0.8 -0.2
v 5.96046e-08 0.9 -0.2
v 0.2 1.2 -0.2
v 0.2 1.3 -0.2
v -0.5 0.7 -0.3
v -0.5 1.2 -0.3
v -0.3 0.6 -0.3
v -0.3 0.7 -0.3
v -0.3 0.8 -0.3
v -0.2 0.4 -0.3
v -0.2 0.6 -0.3
v -0.2 0.8 -0.3
v -0.2 0.9 -0.3
v 5.96046e-08 0.4 -0.3
v 5.96046e-08 0.6 -0.3
v 5.96046e-08 0.8 -0.3
v 5.96046e-08 0.9 -0.3
v 0.1 0.6 -0.3
v 0.1 0.7 -0.3
v 0.1 0.8 -0.3
v 0.3 0.7 -0.3
v 0.3 1.2 -0.3
v -0.2 0 0.4
v 5.96046e-08 0 0.4
v -0.2 0 0.1
v 5.96046e-08 0 0.1
v -0.2 0.1 0.1
v 5.96046e-08 0.1 0.1
v -0.2 0.1 0
v 5.96046e-08 0.1 0
v -0.2 0.2 0
v 5.96046e-08 0.2 0
v -0.2 0.2 -0.1
v 5.96046e-08 0.2 -0.1
v -0.2 0.3 -0.1
v 5.96046e-08 0.3 -0.1
v -0.2 0.3 -0.2
v 5.96046e-08 0.3 -0.2
v -0.2 0.4 -0.2
v 5.96046e-08 0.4 -0.2
v -0.2 0.4 -0.3
v 5.96046e-08 0.4 -0.3
v -0.2 0.5 0.3
v 5.96046e-08 0.5 0.3
v -0.3 0.5 0.2
v -0.2 0.5 0.2
v 5.96046e-08 0.5 0.2
v 0.1 0.5 0.2
v -0.3 0.5 -0.1
v -0.2 0.5 -0.1
v 5.96046e-08 0.5 -0.1
v 0.1 0.5 -0.1
v -0.3 0.6 0.3
v -0.2 0.6 0.3
v 5.96046e-08 0.6 0.3
v 0.1 0.6 0.3
v -0.5 0.6 0.2
v -0.4 0.6 0.2
v -0.3 0.6 0.2
v -0.2 0.6 0.2
v 5.96046e-08 0.6 0.2
v 0.1 0.6 0.2
v 0.2 0.6 0.2
v 0.3 0.6 0.2
v -0.5 0.6 -0.1
v -0.4 0.6 -0.1
v -0.3 0.6 -0.1
v -0.2 0.6 -0.1
v 5.96046e-08 0.6 -0.1
v 0.1 0.6 -0.1
v 0.2 0.6 -0.1
v 0.3 0.6 -0.1
v -0.3 0.6 -0.3
v -0.2 0.6 -0.3
v 5.96046e-08 0.6 -0.3
v 0.1 0.6 -0.3
v -0.5 0.7 0.3
v -0.4 0.7 0.3
v -0.3 0.7 0.3
v 0.1 0.7 0.3
v 0.2 0.7 0.3
v 0.3 0.7 0.3
v -0.5 0.7 0.2
v -0.4 0.7 0.2
v -0.3 0.7 0.2
v 0.1 0.7 0.2
v 0.2 0.7 0.2
v 0.3 0.7 0.2
v -0.5 0.7 -0.1
v -0.4 0.7 -0.1
v -0.3 0.7 -0.1
v 0.1 0.7 -0.1
v 0.2 0.7 -0.1
v 0.3 0.7 -0.1
v -0.5 0.7 -0.3
v -0.3 0.7 -0.3
v 0.1 0.7 -0.3
v 0.3 0.7 -0.3
v -0.6 0.8 0.2
v -0.5 0.8 0.2
v 0.3 0.8 0.2
v 0.4 0.8 0.2
v -0.6 0.8 -0.1
v -0.5 0.8 -0.1
v 0.3 0.8 -0.1
v 0.4 0.8 -0.1
v -0.5 0.9 0.4
v 0.3 0.9 0.4
v -0.5 0.9 0.3
v -0.4 0.9 0.3
v 0.2 0.9 0.3
v 0.3 0.9 0.3
v -0.2 0.9 -0.2
v 5.96046e-08 0.9 -0.2
v -0.2 0.9 -0.3
v 5.96046e-08 0.9 -0.3
v -0.2 0.1 0.3
v 5.96046e-08 0.1 0.3
v -0.2 0.1 0.2
v 5.96046e-08 0.1 0.2
v -0.2 0.2 0.4
v 5.96046e-08 0.2 0.4
v -0.2 0.2 0.3
v 5.96046e-08 0.2 0.3
v -0.2 0.2 0.2
v 5.96046e-08 0.2 0.2
v -0.2 0.2 0.1
v 5.96046e-08 0.2 0.1
v -0.2 0.3 0.1
v 5.96046e-08 0.3 0.1
v -0.2 0.3 0
v 5.96046e-08 0.3 0
v -0.2 0.4 0
v 5.96046e-08 0.4 0
v -0.2 0.4 -0.1
v 5.96046e-08 0.4 -0.1
v -0.2 0.8 -0.2
v 5.96046e-08 0.8 -0.2
v -0.2 0.8 -0.3
v 5.96046e-08 0.8 -0.3
v -0.6 1 0.2
v -0.5 1 0.2
v 0.3 1 0.2
v 0.4 1 0.2
v -0.6 1 -0.1
v -0.5 1 -0.1
v 0.3 1 -0.1
v 0.4 1 -0.1
v -0.5 1.2 0.4
v 0.3 1.2 0.4
v -0.4 1.2 0.3
v 0.2 1.2 0.3
v -0.4 1.2 -0.2
v 0.2 1.2 -0.2
v -0.5 1.2 -0.3
v 0.3 1.2 -0.3
v -0.4 1.3 0.3
v 0.2 1.3 0.3
v -0.4 1.3 -0.2
v 0.2 1.3 -0.2

# faces
f 3/2/1 2/2/1 1/2/1
f 4/2/1 2/2/1 3/2/1
f 8/2/1 6/2/1 5/2/1
f 9/2/1 6/2/1 8/2/1
f 11/2/1 8/2/1 7/2/1
f 11/2/1 10/2/1 9/2/1
f 11/2/1 9/2/1 8/2/1
f 12/2/1 10/2/1 11/2/1
f 14/2/1 11/2/1 7/2/1
f 15/2/1 11/2/1 14/2/1
f 15/2/1 14/2/1 13/2/1
f 16/2/1 10/2/1 12/2/1
f 17/2/1 15/2/1 13/2/1
f 17/2/1 16/2/1 15/2/1
f 18/2/1 10/2/1 16/2/1
f 18/2/1 16/2/1 17/2/1
f 21/2/1 20/2/1 19/2/1
f 22/2/1 20/2/1 21/2/1
f 26/7/1 24/7/1 23/7/1
f 27/7/1 24/7/1 26/7/1
f 29/8/1 26/8/1 25/8/1
f 30/8/1 26/8/1 29/8/1
f 31/6/1 28/6/1 27/6/1
f 32/6/1 28/6/1 31/6/1
f 35/6/1 34/6/1 33/6/1
f 36/6/1 34/6/1 35/6/1
f 37/6/1 34/6/1 36/6/1
f 39/6/1 35/6/1 33/6/1
f 40/6/1 35/6/1 39/6/1
f 41/6/1 38/6/1 37/6/1
f 41/6/1 37/6/1 36/6/1
f 42/6/1 38/6/1 41/6/1
f 43/6/1 38/6/1 42/6/1
f 45/6/1 44/6/1 43/6/1
f 45/6/1 43/6/1 42/6/1
f 46/6/1 44/6/1 45/6/1
f 47/6/1 44/6/1 46/6/1
f 49/6/1 48/6/1 47/6/1
f 49/6/1 47/6/1 46/6/1
f 50/6/1 48/6/1 49/6/1
f 51/6/1 48/6/1 50/6/1
f 55/6/1 52/6/1 51/6/1
f 55/6/1 51/6/1 50/6/1
f 56/7/1 54/7/1 53/7/1
f 57/7/1 54/7/1 56/7/1
f 58/6/1 52/6/1 55/6/1
f 59/6/1 52/6/1 58/6/1
f 62/2/1 61/2/1 60/2/1
f 63/2/1 61/2/1 62/2/1
f 64/2/2 65/2/2 66/2/2
f 66/2/2 65/2/2 67/2/2
f 68/6/2 69/6/2 70/6/2
f 70/6/2 69/6/2 71/6/2
f 71/6/2 69/6/2 72/6/2
f 68/6/2 70/6/2 74/6/2
f 74/6/2 70/6/2 75/6/2
f 72/6/2 73/6/2 76/6/2
f 71/6/2 72/6/2 76/6/2
f 76/6/2 73/6/2 77/6/2
f 77/6/2 73/6/2 78/6/2
f 78/6/2 79/6/2 80/6/2
f 77/6/2 78/6/2 80/6/2
f 80/6/2 79/6/2 81/6/2
f 81/6/2 79/6/2 82/6/2
f 82/6/2 83/6/2 84/6/2
f 81/6/2 82/6/2 84/6/2
f 84/6/2 83/6/2 85/6/2
f 85/6/2 83/6/2 86/6/2
f 86/6/2 87/6/2 90/6/2
f 85/6/2 86/6/2 90/6/2
f 88/7/2 89/7/2 91/7/2
f 91/7/2 89/7/2 92/7/2
f 90/6/2 87/6/2 93/6/2
f 93/6/2 87/6/2 94/6/2
f 95/7/2 96/7/2 98/7/2
f 98/7/2 96/7/2 99/7/2
f 97/8/2 98/8/2 101/8/2
f 101/8/2 98/8/2 102/8/2
f 99/6/2 100/6/2 103/6/2
f 103/6/2 100/6/2 104/6/2
f 105/2/2 106/2/2 107/2/2
f 107/2/2 106/2/2 108/2/2
f 109/2/2 110/2/2 112/2/2
f 112/2/2 110/2/2 113/2/2
f 111/2/2 112/2/2 115/2/2
f 113/2/2 114/2/2 115/2/2
f 112/2/2 113/2/2 115/2/2
f 115/2/2 114/2/2 116/2/2
f 111/2/2 115/2/2 118/2/2
f 118/2/2 115/2/2 119/2/2
f 117/2/2 118/2/2 119/2/2
f 116/2/2 114/2/2 120/2/2
f 117/2/2 119/2/2 121/2/2
f 119/2/2 120/2/2 121/2/2
f 120/2/2 114/2/2 122/2/2
f 121/2/2 120/2/2 122/2/2
f 123/2/2 124/2/2 125/2/2
f 125/2/2 124/2/2 126/2/2
f 131/6/3 130/6/3 129/6/3
f 132/6/3 130/6/3 131/6/3
f 133/2/3 128/2/3 127/2/3
f 134/2/3 128/2/3 133/2/3
f 137/2/3 136/2/3 135/2/3
f 138/2/3 136/2/3 137/2/3
f 142/7/3 138/7/3 137/7/3
f 143/7/3 138/7/3 142/7/3
f 145/8/3 142/8/3 141/8/3
f 146/4/3 143/4/3 142/4/3
f 146/8/3 142/8/3 145/8/3
f 147/7/3 138/7/3 143/7/3
f 147/4/3 143/4/3 146/4/3
f 148/7/3 146/7/3 145/7/3
f 148/7/3 145/7/3 144/7/3
f 148/7/3 147/7/3 146/7/3
f 149/7/3 147/7/3 148/7/3
f 150/7/3 147/7/3 149/7/3
f 151/7/3 138/7/3 147/7/3
f 151/7/3 147/7/3 150/7/3
f 152/8/3 150/8/3 149/8/3
f 153/4/3 151/4/3 150/4/3
f 153/8/3 150/8/3 152/8/3
f 154/7/3 138/7/3 151/7/3
f 154/4/3 151/4/3 153/4/3
f 155/7/3 154/7/3 153/7/3
f 156/7/3 138/7/3 154/7/3
f 156/7/3 154/7/3 155/7/3
f 157/2/3 140/2/3 139/2/3
f 158/2/3 140/2/3 157/2/3
f 159/2/3 156/2/3 155/2/3
f 160/2/3 156/2/3 159/2/3
f 165/2/3 162/2/3 161/2/3
f 166/2/3 162/2/3 165/2/3
f 167/2/3 164/2/3 163/2/3
f 168/2/3 164/2/3 167/2/3
f 170/7/3 168/7/3 167/7/3
f 171/7/3 168/7/3 170/7/3
f 174/7/3 170/7/3 169/7/3
f 175/7/3 170/7/3 174/7/3
f 176/6/3 173/6/3 172/6/3
f 177/6/3 173/6/3 176/6/3
f 180/7/3 179/7/3 178/7/3
f 181/7/3 179/7/3 180/7/3
f 183/7/3 182/7/3 181/7/3
f 184/7/3 182/7/3 183/7/3
f 185/2/3 184/2/3 183/2/3
f 186/2/3 184/2/3 185/2/3
f 189/2/3 188/2/3 187/2/3
f 190/2/3 188/2/3 189/2/3
f 193/6/3 192/6/3 191/6/3
f 194/6/3 192/6/3 193/6/3
f 197/6/3 196/6/3 195/6/3
f 198/6/3 196/6/3 197/6/3
f 201/6/3 200/6/3 199/6/3
f 202/6/3 200/6/3 201/6/3
f 203/6/4 204/6/4 205/6/4
f 205/6/4 204/6/4 206/6/4
f 207/6/4 208/6/4 209/6/4
f 209/6/4 208/6/4 210/6/4
f 211/6/4 212/6/4 213/6/4
f 213/6/4 212/6/4 214/6/4
f 215/2/4 216/2/4 219/2/4
f 219/2/4 216/2/4 220/2/4
f 217/2/4 218/2/4 221/2/4
f 221/2/4 218/2/4 222/2/4
f 221/7/4 222/7/4 224/7/4
f 224/7/4 222/7/4 225/7/4
f 223/7/4 224/7/4 228/7/4
f 228/7/4 224/7/4 229/7/4
f 226/6/4 227/6/4 230/6/4
f 230/6/4 227/6/4 231/6/4
f 232/7/4 233/7/4 234/7/4
f 234/7/4 233/7/4 235/7/4
f 235/7/4 236/7/4 237/7/4
f 237/7/4 236/7/4 238/7/4
f 237/2/4 238/2/4 239/2/4
f 239/2/4 238/2/4 240/2/4
f 241/2/4 242/2/4 243/2/4
f 243/2/4 242/2/4 244/2/4
f 247/6/4 248/6/4 251/6/4
f 251/6/4 248/6/4 252/6/4
f 249/6/4 250/6/4 253/6/4
f 253/6/4 250/6/4 254/6/4
f 245/2/4 246/2/4 255/2/4
f 255/2/4 246/2/4 256/2/4
f 257/2/4 258/2/4 260/2/4
f 260/2/4 258/2/4 261/2/4
f 259/6/4 260/6/4 263/6/4
f 260/6/4 261/6/4 263/6/4
f 261/2/4 258/2/4 264/2/4
f 263/6/4 261/6/4 264/6/4
f 264/2/4 258/2/4 265/2/4
f 262/6/4 263/6/4 266/6/4
f 263/6/4 264/6/4 266/6/4
f 266/6/4 264/6/4 267/6/4
f 267/6/4 264/6/4 268/6/4
f 265/2/4 258/2/4 269/2/4
f 267/6/4 268/6/4 270/6/4
f 270/6/4 268/6/4 271/6/4
f 268/2/4 269/2/4 272/2/4
f 271/6/4 268/6/4 272/6/4
f 271/2/4 272/2/4 273/2/4
f 272/2/4 269/2/4 274/2/4
f 273/2/4 272/2/4 274/2/4
f 269/2/4 258/2/4 274/2/4
f 277/6/5 276/6/5 275/6/5
f 278/6/5 276/6/5 277/6/5
f 281/6/5 280/6/5 279/6/5
f 282/6/5 280/6/5 281/6/5
f 285/6/5 284/6/5 283/6/5
f 286/6/5 284/6/5 285/6/5
f 289/6/5 288/6/5 287/6/5
f 290/6/5 288/6/5 289/6/5
f 293/6/5 292/6/5 291/6/5
f 294/6/5 292/6/5 293/6/5
f 298/7/5 296/7/5 295/7/5
f 299/7/5 296/7/5 298/7/5
f 301/7/5 298/7/5 297/7/5
f 301/7/5 300/7/5 299/7/5
f 301/7/5 299/7/5 298/7/5
f 302/7/5 300/7/5 301/7/5
f 303/7/5 300/7/5 302/7/5
f 304/7/5 300/7/5 303/7/5
f 311/8/5 306/8/5 305/8/5
f 312/8/5 306/8/5 311/8/5
f 313/8/5 308/8/5 307/8/5
f 314/8/5 308/8/5 313/8/5
f 317/2/5 310/2/5 309/2/5
f 318/7/5 311/7/5 310/7/5
f 318/2/5 310/2/5 317/2/5
f 319/7/5 311/7/5 318/7/5
f 322/7/5 315/7/5 314/7/5
f 323/2/5 316/2/5 315/2/5
f 323/7/5 315/7/5 322/7/5
f 324/2/5 316/2/5 323/2/5
f 325/6/5 320/6/5 319/6/5
f 326/6/5 320/6/5 325/6/5
f 327/6/5 322/6/5 321/6/5
f 328/6/5 322/6/5 327/6/5
f 335/2/5 330/2/5 329/2/5
f 336/7/5 331/7/5 330/7/5
f 336/2/5 330/2/5 335/2/5
f 337/7/5 331/7/5 336/7/5
f 338/7/5 333/7/5 332/7/5
f 339/2/5 334/2/5 333/2/5
f 339/7/5 333/7/5 338/7/5
f 340/2/5 334/2/5 339/2/5
f 347/2/5 342/2/5 341/2/5
f 347/2/5 343/2/5 342/2/5
f 348/2/5 343/2/5 347/2/5
f 349/2/5 346/2/5 345/2/5
f 349/2/5 345/2/5 344/2/5
f 350/2/5 346/2/5 349/2/5
f 355/2/5 352/2/5 351/2/5
f 356/2/5 352/2/5 355/2/5
f 357/2/5 354/2/5 353/2/5
f 358/2/5 354/2/5 357/2/5
f 361/2/5 360/2/5 359/2/5
f 362/2/5 360/2/5 361/2/5
f 363/2/5 360/2/5 362/2/5
f 364/2/5 360/2/5 363/2/5
f 367/2/5 366/2/5 365/2/5
f 368/2/5 366/2/5 367/2/5
f 369/6/6 370/6/6 371/6/6
f 371/6/6 370/6/6 372/6/6
f 373/6/6 374/6/6 375/6/6
f 375/6/6 374/6/6 376/6/6
f 377/6/6 378/6/6 379/6/6
f 379/6/6 378/6/6 380/6/6
f 381/6/6 382/6/6 383/6/6
f 383/6/6 382/6/6 384/6/6
f 385/6/6 386/6/6 387/6/6
f 387/6/6 386/6/6 388/6/6
f 389/6/6 390/6/6 391/6/6
f 391/6/6 390/6/6 392/6/6
f 393/2/6 394/2/6 397/2/6
f 397/2/6 394/2/6 398/2/6
f 395/2/6 396/2/6 399/2/6
f 399/2/6 396/2/6 400/2/6
f 401/2/6 402/2/6 403/2/6
f 403/2/6 402/2/6 404/2/6
f 401/2/6 403/2/6 405/2/6
f 404/2/6 402/2/6 406/2/6
f 401/2/6 405/2/6 407/2/6
f 405/2/6 406/2/6 407/2/6
f 406/2/6 402/2/6 408/2/6
f 407/2/6 406/2/6 408/2/6
f 409/2/6 410/2/6 411/2/6
f 411/2/6 410/2/6 412/2/6
